<svg width="50" height="30" viewBox="0 0 50 30" version="1.1" xmlns="http://www.w3.org/2000/svg" xmlns:xlink="http://www.w3.org/1999/xlink">
<title>noun_181561_cc</title>
<desc>Created using Figma</desc>
<g id="Canvas" transform="translate(-4344 -3196)">
<g id="noun_181561_cc">
<g id="Rectangle">
<mask id="mask0_outline_ins">
<use xlink:href="#path0_fill" fill="white" transform="translate(4344 3205.65)"/>
</mask>
<g mask="url(#mask0_outline_ins)">
<use xlink:href="#path1_stroke_2x" transform="translate(4344 3205.65)" fill="#EF7F1A"/>
</g>
</g>
<g id="Rectangle">
<mask id="mask1_outline_ins">
<use xlink:href="#path2_fill" fill="white" transform="translate(4344 3208.7)"/>
</mask>
<g mask="url(#mask1_outline_ins)">
<use xlink:href="#path3_stroke_2x" transform="translate(4344 3208.7)" fill="#EF7F1A"/>
</g>
</g>
<g id="Rectangle">
<mask id="mask2_outline_ins">
<use xlink:href="#path2_fill" fill="white" transform="translate(4344 3211.75)"/>
</mask>
<g mask="url(#mask2_outline_ins)">
<use xlink:href="#path3_stroke_2x" transform="translate(4344 3211.75)" fill="#EF7F1A"/>
</g>
</g>
<g id="Rectangle">
<mask id="mask3_outline_ins">
<use xlink:href="#path2_fill" fill="white" transform="translate(4344 3214.81)"/>
</mask>
<g mask="url(#mask3_outline_ins)">
<use xlink:href="#path3_stroke_2x" transform="translate(4344 3214.81)" fill="#EF7F1A"/>
</g>
</g>
<g id="Rectangle">
<mask id="mask4_outline_ins">
<use xlink:href="#path2_fill" fill="white" transform="translate(4344 3217.86)"/>
</mask>
<g mask="url(#mask4_outline_ins)">
<use xlink:href="#path3_stroke_2x" transform="translate(4344 3217.86)" fill="#EF7F1A"/>
</g>
</g>
<g id="Rectangle">
<mask id="mask5_outline_ins">
<use xlink:href="#path0_fill" fill="white" transform="translate(4344 3220.91)"/>
</mask>
<g mask="url(#mask5_outline_ins)">
<use xlink:href="#path1_stroke_2x" transform="translate(4344 3220.91)" fill="#EF7F1A"/>
</g>
</g>
<g id="Vector">
<use xlink:href="#path4_fill" transform="translate(4345.11 3197)" fill="#FFFFFF"/>
<use xlink:href="#path5_stroke" transform="translate(4345.11 3197)" fill="#EF7F1A"/>
</g>
<g id="&#226;&#130;&#189;">
<use xlink:href="#path6_fill" transform="translate(4364 3206)" fill="#EF7F1A"/>
</g>
</g>
</g>
<defs>
<path id="path0_fill" d="M 0 1C 0 0.447715 0.447715 0 1 0L 49 0C 49.5523 0 50 0.447715 50 1L 50 4.08771C 50 4.63999 49.5523 5.08771 49 5.08771L 0.999999 5.08771C 0.447714 5.08771 0 4.63999 0 4.08771L 0 1Z"/>
<path id="path1_stroke_2x" d="M 1 2L 49 2L 49 -2L 1 -2L 1 2ZM 48 1L 48 4.08771L 52 4.08771L 52 1L 48 1ZM 49 3.08771L 0.999999 3.08771L 0.999999 7.08771L 49 7.08771L 49 3.08771ZM 2 4.08771L 2 1L -2 1L -2 4.08771L 2 4.08771ZM 0.999999 3.08771C 1.55229 3.08771 2 3.53542 2 4.08771L -2 4.08771C -2 5.74456 -0.656857 7.08771 0.999999 7.08771L 0.999999 3.08771ZM 48 4.08771C 48 3.53542 48.4477 3.08771 49 3.08771L 49 7.08771C 50.6569 7.08771 52 5.74456 52 4.08771L 48 4.08771ZM 49 2C 48.4477 2 48 1.55228 48 1L 52 1C 52 -0.656852 50.6569 -2 49 -2L 49 2ZM 1 -2C -0.656854 -2 -2 -0.656854 -2 1L 2 1C 2 1.55228 1.55228 2 1 2L 1 -2Z"/>
<path id="path2_fill" d="M 0 0L 50 0L 50 5.08771L 0 5.08771L 0 0Z"/>
<path id="path3_stroke_2x" d="M 0 0L 0 -2C -1.10457 -2 -2 -1.10457 -2 4.44089e-16L 0 0ZM 50 0L 52 0C 52 -1.10457 51.1046 -2 50 -2L 50 0ZM 50 5.08771L 50 7.08771C 51.1046 7.08771 52 6.19228 52 5.08771L 50 5.08771ZM 0 5.08771L -2 5.08771C -2 6.19228 -1.10457 7.08771 4.44089e-16 7.08771L 0 5.08771ZM 0 2L 50 2L 50 -2L 0 -2L 0 2ZM 48 0L 48 5.08771L 52 5.08771L 52 0L 48 0ZM 50 3.08771L 0 3.08771L 0 7.08771L 50 7.08771L 50 3.08771ZM 2 5.08771L 2 0L -2 0L -2 5.08771L 2 5.08771Z"/>
<path id="path4_fill" d="M 31.6667 27.9824L 15 27.9824L 15 9.66664L 20.5556 0L 26.1111 0L 31.6667 9.66664L 31.6667 27.9824Z"/>
<path id="path5_stroke" d="M 15 27.9824L 14 27.9824C 14 28.5347 14.4477 28.9824 15 28.9824L 15 27.9824ZM 31.6667 27.9824L 31.6667 28.9824C 32.219 28.9824 32.6667 28.5347 32.6667 27.9824L 31.6667 27.9824ZM 31.6667 9.66664L 32.6667 9.66664C 32.6667 9.49178 32.6208 9.31997 32.5337 9.16836L 31.6667 9.66664ZM 15 9.66664L 14.133 9.16836C 14.0459 9.31997 14 9.49178 14 9.66664L 15 9.66664ZM -0.779118 9.03976C -1.12533 9.47006 -1.05717 10.0995 -0.626878 10.4458C -0.196583 10.792 0.432903 10.7238 0.779118 10.2935L -0.779118 9.03976ZM 7.77778 0L 7.77778 -1C 7.47498 -1 7.18848 -0.862797 6.99866 -0.626878L 7.77778 0ZM 41.6667 0L 42.5119 -0.534359C 42.3287 -0.824248 42.0096 -1 41.6667 -1L 41.6667 0ZM 46.9325 10.201C 47.2276 10.6678 47.8453 10.807 48.3121 10.5119C 48.779 10.2168 48.9182 9.59911 48.623 9.13228L 46.9325 10.201ZM 15 28.9824L 31.6667 28.9824L 31.6667 26.9824L 15 26.9824L 15 28.9824ZM 32.6667 27.9824L 32.6667 9.66664L 30.6667 9.66664L 30.6667 27.9824L 32.6667 27.9824ZM 32.5337 9.16836L 26.9781 -0.498285L 25.2441 0.498285L 30.7997 10.1649L 32.5337 9.16836ZM 26.1111 -1L 20.5556 -1L 20.5556 1L 26.1111 1L 26.1111 -1ZM 19.6885 -0.498285L 14.133 9.16836L 15.867 10.1649L 21.4226 0.498285L 19.6885 -0.498285ZM 14 9.66664L 14 27.9824L 16 27.9824L 16 9.66664L 14 9.66664ZM 0.779118 10.2935L 8.5569 0.626878L 6.99866 -0.626878L -0.779118 9.03976L 0.779118 10.2935ZM 7.77778 1L 20.5556 1L 20.5556 -1L 7.77778 -1L 7.77778 1ZM 26.1111 1L 41.6667 1L 41.6667 -1L 26.1111 -1L 26.1111 1ZM 40.8214 0.534359L 46.9325 10.201L 48.623 9.13228L 42.5119 -0.534359L 40.8214 0.534359Z"/>
<path id="path6_fill" d="M 6.02539 11.6738L 3.85156 11.6738L 3.85156 13L 1.80078 13L 1.80078 11.6738L 0.413086 11.6738L 0.413086 10.0127L 1.80078 10.0127L 1.80078 9.49316L 0.413086 9.49316L 0.413086 7.83203L 1.80078 7.83203L 1.80078 3.04688L 5.66992 3.04688C 6.41732 3.04688 7.07357 3.18132 7.63867 3.4502C 8.20378 3.71908 8.64128 4.10417 8.95117 4.60547C 9.26562 5.10221 9.42285 5.6696 9.42285 6.30762C 9.42285 7.29199 9.08789 8.06901 8.41797 8.63867C 7.7526 9.20833 6.8252 9.49316 5.63574 9.49316L 3.85156 9.49316L 3.85156 10.0127L 6.02539 10.0127L 6.02539 11.6738ZM 3.85156 7.83203L 5.62207 7.83203C 6.77051 7.83203 7.34473 7.32845 7.34473 6.32129C 7.34473 5.84277 7.19889 5.45768 6.90723 5.16602C 6.61556 4.86979 6.21224 4.7194 5.69727 4.71484L 3.85156 4.71484L 3.85156 7.83203Z"/>
</defs>
</svg>
