<svg width="50" height="24" viewBox="0 0 50 24" version="1.1" xmlns="http://www.w3.org/2000/svg" xmlns:xlink="http://www.w3.org/1999/xlink">
<title>noun_316575_cc</title>
<desc>Created using Figma</desc>
<g id="Canvas" transform="translate(-4184 -3202)">
<g id="noun_316575_cc">
<g id="Group">
<g id="Vector">
<mask id="mask0_outline_ins">
<use xlink:href="#path0_fill" fill="white" transform="translate(4198.85 3210)"/>
</mask>
<g mask="url(#mask0_outline_ins)">
<use xlink:href="#path1_stroke_2x" transform="translate(4198.85 3210)" fill="#EF7F1A"/>
</g>
</g>
<g id="Ellipse">
<use xlink:href="#path2_stroke" transform="translate(4217.17 3217.5)" fill="#EF7F1A"/>
</g>
<g id="Ellipse">
<use xlink:href="#path2_stroke" transform="translate(4202.32 3217.5)" fill="#EF7F1A"/>
</g>
</g>
<g id="noun_114736_cc">
<g id="Vector">
<use xlink:href="#path3_fill" transform="translate(4189.01 3202)" fill="#EF7F1A"/>
</g>
<g id="Vector">
<use xlink:href="#path4_fill" transform="translate(4208.76 3208.15)" fill="#EF7F1A"/>
</g>
<g id="Vector">
<use xlink:href="#path5_fill" transform="translate(4184 3215.44)" fill="#EF7F1A"/>
</g>
<g id="Vector">
<use xlink:href="#path6_fill" transform="translate(4221.86 3205.63)" fill="#EF7F1A"/>
</g>
</g>
</g>
</g>
<defs>
<path id="path0_fill" d="M 22.7763 8L 21.0205 8C 20.7978 6.89635 19.8913 6.06742 18.8083 6.06742C 17.7258 6.06742 16.8193 6.89635 16.5966 8L 6.17963 8C 5.95693 6.89635 5.05075 6.06742 3.96799 6.06742C 2.88524 6.06742 1.9785 6.89635 1.7558 8L 0.70298 8C 0.315243 8 0 7.65794 0 7.23722C 0 2.72068 1.79717 4.72224 4.18658 2.72068C 5.78283 1.38313 7.43374 0 11.2397 0C 16.9819 0 16.3082 3.09403 16.3604 3.22185C 16.4189 3.37113 16.5375 3.48287 16.682 3.52518L 20.9082 4.16907C 22.009 4.48759 22.776 6.34512 22.776 6.91542L 22.7763 8Z"/>
<path id="path1_stroke_2x" d="M 22.7763 8L 22.7763 10L 24.7768 10L 24.7763 7.9995L 22.7763 8ZM 21.0205 8L 19.06 8.3956L 19.3837 10L 21.0205 10L 21.0205 8ZM 16.5966 8L 16.5966 10L 18.2334 10L 18.5571 8.3956L 16.5966 8ZM 6.17963 8L 4.21915 8.3956L 4.5429 10L 6.17963 10L 6.17963 8ZM 1.7558 8L 1.7558 10L 3.39254 10L 3.71629 8.3956L 1.7558 8ZM 4.18658 2.72068L 5.47087 4.25384L 5.47109 4.25366L 4.18658 2.72068ZM 16.3604 3.22185L 18.2226 2.49222L 18.2174 2.4791L 18.2121 2.46605L 16.3604 3.22185ZM 16.682 3.52518L 16.1197 5.44453L 16.2483 5.48218L 16.3807 5.50236L 16.682 3.52518ZM 20.9082 4.16907L 21.464 2.24787L 21.3385 2.21156L 21.2094 2.19189L 20.9082 4.16907ZM 22.776 6.91542L 20.776 6.91542L 20.776 6.91592L 22.776 6.91542ZM 22.7763 6L 21.0205 6L 21.0205 10L 22.7763 10L 22.7763 6ZM 22.981 7.6044C 22.5971 5.70195 20.9742 4.06742 18.8083 4.06742L 18.8083 8.06742C 18.824 8.06742 18.8581 8.07027 18.9111 8.1172C 18.9689 8.16832 19.033 8.26189 19.06 8.3956L 22.981 7.6044ZM 18.8083 4.06742C 16.6426 4.06742 15.02 5.70226 14.6362 7.6044L 18.5571 8.3956C 18.5841 8.26188 18.6483 8.16824 18.7061 8.11708C 18.7591 8.07009 18.7931 8.06742 18.8083 8.06742L 18.8083 4.06742ZM 16.5966 6L 6.17963 6L 6.17963 10L 16.5966 10L 16.5966 6ZM 8.14012 7.6044C 7.75632 5.70242 6.13405 4.06742 3.96799 4.06742L 3.96799 8.06742C 3.98342 8.06742 4.01734 8.07015 4.07026 8.11702C 4.12793 8.1681 4.19213 8.26172 4.21915 8.3956L 8.14012 7.6044ZM 3.96799 4.06742C 1.80251 4.06742 0.179238 5.7018 -0.204682 7.6044L 3.71629 8.3956C 3.74324 8.26205 3.80735 8.16846 3.86519 8.11725C 3.91831 8.07021 3.95248 8.06742 3.96799 8.06742L 3.96799 4.06742ZM 1.7558 6L 0.70298 6L 0.70298 10L 1.7558 10L 1.7558 6ZM 0.70298 6C 1.57041 6 2 6.71024 2 7.23722L -2 7.23722C -2 8.60564 -0.939925 10 0.70298 10L 0.70298 6ZM 5.47109 4.25366C 6.28361 3.57282 6.91362 3.05618 7.73742 2.66777C 8.52814 2.29496 9.5959 2 11.2397 2L 11.2397 -2C 9.07755 -2 7.41687 -1.60339 6.03158 -0.950252C 4.67937 -0.312706 3.6858 0.530992 2.90206 1.18771L 5.47109 4.25366ZM 11.2397 2C 13.8073 2 14.2803 2.68857 14.2985 2.71441C 14.3336 2.76428 14.3504 2.81604 14.3578 2.8833C 14.3616 2.91803 14.3625 2.95387 14.3614 3.00103C 14.3611 3.01401 14.3607 3.0272 14.3601 3.04565C 14.3597 3.05893 14.3585 3.0908 14.3579 3.11973C 14.3574 3.14293 14.3558 3.21089 14.3594 3.29098C 14.3613 3.33191 14.3656 3.40571 14.3785 3.49606C 14.3887 3.56765 14.418 3.75542 14.5087 3.97766L 18.2121 2.46605C 18.3012 2.68429 18.3292 2.86662 18.3384 2.93137C 18.3503 3.01487 18.354 3.08042 18.3554 3.11175C 18.357 3.14686 18.3571 3.17347 18.3571 3.18588C 18.3571 3.19932 18.3569 3.20819 18.3569 3.20948C 18.3568 3.21109 18.3569 3.2101 18.3571 3.20412C 18.3573 3.19771 18.3575 3.19143 18.3579 3.17972C 18.3586 3.15875 18.3596 3.12784 18.3604 3.0924C 18.3637 2.94589 18.3639 2.71903 18.3338 2.44572C 18.2734 1.8969 18.0899 1.15118 17.5691 0.411571C 16.4756 -1.14156 14.4143 -2 11.2397 -2L 11.2397 2ZM 14.4982 3.95148C 14.7662 4.63541 15.3395 5.21597 16.1197 5.44453L 17.2442 1.60583C 17.7356 1.74976 18.0716 2.10685 18.2226 2.49222L 14.4982 3.95148ZM 16.3807 5.50236L 20.6069 6.14626L 21.2094 2.19189L 16.9832 1.54799L 16.3807 5.50236ZM 20.3523 6.09027C 20.197 6.04533 20.1686 5.98451 20.2467 6.06305C 20.3177 6.13436 20.4159 6.26102 20.5191 6.44125C 20.6199 6.61733 20.6985 6.7977 20.7475 6.94042C 20.7717 7.01092 20.7831 7.05602 20.7868 7.073C 20.7937 7.10454 20.776 7.04181 20.776 6.91542L 24.776 6.91542C 24.776 6.43814 24.6417 5.96446 24.5304 5.64058C 24.4013 5.26467 24.2193 4.85381 23.9907 4.45441C 23.6028 3.77653 22.7981 2.63386 21.464 2.24787L 20.3523 6.09027ZM 20.776 6.91592L 20.7763 8.0005L 24.7763 7.9995L 24.776 6.91492L 20.776 6.91592ZM 2 7.23722C 2 6.18255 2.11423 5.79358 2.15555 5.69746C 2.16254 5.6812 2.13896 5.73835 2.06432 5.80849C 1.99409 5.8745 1.94151 5.8925 1.9722 5.8796C 2.0222 5.85858 2.11085 5.82926 2.33251 5.7695C 2.52175 5.71848 2.82872 5.64 3.14404 5.53725C 3.82784 5.31443 4.63198 4.95656 5.47087 4.25384L 2.90228 1.18752C 2.54646 1.48558 2.22993 1.62811 1.90474 1.73407C 1.71557 1.79572 1.54597 1.83873 1.29126 1.9074C 1.06897 1.96733 0.746302 2.0559 0.422321 2.19207C -0.355027 2.51879 -1.07943 3.09455 -1.51927 4.11767C -1.88958 4.97909 -2 6.03362 -2 7.23722L 2 7.23722Z"/>
<path id="path2_stroke" d="M -0.00972712 0.5C -0.00972712 0.233096 0.207115 0 0.495136 0L 0.495136 2C 1.33007 2 1.99027 1.31919 1.99027 0.5L -0.00972712 0.5ZM 0.495136 0C 0.783158 0 1 0.233096 1 0.5L -1 0.5C -1 1.31919 -0.339798 2 0.495136 2L 0.495136 0ZM 1 0.5C 1 0.766904 0.783158 1 0.495136 1L 0.495136 -1C -0.339798 -1 -1 -0.319189 -1 0.5L 1 0.5ZM 0.495136 1C 0.207115 1 -0.00972712 0.766904 -0.00972712 0.5L 1.99027 0.5C 1.99027 -0.319189 1.33007 -1 0.495136 -1L 0.495136 1Z"/>
<path id="path3_fill" d="M 2.13024 18.3749L 0 18.3749L 0 6.08998C 0 2.72999 2.76931 0 6.1777 0L 20.2373 0L 20.2373 2.09999L 6.1777 2.09999C 3.94095 2.09999 2.13024 3.88499 2.13024 6.08998L 2.13024 18.3749Z"/>
<path id="path4_fill" d="M 14.0596 17.8499L 0 17.8499L 0 15.7499L 14.0596 15.7499C 16.2963 15.7499 18.107 13.965 18.107 11.76L 18.107 0L 20.2373 0L 20.2373 11.76C 20.2373 15.1199 17.468 17.8499 14.0596 17.8499Z"/>
<path id="path5_fill" d="M 6.07119 7.45497L -5.07889e-08 1.47L 1.49117 -8.01084e-07L 6.07119 4.51499L 10.6512 -8.01084e-07L 12.1424 1.47L 6.07119 7.45497Z"/>
<path id="path6_fill" d="M 10.6512 7.45498L 6.07119 2.93999L 1.49117 7.45498L -8.12622e-07 5.98498L 6.07119 4.00542e-07L 12.1424 5.98498L 10.6512 7.45498Z"/>
</defs>
</svg>
