<svg width="52" height="45" viewBox="0 0 52 45" version="1.1" xmlns="http://www.w3.org/2000/svg" xmlns:xlink="http://www.w3.org/1999/xlink">
<title>Group 7.1</title>
<desc>Created using Figma</desc>
<g id="Canvas" transform="translate(-4023 -3182)">
<g id="Group 7.1">
<g id="Vector">
<use xlink:href="#path0_stroke" transform="translate(4024 3211.17)" fill="#EF7F1A"/>
</g>
<g id="Group 7.2">
<g id="Ellipse 3">
<use xlink:href="#path1_fill" transform="translate(4031.73 3198.53)" fill="#FFFFFF"/>
<mask id="mask0_outline_ins">
<use xlink:href="#path1_fill" fill="white" transform="translate(4031.73 3198.53)"/>
</mask>
<g mask="url(#mask0_outline_ins)">
<use xlink:href="#path2_stroke_2x" transform="translate(4031.73 3198.53)" fill="#EF7F1A"/>
</g>
</g>
<g id="Ellipse 4">
<mask id="mask1_outline_ins">
<use xlink:href="#path3_fill" fill="white" transform="translate(4035.56 3202.43)"/>
</mask>
<g mask="url(#mask1_outline_ins)">
<use xlink:href="#path4_stroke_2x" transform="translate(4035.56 3202.43)" fill="#EF7F1A"/>
</g>
</g>
</g>
<g id="Group 7">
<g id="Ellipse 3">
<use xlink:href="#path5_fill" transform="translate(4038.01 3182)" fill="#FFFFFF"/>
<mask id="mask2_outline_ins">
<use xlink:href="#path5_fill" fill="white" transform="translate(4038.01 3182)"/>
</mask>
<g mask="url(#mask2_outline_ins)">
<use xlink:href="#path6_stroke_2x" transform="translate(4038.01 3182)" fill="#EF7F1A"/>
</g>
</g>
<g id="Ellipse 4">
<mask id="mask3_outline_ins">
<use xlink:href="#path7_fill" fill="white" transform="translate(4044.71 3188.71)"/>
</mask>
<g mask="url(#mask3_outline_ins)">
<use xlink:href="#path8_stroke_2x" transform="translate(4044.71 3188.71)" fill="#EF7F1A"/>
</g>
</g>
</g>
<g id="Group 7.1">
<g id="Ellipse 3">
<use xlink:href="#path1_fill" transform="translate(4054.43 3198.53)" fill="#FFFFFF"/>
<mask id="mask4_outline_ins">
<use xlink:href="#path1_fill" fill="white" transform="translate(4054.43 3198.53)"/>
</mask>
<g mask="url(#mask4_outline_ins)">
<use xlink:href="#path2_stroke_2x" transform="translate(4054.43 3198.53)" fill="#EF7F1A"/>
</g>
</g>
<g id="Ellipse 4">
<mask id="mask5_outline_ins">
<use xlink:href="#path3_fill" fill="white" transform="translate(4058.26 3202.43)"/>
</mask>
<g mask="url(#mask5_outline_ins)">
<use xlink:href="#path4_stroke_2x" transform="translate(4058.26 3202.43)" fill="#EF7F1A"/>
</g>
</g>
</g>
</g>
</g>
<defs>
<path id="path0_stroke" d="M 0 11.9116L -0.884583 11.4452C -1.03077 11.7225 -1.03849 12.0523 -0.905429 12.3361C -0.772367 12.6199 -0.513925 12.8249 -0.207274 12.8899L 0 11.9116ZM 6.28019 0L 6.50316 -0.974825C 6.06142 -1.07586 5.60695 -0.867231 5.39561 -0.466382L 6.28019 0ZM 16.9082 2.43094L 16.6852 3.40576C 16.8454 3.4424 17.0121 3.439 17.1707 3.39588L 16.9082 2.43094ZM 25.8454 0L 26.1454 -0.953934C 25.9628 -1.01136 25.7676 -1.01518 25.5829 -0.964941L 25.8454 0ZM 33.5749 2.43094L 33.2749 3.38487C 33.4311 3.43402 33.5971 3.44402 33.7581 3.41401L 33.5749 2.43094ZM 46.6184 0L 47.5803 -0.273103C 47.4393 -0.770018 46.943 -1.07771 46.4351 -0.983072L 46.6184 0ZM 50 11.9116L 50.1973 12.8919C 50.4706 12.8369 50.7085 12.6704 50.8537 12.4324C 50.9989 12.1944 51.0381 11.9067 50.962 11.6385L 50 11.9116ZM 35.5072 14.8287L 35.2864 15.804C 35.4239 15.8352 35.5664 15.8369 35.7046 15.8091L 35.5072 14.8287ZM 25.8454 12.6409L 26.0663 11.6656C 25.9352 11.6359 25.7994 11.6329 25.6672 11.6569L 25.8454 12.6409ZM 13.7681 14.8287L 13.5608 15.807C 13.6878 15.8339 13.8187 15.8358 13.9464 15.8127L 13.7681 14.8287ZM 0.884583 12.378L 7.16478 0.466382L 5.39561 -0.466382L -0.884583 11.4452L 0.884583 12.378ZM 6.05722 0.974825L 16.6852 3.40576L 17.1312 1.45611L 6.50316 -0.974825L 6.05722 0.974825ZM 17.1707 3.39588L 26.1079 0.964941L 25.5829 -0.964941L 16.6457 1.466L 17.1707 3.39588ZM 25.5454 0.953934L 33.2749 3.38487L 33.8749 1.477L 26.1454 -0.953934L 25.5454 0.953934ZM 33.7581 3.41401L 46.8016 0.983072L 46.4351 -0.983072L 33.3917 1.44787L 33.7581 3.41401ZM 45.6564 0.273103L 49.038 12.1847L 50.962 11.6385L 47.5803 -0.273103L 45.6564 0.273103ZM 49.8027 10.9313L 35.3099 13.8484L 35.7046 15.8091L 50.1973 12.8919L 49.8027 10.9313ZM 35.7281 13.8534L 26.0663 11.6656L 25.6246 13.6162L 35.2864 15.804L 35.7281 13.8534ZM 25.6672 11.6569L 13.5899 13.8447L 13.9464 15.8127L 26.0237 13.6249L 25.6672 11.6569ZM 13.9754 13.8504L 0.207274 10.9333L -0.207274 12.8899L 13.5608 15.807L 13.9754 13.8504Z"/>
<path id="path1_fill" d="M 13.5266 6.88122C 13.5266 10.6816 6.76327 22.8508 6.76327 22.8508C 6.76327 22.8508 0 10.6816 0 6.88122C 0 3.08083 3.02803 0 6.76328 0C 10.4985 0 13.5266 3.08083 13.5266 6.88122Z"/>
<path id="path2_stroke_2x" d="M 6.76327 22.8508L 5.01511 23.8224L 6.76327 26.9679L 8.51142 23.8224L 6.76327 22.8508ZM 11.5266 6.88122C 11.5266 7.42229 11.2393 8.58072 10.5993 10.2718C 9.99423 11.8705 9.17632 13.6898 8.34237 15.4247C 7.5112 17.1537 6.67806 18.77 6.05163 19.9558C 5.73879 20.548 5.4784 21.0311 5.29675 21.3653C 5.20595 21.5323 5.13487 21.662 5.08683 21.7493C 5.0628 21.793 5.04454 21.8261 5.03245 21.848C 5.02641 21.8589 5.0219 21.867 5.019 21.8723C 5.01754 21.8749 5.01649 21.8768 5.01584 21.8779C 5.01552 21.8785 5.01529 21.8789 5.01517 21.8792C 5.01511 21.8793 5.0151 21.8793 5.01507 21.8793C 5.01508 21.8793 5.01511 21.8793 6.76327 22.8508C 8.51142 23.8224 8.51151 23.8222 8.51163 23.822C 8.5117 23.8219 8.51184 23.8217 8.51198 23.8214C 8.51227 23.8209 8.51267 23.8202 8.51316 23.8193C 8.51415 23.8175 8.51555 23.815 8.51735 23.8117C 8.52094 23.8052 8.52614 23.7959 8.53289 23.7836C 8.54639 23.7592 8.56611 23.7235 8.59162 23.6771C 8.64265 23.5844 8.71688 23.4489 8.81101 23.2758C 8.99923 22.9295 9.26722 22.4323 9.58844 21.8242C 10.2301 20.6095 11.0878 18.946 11.9475 17.1577C 12.8043 15.3751 13.6773 13.4396 14.3403 11.6877C 14.9684 10.0282 15.5266 8.24034 15.5266 6.88122L 11.5266 6.88122ZM 6.76327 22.8508C 8.51143 21.8793 8.51146 21.8793 8.51147 21.8793C 8.51144 21.8793 8.51143 21.8793 8.51137 21.8792C 8.51125 21.8789 8.51103 21.8785 8.5107 21.878C 8.51005 21.8768 8.509 21.8749 8.50754 21.8723C 8.50464 21.867 8.50014 21.8589 8.49409 21.848C 8.482 21.8261 8.46374 21.793 8.43972 21.7493C 8.39167 21.662 8.32059 21.5323 8.22979 21.3653C 8.04814 21.0311 7.78775 20.548 7.47492 19.9558C 6.84849 18.77 6.01535 17.1537 5.18418 15.4247C 4.35024 13.6898 3.53233 11.8705 2.92727 10.2718C 2.28724 8.58072 2 7.42229 2 6.88122L -2 6.88122C -2 8.24034 -1.44183 10.0282 -0.813752 11.6877C -0.150697 13.4396 0.722214 15.3751 1.57909 17.1577C 2.43874 18.946 3.29642 20.6095 3.9381 21.8242C 4.25932 22.4323 4.52731 22.9295 4.71553 23.2758C 4.80966 23.4489 4.88389 23.5844 4.93491 23.6771C 4.96043 23.7235 4.98014 23.7592 4.99365 23.7836C 5.0004 23.7959 5.0056 23.8052 5.00919 23.8117C 5.01099 23.815 5.01239 23.8175 5.01337 23.8193C 5.01387 23.8202 5.01426 23.8209 5.01455 23.8214C 5.0147 23.8216 5.01484 23.8219 5.01491 23.822C 5.01502 23.8222 5.01511 23.8224 6.76327 22.8508ZM 2 6.88122C 2 4.15266 4.16505 2 6.76328 2L 6.76328 -2C 1.891 -2 -2 2.00899 -2 6.88122L 2 6.88122ZM 6.76328 2C 9.36152 2 11.5266 4.15266 11.5266 6.88122L 15.5266 6.88122C 15.5266 2.00899 11.6356 -2 6.76328 -2L 6.76328 2Z"/>
<path id="path3_fill" d="M 6.12524 3.11602C 6.12524 4.83695 4.75406 6.23204 3.06262 6.23204C 1.37118 6.23204 0 4.83695 0 3.11602C 0 1.39509 1.37118 0 3.06262 0C 4.75406 0 6.12524 1.39509 6.12524 3.11602Z"/>
<path id="path4_stroke_2x" d="M 4.12524 3.11602C 4.12524 3.76512 3.61703 4.23204 3.06262 4.23204L 3.06262 8.23204C 5.89108 8.23204 8.12524 5.90879 8.12524 3.11602L 4.12524 3.11602ZM 3.06262 4.23204C 2.5082 4.23204 2 3.76512 2 3.11602L -2 3.11602C -2 5.90879 0.234159 8.23204 3.06262 8.23204L 3.06262 4.23204ZM 2 3.11602C 2 2.46693 2.5082 2 3.06262 2L 3.06262 -2C 0.234159 -2 -2 0.323256 -2 3.11602L 2 3.11602ZM 3.06262 2C 3.61703 2 4.12524 2.46693 4.12524 3.11602L 8.12524 3.11602C 8.12524 0.323256 5.89108 -2 3.06262 -2L 3.06262 2Z"/>
<path id="path5_fill" d="M 23.6715 11.8591C 23.6715 18.4087 11.8357 39.3812 11.8357 39.3812C 11.8357 39.3812 0 18.4087 0 11.8591C 0 5.30951 5.29904 0 11.8357 0C 18.3725 0 23.6715 5.30951 23.6715 11.8591Z"/>
<path id="path6_stroke_2x" d="M 11.8357 39.3812L 10.0939 40.3642L 11.8357 43.4505L 13.5775 40.3642L 11.8357 39.3812ZM 21.6715 11.8591C 21.6715 13.0814 21.0713 15.3012 19.9553 18.2051C 18.8754 21.015 17.4241 24.192 15.9563 27.199C 14.4914 30.2 13.0244 33.0025 11.9226 35.0565C 11.3721 36.0828 10.9136 36.9205 10.5934 37.5007C 10.4332 37.7907 10.3077 38.0163 10.2225 38.1688C 10.18 38.2451 10.1475 38.303 10.1258 38.3416C 10.115 38.3609 10.1068 38.3754 10.1015 38.3849C 10.0988 38.3896 10.0968 38.3931 10.0956 38.3953C 10.095 38.3965 10.0945 38.3973 10.0942 38.3977C 10.0941 38.398 10.094 38.3981 10.094 38.3982C 10.0939 38.3983 10.0939 38.3982 11.8357 39.3812C 13.5775 40.3642 13.5776 40.364 13.5778 40.3637C 13.5779 40.3635 13.5781 40.3632 13.5783 40.3628C 13.5787 40.362 13.5794 40.3609 13.5802 40.3594C 13.5818 40.3566 13.5841 40.3525 13.5871 40.3471C 13.5932 40.3364 13.602 40.3207 13.6136 40.3001C 13.6367 40.2589 13.6706 40.1983 13.7147 40.1193C 13.8029 39.9614 13.9317 39.73 14.0952 39.4338C 14.4222 38.8415 14.8884 37.9896 15.4475 36.9473C 16.5649 34.8643 18.0569 32.0143 19.5509 28.9536C 21.0421 25.8987 22.5497 22.6046 23.689 19.64C 24.7922 16.7695 25.6715 13.9117 25.6715 11.8591L 21.6715 11.8591ZM 11.8357 39.3812C 13.5775 38.3983 13.5775 38.3983 13.5775 38.3982C 13.5774 38.3981 13.5774 38.398 13.5772 38.3978C 13.5769 38.3973 13.5765 38.3965 13.5759 38.3953C 13.5746 38.3931 13.5726 38.3896 13.57 38.3849C 13.5646 38.3754 13.5565 38.3609 13.5457 38.3416C 13.524 38.303 13.4915 38.2451 13.4489 38.1688C 13.3637 38.0163 13.2382 37.7908 13.0781 37.5007C 12.7578 36.9205 12.2993 36.0828 11.7488 35.0565C 10.647 33.0025 9.18008 30.2 7.71517 27.199C 6.24741 24.192 4.7961 21.015 3.71621 18.2051C 2.60021 15.3012 2 13.0814 2 11.8591L -2 11.8591C -2 13.9117 -1.12074 16.7695 -0.0175474 19.64C 1.12177 22.6046 2.62939 25.8987 4.12055 28.9536C 5.61457 32.0143 7.10657 34.8643 8.22395 36.9473C 8.78303 37.9896 9.24924 38.8415 9.57623 39.4338C 9.73974 39.73 9.86849 39.9614 9.9567 40.1193C 10.0008 40.1983 10.0348 40.2589 10.0579 40.3001C 10.0694 40.3207 10.0783 40.3364 10.0843 40.3471C 10.0873 40.3525 10.0897 40.3566 10.0913 40.3594C 10.0921 40.3609 10.0927 40.362 10.0931 40.3628C 10.0934 40.3632 10.0936 40.3635 10.0937 40.3637C 10.0938 40.364 10.0939 40.3642 11.8357 39.3812ZM 2 11.8591C 2 6.41036 6.40733 2 11.8357 2L 11.8357 -2C 4.19076 -2 -2 4.20866 -2 11.8591L 2 11.8591ZM 11.8357 2C 17.2642 2 21.6715 6.41036 21.6715 11.8591L 25.6715 11.8591C 25.6715 4.20866 19.4807 -2 11.8357 -2L 11.8357 2Z"/>
<path id="path7_fill" d="M 10.7192 5.37017C 10.7192 8.33603 8.3196 10.7403 5.35958 10.7403C 2.39957 10.7403 0 8.33603 0 5.37017C 0 2.40431 2.39957 0 5.35958 0C 8.3196 0 10.7192 2.40431 10.7192 5.37017Z"/>
<path id="path8_stroke_2x" d="M 8.71917 5.37017C 8.71917 7.23518 7.21131 8.74033 5.35958 8.74033L 5.35958 12.7403C 9.42789 12.7403 12.7192 9.43688 12.7192 5.37017L 8.71917 5.37017ZM 5.35958 8.74033C 3.50785 8.74033 2 7.23518 2 5.37017L -2 5.37017C -2 9.43688 1.29128 12.7403 5.35958 12.7403L 5.35958 8.74033ZM 2 5.37017C 2 3.50515 3.50785 2 5.35958 2L 5.35958 -2C 1.29128 -2 -2 1.30346 -2 5.37017L 2 5.37017ZM 5.35958 2C 7.21131 2 8.71917 3.50515 8.71917 5.37017L 12.7192 5.37017C 12.7192 1.30346 9.42789 -2 5.35958 -2L 5.35958 2Z"/>
</defs>
</svg>
