<svg width="50" height="57" viewBox="0 0 50 57" version="1.1" xmlns="http://www.w3.org/2000/svg" xmlns:xlink="http://www.w3.org/1999/xlink">
<title>Group 5.1</title>
<desc>Created using Figma</desc>
<g id="Canvas" transform="translate(-3943 -1211)">
<g id="Group 5.1">
<g id="Vector">
<mask id="mask0_outline_ins">
<use xlink:href="#path0_fill" fill="white" transform="translate(3943 1211)"/>
</mask>
<g mask="url(#mask0_outline_ins)">
<use xlink:href="#path1_stroke_2x" transform="translate(3943 1211)" fill="#EF7F1A"/>
</g>
</g>
<g id="Union">
<use xlink:href="#path2_fill" transform="translate(3953 1244)" fill="#EF7F1A"/>
</g>
</g>
</g>
<defs>
<path id="path0_fill" d="M 33 31.5C 35 32.5 39.2963 32.3081 42.037 33.2806C 44.7778 34.2532 50 39.5323 50 44.4968L 50 57L 0 57L 0 44.4968C 0 39.5323 3.24074 35.0274 7.96296 33.2806L 17.5 31.5C 18.5185 31.0403 19.7222 30.2355 20 29.5C 16.1111 26.1903 12.963 18.3871 12.963 13.7903L 12.963 10.6645C 9.62963 9.19355 9.25926 7.17097 9.25926 6.43548C 9.25926 2.29839 17.4074 0 25 0C 32.5926 0 40.7407 2.29839 40.7407 6.43548C 40.7407 7.17097 40.7407 8.82581 37.037 10.6645L 37.037 13.7903C 37.037 18.2758 33.5523 26.2715 29.6834 29.6981C 30.5593 30.5152 32.0314 31.0561 33 31.5Z"/>
<path id="path1_stroke_2x" d="M 29.6333 29.7422L 28.9749 28.9895L 28.1805 29.6844L 28.9173 30.4402L 29.6333 29.7422ZM 29.6834 29.6981L 30.3464 30.4467L 31.17 29.7173L 30.3655 28.9669L 29.6834 29.6981ZM 14 10L 14.2945 9.04434L 13 8.64546L 13 10L 14 10ZM 36 10L 37 10L 37 8.60063L 35.6761 9.05392L 36 10ZM 36 11L 36.9649 11.2626L 37 11.1337L 37 11L 36 11ZM 14 11L 13 11L 13 11.1504L 13.0442 11.2941L 14 11ZM 29.1667 29.0516L 30.0457 28.5749L 29.5338 27.6309L 28.6286 28.2087L 29.1667 29.0516ZM 33.4114 30.5885C 33.1427 30.4673 32.8325 30.3379 32.5313 30.2105C 32.2232 30.0802 31.9139 29.9477 31.618 29.8096C 30.9906 29.5166 30.5563 29.2564 30.3494 29.0441L 28.9173 30.4402C 29.4044 30.9399 30.1441 31.3287 30.7719 31.6218C 31.1037 31.7767 31.4422 31.9214 31.7524 32.0526C 32.0695 32.1866 32.3481 32.3029 32.5886 32.4115L 33.4114 30.5885ZM 30.2917 30.4948C 30.31 30.4789 30.3282 30.4628 30.3464 30.4467L 29.0204 28.9495C 29.0053 28.9629 28.9901 28.9762 28.9749 28.9895L 30.2917 30.4948ZM 13.7055 10.9557C 16.4356 11.7969 21.1547 12.871 25 12.871L 25 10.871C 21.4379 10.871 16.9348 9.85793 14.2945 9.04434L 13.7055 10.9557ZM 25 12.871C 28.832 12.871 33.553 11.8948 36.3239 10.9461L 35.6761 9.05392C 33.0766 9.94393 28.5754 10.871 25 10.871L 25 12.871ZM 35 10L 35 11L 37 11L 37 10L 35 10ZM 35.0351 10.7374C 34.7016 11.9627 33.6373 12.7038 32.3519 13.1441C 31.0843 13.5782 29.8424 13.629 29.6296 13.629L 29.6296 15.629C 29.9724 15.629 31.4527 15.5661 33 15.0362C 34.5294 14.5123 36.3725 13.4389 36.9649 11.2626L 35.0351 10.7374ZM 29.6296 13.629L 20.3704 13.629L 20.3704 15.629L 29.6296 15.629L 29.6296 13.629ZM 20.3704 13.629C 20.2254 13.629 19.0033 13.5605 17.7244 13.112C 16.4248 12.6562 15.3247 11.9049 14.9558 10.7059L 13.0442 11.2941C 13.6938 13.4048 15.5474 14.468 17.0626 14.9993C 18.5986 15.5379 20.0524 15.629 20.3704 15.629L 20.3704 13.629ZM 15 11L 15 10L 13 10L 13 11L 15 11ZM 20.462 29.8945C 21.8706 30.7937 23.2776 31.3387 25 31.3387L 25 29.3387C 23.7594 29.3387 22.722 28.9644 21.538 28.2087L 20.462 29.8945ZM 25 31.3387C 26.6997 31.3387 28.2726 30.8086 29.7047 29.8945L 28.6286 28.2087C 27.4681 28.9495 26.2633 29.3387 25 29.3387L 25 31.3387ZM 28.2876 29.5283C 28.4778 29.879 28.7307 30.1769 29.0013 30.4293L 30.3655 28.9669C 30.2109 28.8226 30.1088 28.6912 30.0457 28.5749L 28.2876 29.5283ZM 33 31.5L 33.8944 29.7111L 33.8641 29.696L 33.8332 29.6818L 33 31.5ZM 29.6834 29.6981L 28.3574 28.2009L 26.7103 29.6597L 28.3191 31.1605L 29.6834 29.6981ZM 37.037 10.6645L 36.1477 8.87313L 35.037 9.42452L 35.037 10.6645L 37.037 10.6645ZM 12.963 10.6645L 14.963 10.6645L 14.963 9.36102L 13.7704 8.83476L 12.963 10.6645ZM 20 29.5L 21.871 30.2066L 22.3685 28.8895L 21.2962 27.9769L 20 29.5ZM 17.5 31.5L 17.8671 33.466L 18.1035 33.4219L 18.3227 33.3229L 17.5 31.5ZM 7.96296 33.2806L 7.59589 31.3146L 7.42866 31.3458L 7.2691 31.4049L 7.96296 33.2806ZM 0 57L -2 57L -2 59L 0 59L 0 57ZM 50 57L 50 59L 52 59L 52 57L 50 57ZM 42.7059 31.3958C 41.0769 30.8177 39.0585 30.6031 37.4774 30.4147C 36.6361 30.3144 35.8921 30.2214 35.243 30.0983C 34.5775 29.9722 34.1476 29.8377 33.8944 29.7111L 32.1056 33.2889C 32.8524 33.6623 33.7096 33.8789 34.4978 34.0283C 35.3023 34.1809 36.1787 34.2882 37.0041 34.3866C 38.7563 34.5953 40.2564 34.771 41.3682 35.1655L 42.7059 31.3958ZM 31.0094 31.1953C 33.2385 29.2211 35.2193 26.0842 36.6326 22.9672C 38.041 19.861 39.037 16.4403 39.037 13.7903L 35.037 13.7903C 35.037 15.6258 34.2907 18.4457 32.9896 21.3154C 31.6933 24.1743 29.9973 26.7485 28.3574 28.2009L 31.0094 31.1953ZM 39.037 13.7903L 39.037 10.6645L 35.037 10.6645L 35.037 13.7903L 39.037 13.7903ZM 37.9264 12.4559C 39.9719 11.4404 41.244 10.3557 41.9704 9.20172C 42.7382 7.98191 42.7407 6.92012 42.7407 6.43548L 38.7407 6.43548C 38.7407 6.68633 38.7433 6.81971 38.5852 7.07086C 38.3856 7.38789 37.8059 8.04991 36.1477 8.87313L 37.9264 12.4559ZM 42.7407 6.43548C 42.7407 4.67275 41.8537 3.25207 40.6897 2.20051C 39.546 1.16732 38.0296 0.382122 36.4043 -0.212066C 33.1424 -1.40464 28.9627 -2 25 -2L 25 2C 28.6299 2 32.3205 2.55383 35.0308 3.54473C 36.3917 4.04227 37.3869 4.60738 38.0083 5.16869C 38.6093 5.71164 38.7407 6.12967 38.7407 6.43548L 42.7407 6.43548ZM 25 -2C 21.0373 -2 16.8576 -1.40464 13.5957 -0.212066C 11.9704 0.382122 10.454 1.16732 9.31034 2.20051C 8.14632 3.25207 7.25926 4.67275 7.25926 6.43548L 11.2593 6.43548C 11.2593 6.12967 11.3907 5.71164 11.9917 5.16869C 12.6131 4.60738 13.6083 4.04227 14.9692 3.54473C 17.6795 2.55383 21.3701 2 25 2L 25 -2ZM 7.25926 6.43548C 7.25926 7.13134 7.4342 8.21327 8.18551 9.36615C 8.94067 10.5249 10.196 11.6296 12.1555 12.4943L 13.7704 8.83476C 12.3966 8.2285 11.8001 7.58635 11.5367 7.18223C 11.2695 6.77222 11.2593 6.47512 11.2593 6.43548L 7.25926 6.43548ZM 10.963 10.6645L 10.963 13.7903L 14.963 13.7903L 14.963 10.6645L 10.963 10.6645ZM 10.963 13.7903C 10.963 16.4597 11.853 19.8411 13.1879 22.9228C 14.5207 25.9995 16.4312 29.089 18.7038 31.0231L 21.2962 27.9769C 19.6799 26.6014 18.0719 24.1344 16.8584 21.3329C 15.647 18.5363 14.963 15.7177 14.963 13.7903L 10.963 13.7903ZM 18.129 28.7934C 18.1782 28.663 18.2211 28.64 18.1503 28.7186C 18.0889 28.7867 17.9816 28.8869 17.8203 29.009C 17.495 29.2555 17.0728 29.4986 16.6773 29.6771L 18.3227 33.3229C 18.9457 33.0418 19.6347 32.6526 20.2352 32.1978C 20.7628 31.7983 21.5233 31.1274 21.871 30.2066L 18.129 28.7934ZM 17.1329 29.534L 7.59589 31.3146L 8.33004 35.2467L 17.8671 33.466L 17.1329 29.534ZM 7.2691 31.4049C 1.79545 33.4296 -2 38.6601 -2 44.4968L 2 44.4968C 2 40.4044 4.68604 36.6252 8.65682 35.1564L 7.2691 31.4049ZM -2 44.4968L -2 57L 2 57L 2 44.4968L -2 44.4968ZM 0 59L 50 59L 50 55L 0 55L 0 59ZM 52 57L 52 44.4968L 48 44.4968L 48 57L 52 57ZM 52 44.4968C 52 41.3652 50.3875 38.3686 48.6085 36.143C 46.8475 33.9399 44.5727 32.0583 42.7059 31.3958L 41.3682 35.1655C 42.2421 35.4756 43.9488 36.7198 45.4841 38.6405C 47.0013 40.5387 48 42.6638 48 44.4968L 52 44.4968ZM 28.3191 31.1605C 28.9762 31.7735 29.7762 32.2166 30.428 32.5355C 31.0281 32.8291 31.827 33.1625 32.1668 33.3182L 33.8332 29.6818C 33.2044 29.3937 32.783 29.2346 32.1859 28.9425C 31.6405 28.6756 31.2665 28.4397 31.0477 28.2356L 28.3191 31.1605Z"/>
<path id="path2_fill" fill-rule="evenodd" d="M 3.29622 9.33447C 2.46573 11.0469 2 12.969 2 15C 2 17.5797 2.74956 19.9799 4.04332 22L 14 22L 14 19.9C 11.7178 19.4368 10 17.4189 10 15C 10 14.4502 10.0887 13.9211 10.2526 13.4264L 3.29622 9.33447ZM 4.30507 7.60754L 11.25 11.6927C 12.1662 10.6547 13.5066 10 15 10C 16.5012 10 17.8479 10.6616 18.7645 11.7091L 25.819 7.78992C 23.488 4.29919 19.5125 2 15 2C 10.5666 2 6.6515 4.21936 4.30507 7.60754ZM 26.7984 9.53369L 19.7542 13.4471C 19.9137 13.9359 20 14.4579 20 15C 20 17.4189 18.2822 19.4368 16 19.9L 16 22L 25.9567 22C 27.2504 19.9799 28 17.5797 28 15C 28 13.0475 27.5695 11.1954 26.7984 9.53369ZM 16 24L 14 24L 2.9989 24C 1.11583 21.493 0 18.3768 0 15C 0 6.7157 6.71573 0 15 0C 23.2843 0 30 6.7157 30 15C 30 18.3768 28.8842 21.493 27.0011 24L 16 24ZM 15 18C 16.6569 18 18 16.6569 18 15C 18 13.3431 16.6569 12 15 12C 13.3431 12 12 13.3431 12 15C 12 16.6569 13.3431 18 15 18Z"/>
</defs>
</svg>
