<svg width="52" height="52" viewBox="0 0 52 52" version="1.1" xmlns="http://www.w3.org/2000/svg" xmlns:xlink="http://www.w3.org/1999/xlink">
<title>Group 6</title>
<desc>Created using Figma</desc>
<g id="Canvas" transform="translate(-4183 -1217)">
<g id="Group 6">
<g id="noun_552188_cc">
<g id="Group">
<g id="Group">
<g id="Group">
<g id="Vector">
<use xlink:href="#path0_stroke" transform="translate(4184 1228.87)" fill="#EF7F1A"/>
</g>
<g id="Vector">
<use xlink:href="#path1_stroke" transform="translate(4228.57 1244.87)" fill="#EF7F1A"/>
</g>
<g id="Vector">
<use xlink:href="#path2_stroke" transform="translate(4192.7 1241.91)" fill="#EF7F1A"/>
</g>
<g id="Vector">
<use xlink:href="#path3_stroke" transform="translate(4204.65 1218)" fill="#EF7F1A"/>
</g>
</g>
</g>
</g>
<g id="Vector">
<use xlink:href="#path4_stroke" transform="matrix(0.933346 0.358979 -0.358979 0.933346 4205 1244)" fill="#EF7F1A"/>
</g>
</g>
<g id="%">
<use xlink:href="#path5_fill" transform="translate(4210 1219)" fill="#EF7F1A"/>
</g>
</g>
</g>
<defs>
<path id="path0_stroke" d="M 36.9667 33.4821L 36.452 32.6248L 35.968 32.9153L 35.9667 33.4798L 36.9667 33.4821ZM 36.9565 38.0451L 35.9565 38.0429L 35.9565 38.0451L 36.9565 38.0451ZM 28.2609 38.0451L 27.2609 38.0442L 27.2609 38.0451L 28.2609 38.0451ZM 28.2622 36.6108L 29.2622 36.6117L 29.2632 35.4355L 28.1022 35.6237L 28.2622 36.6108ZM 19.5692 36.6116L 19.729 35.6245L 18.5725 35.4373L 18.5692 36.6088L 19.5692 36.6116ZM 19.5652 38.0451L 18.5652 38.0423L 18.5652 38.0451L 19.5652 38.0451ZM 10.8696 38.0451L 11.8696 38.0451L 11.8696 38.0449L 10.8696 38.0451ZM 10.8687 33.4876L 11.8687 33.4875L 11.8686 32.9214L 11.3832 32.6301L 10.8687 33.4876ZM 3.7481 26.085L 4.64096 25.6346L 4.3633 25.0842L 3.74675 25.085L 3.7481 26.085ZM 1.08696 26.0886L 1.08696 27.0886L 1.08831 27.0886L 1.08696 26.0886ZM 1.08696 15.219L 1.08696 16.219L 1.08922 16.219L 1.08696 15.219ZM 2.8583 15.215L 2.86057 16.215L 3.58797 16.2134L 3.8104 15.5208L 2.8583 15.215ZM 8.69141 7.14141L 9.30831 7.92845L 9.69107 7.62844L 9.69141 7.14211L 8.69141 7.14141ZM 8.69565 1.08863L 9.69565 1.08933L 9.69565 1.08863L 8.69565 1.08863ZM 10.3418 0.156578L 9.82735 1.01407L 9.82959 1.01541L 10.3418 0.156578ZM 15.8134 3.42008L 15.3011 4.27892L 15.6888 4.51018L 16.1188 4.37231L 15.8134 3.42008ZM 41.47 12.0541C 42.7078 13.4564 43.478 14.468 43.9584 15.5426C 44.429 16.5953 44.6522 17.7813 44.6522 19.5669L 46.6522 19.5669C 46.6522 17.6063 46.4063 16.1179 45.7843 14.7264C 45.172 13.3566 44.2259 12.1541 42.9694 10.7305L 41.47 12.0541ZM 44.6522 19.5669C 44.6522 24.7205 41.6174 29.5233 36.452 32.6248L 37.4815 34.3394C 43.1211 30.9532 46.6522 25.5602 46.6522 19.5669L 44.6522 19.5669ZM 35.9667 33.4798L 35.9565 38.0429L 37.9565 38.0473L 37.9667 33.4843L 35.9667 33.4798ZM 35.9565 38.0451C 35.9565 38.0931 35.9176 38.132 35.8696 38.132L 35.8696 40.132C 37.0222 40.132 37.9565 39.1977 37.9565 38.0451L 35.9565 38.0451ZM 35.8696 38.132L 29.3478 38.132L 29.3478 40.132L 35.8696 40.132L 35.8696 38.132ZM 29.3478 38.132C 29.2998 38.132 29.2609 38.0931 29.2609 38.0451L 27.2609 38.0451C 27.2609 39.1977 28.1952 40.132 29.3478 40.132L 29.3478 38.132ZM 29.2609 38.046L 29.2622 36.6117L 27.2622 36.6099L 27.2609 38.0442L 29.2609 38.046ZM 28.1022 35.6237C 26.7353 35.8452 25.334 35.9581 23.913 35.9581L 23.913 37.9581C 25.4398 37.9581 26.9482 37.8368 28.4222 37.5979L 28.1022 35.6237ZM 23.913 35.9581C 22.4939 35.9581 21.0942 35.8455 19.729 35.6245L 19.4094 37.5988C 20.8816 37.8371 22.3882 37.9581 23.913 37.9581L 23.913 35.9581ZM 18.5692 36.6088L 18.5652 38.0423L 20.5652 38.0479L 20.5692 36.6144L 18.5692 36.6088ZM 18.5652 38.0451C 18.5652 38.0931 18.5263 38.132 18.4783 38.132L 18.4783 40.132C 19.6309 40.132 20.5652 39.1977 20.5652 38.0451L 18.5652 38.0451ZM 18.4783 38.132L 11.9565 38.132L 11.9565 40.132L 18.4783 40.132L 18.4783 38.132ZM 11.9565 38.132C 11.9085 38.132 11.8696 38.0931 11.8696 38.0451L 9.86957 38.0451C 9.86957 39.1977 10.8039 40.132 11.9565 40.132L 11.9565 38.132ZM 11.8696 38.0449L 11.8687 33.4875L 9.86873 33.4878L 9.86957 38.0453L 11.8696 38.0449ZM 11.3832 32.6301C 8.36186 30.8174 6.03167 28.3919 4.64096 25.6346L 2.85525 26.5353C 4.43777 29.6729 7.05247 32.3641 10.3542 34.3451L 11.3832 32.6301ZM 3.74675 25.085L 1.0856 25.0886L 1.08831 27.0886L 3.74946 27.085L 3.74675 25.085ZM 1.08696 25.0886C 1.03893 25.0886 1 25.0497 1 25.0016L -1 25.0016C -1 26.1542 -0.0656357 27.0886 1.08696 27.0886L 1.08696 25.0886ZM 1 25.0016L 1 16.306L -1 16.306L -1 25.0016L 1 25.0016ZM 1 16.306C 1 16.258 1.03893 16.219 1.08696 16.219L 1.08696 14.219C -0.0656357 14.219 -1 15.1534 -1 16.306L 1 16.306ZM 1.08922 16.219L 2.86057 16.215L 2.85604 14.215L 1.08469 14.219L 1.08922 16.219ZM 3.8104 15.5208C 4.73158 12.6527 6.62907 10.0285 9.30831 7.92845L 8.07452 6.35436C 5.1218 8.66874 2.9647 11.6135 1.90621 14.9092L 3.8104 15.5208ZM 9.69141 7.14211L 9.69565 1.08933L 7.69565 1.08793L 7.69141 7.1407L 9.69141 7.14211ZM 9.69565 1.08863C 9.69565 1.06364 9.70135 1.0517 9.70574 1.04447C 9.71179 1.03451 9.72289 1.02252 9.73977 1.01297C 9.75664 1.00341 9.77264 1.00006 9.78428 1C 9.79275 0.999956 9.80592 1.00121 9.82735 1.01407L 10.8563 -0.700915C 9.46533 -1.53552 7.69565 -0.533549 7.69565 1.08863L 9.69565 1.08863ZM 9.82959 1.01541L 15.3011 4.27892L 16.3256 2.56125L 10.8541 -0.702256L 9.82959 1.01541ZM 16.1188 4.37231C 17.2396 4.01284 17.8546 3.82401 18.4833 3.70547C 19.1061 3.58806 19.7693 3.53496 20.9775 3.48745L 20.8989 1.489C 19.6783 1.53699 18.8899 1.59358 18.1128 1.7401C 17.3417 1.8855 16.6087 2.11484 15.508 2.46785L 16.1188 4.37231Z"/>
<path id="path1_stroke" d="M 5.40688 0.677897C 5.78128 0.271881 5.75564 -0.360764 5.34963 -0.735157C 4.94361 -1.10955 4.31096 -1.08391 3.93657 -0.677897L 5.40688 0.677897ZM 4.73397 1.53593L 4.05607 2.27108L 4.05607 2.27108L 4.73397 1.53593ZM 0 1.0477C -0.552285 1.0477 -1 1.49542 -1 2.0477C -1 2.59999 -0.552285 3.0477 0 3.0477L 0 1.0477ZM 3.93657 -0.677897C 3.15523 0.169438 3.20873 1.48974 4.05607 2.27108L 5.41186 0.800768C 5.37656 0.768215 5.37433 0.713205 5.40688 0.677897L 3.93657 -0.677897ZM 4.05607 2.27108C 4.29764 2.49384 4.43478 2.8009 4.43478 3.13466L 6.43478 3.13466C 6.43478 2.23582 6.05925 1.39773 5.41186 0.800768L 4.05607 2.27108ZM 4.43478 3.13466C 4.43478 3.78299 3.90921 4.30857 3.26087 4.30857L 3.26087 6.30857C 5.01377 6.30857 6.43478 4.88756 6.43478 3.13466L 4.43478 3.13466ZM 3.26087 4.30857C 2.61253 4.30857 2.08696 3.78299 2.08696 3.13466L 0.0869567 3.13466C 0.0869567 4.88756 1.50797 6.30857 3.26087 6.30857L 3.26087 4.30857ZM 2.08696 3.13466C 2.08696 1.98206 1.15259 1.0477 0 1.0477L 0 3.0477C 0.0480264 3.0477 0.0869567 3.08664 0.0869567 3.13466L 2.08696 3.13466Z"/>
<path id="path2_stroke" d="M 3.34783 2.17391C 3.34783 2.82224 2.82225 3.34782 2.17391 3.34782L 2.17391 5.34782C 3.92682 5.34782 5.34783 3.92681 5.34783 2.17391L 3.34783 2.17391ZM 2.17391 3.34782C 1.52558 3.34782 1 2.82224 1 2.17391L -1 2.17391C -1 3.92681 0.421011 5.34782 2.17391 5.34782L 2.17391 3.34782ZM 1 2.17391C 1 1.52558 1.52558 1 2.17391 1L 2.17391 -1C 0.421011 -1 -1 0.421006 -1 2.17391L 1 2.17391ZM 2.17391 1C 2.82225 1 3.34783 1.52558 3.34783 2.17391L 5.34783 2.17391C 5.34783 0.421006 3.92682 -1 2.17391 -1L 2.17391 1Z"/>
<path id="path3_stroke" d="M 13.0435 27.0869C 20.7995 27.0869 27.087 20.7994 27.087 13.0435L 25.087 13.0435C 25.087 19.6949 19.6949 25.0869 13.0435 25.0869L 13.0435 27.0869ZM 27.087 13.0435C 27.087 5.28747 20.7995 -1 13.0435 -1L 13.0435 1C 19.6949 1 25.087 6.39204 25.087 13.0435L 27.087 13.0435ZM 13.0435 -1C 5.28748 -1 -1 5.28747 -1 13.0435L 1 13.0435C 1 6.39204 6.39205 1 13.0435 1L 13.0435 -1ZM -1 13.0435C -1 20.7994 5.28748 27.0869 13.0435 27.0869L 13.0435 25.0869C 6.39205 25.0869 1 19.6949 1 13.0435L -1 13.0435Z"/>
<path id="path4_stroke" d="M 0 -1C -0.552285 -1 -1 -0.552285 -1 0C -1 0.552285 -0.552285 1 0 1L 0 -1ZM 13.9284 1C 14.4807 1 14.9284 0.552285 14.9284 0C 14.9284 -0.552285 14.4807 -1 13.9284 -1L 13.9284 1ZM 0 1L 13.9284 1L 13.9284 -1L 0 -1L 0 1Z"/>
<path id="path5_fill" d="M 3.74707 8.53516C 3.74707 7.96387 3.93327 7.5026 4.30566 7.15137C 4.67806 6.80013 5.17741 6.62451 5.80371 6.62451C 6.43848 6.62451 6.93994 6.80013 7.30811 7.15137C 7.67627 7.49837 7.86035 7.97021 7.86035 8.56689L 7.86035 9.02393C 7.86035 9.59521 7.67627 10.0544 7.30811 10.4014C 6.93994 10.7484 6.44271 10.9219 5.81641 10.9219C 5.19434 10.9219 4.69287 10.7505 4.31201 10.4077C 3.93538 10.0607 3.74707 9.58675 3.74707 8.98584L 3.74707 8.53516ZM 5.12451 9.02393C 5.12451 9.24398 5.18587 9.42383 5.30859 9.56348C 5.43132 9.69889 5.60059 9.7666 5.81641 9.7666C 6.26074 9.7666 6.48291 9.48307 6.48291 8.91602L 6.48291 8.53516C 6.48291 8.3151 6.42367 8.13525 6.30518 7.99561C 6.18669 7.85173 6.01953 7.77979 5.80371 7.77979C 5.59635 7.77979 5.43132 7.84961 5.30859 7.98926C 5.18587 8.12467 5.12451 8.31087 5.12451 8.54785L 5.12451 9.02393ZM 8.13965 13.7339C 8.13965 13.1584 8.32585 12.6971 8.69824 12.3501C 9.07487 12.0031 9.57422 11.8296 10.1963 11.8296C 10.8268 11.8296 11.3283 12.001 11.7007 12.3438C 12.0731 12.6865 12.2593 13.1647 12.2593 13.7783L 12.2593 14.2227C 12.2593 14.7982 12.0752 15.2594 11.707 15.6064C 11.3389 15.9535 10.8395 16.127 10.209 16.127C 9.58691 16.127 9.08545 15.9556 8.70459 15.6128C 8.32796 15.2658 8.13965 14.7918 8.13965 14.1909L 8.13965 13.7339ZM 9.51074 14.2227C 9.51074 14.4215 9.57845 14.5972 9.71387 14.7495C 9.84928 14.8976 10.0143 14.9717 10.209 14.9717C 10.6195 14.9717 10.8416 14.777 10.8755 14.3877L 10.8818 13.7339C 10.8818 13.5096 10.8205 13.3298 10.6978 13.1943C 10.575 13.0547 10.4079 12.9849 10.1963 12.9849C 9.99316 12.9849 9.83024 13.0505 9.70752 13.1816C 9.5848 13.3086 9.51921 13.4821 9.51074 13.7021L 9.51074 14.2227ZM 6.22266 15.3081L 5.22607 14.8066L 9.73926 7.58301L 10.7358 8.08447L 6.22266 15.3081Z"/>
</defs>
</svg>
