<svg width="47" height="54" viewBox="0 0 47 54" version="1.1" xmlns="http://www.w3.org/2000/svg" xmlns:xlink="http://www.w3.org/1999/xlink">
<title>&#208;&#145;&#208;&#181;&#208;&#183; &#208;&#189;&#208;&#176;&#208;&#183;&#208;&#178;&#208;&#176;&#208;&#189;&#208;&#184;&#209;&#143; (1)</title>
<desc>Created using Figma</desc>
<g id="Canvas" transform="translate(-4185 -1411)">
<g id="&#208;&#145;&#208;&#181;&#208;&#183; &#208;&#189;&#208;&#176;&#208;&#183;&#208;&#178;&#208;&#176;&#208;&#189;&#208;&#184;&#209;&#143; (1)">
<g id="Vector">
<use xlink:href="#path0_fill" transform="translate(4185 1411)" fill="#EF7F1A"/>
</g>
</g>
</g>
<defs>
<path id="path0_fill" d="M 42.7571 40.7488L 42.5646 40.6928C 39.7777 39.943 38.8367 39.2228 37.5962 38.7499C 33.1938 37.0706 32.0486 35.8594 31.7558 35.2892C 31.7459 35.2678 31.7377 35.2464 31.7278 35.225L 31.7196 33.8934C 32.6047 33.0151 33.447 32.0296 34.2137 30.9617C 37.8627 29.963 39.776 27.749 40.3584 25.6042C 40.8009 23.9719 40.5114 22.3438 39.6394 21.0847L 39.9257 20.0012C 41.594 13.6887 41.0971 8.74241 38.4484 5.29738C 37.6242 4.22455 36.6617 3.39567 35.6614 2.75295C 35.2073 2.4011 31.8792 0 25.5436 0C 23.1927 0 20.6871 0.333703 18.0967 0.992039C 14.6633 1.86384 11.9545 3.76882 10.0437 6.65191C 8.48243 9.00766 7.45416 12.0317 6.98615 15.6382C 6.18825 21.7941 7.20578 28.3768 7.88354 31.7526L 9.09196 37.7676L 10.0931 31.7131C 10.0972 31.6884 10.3498 30.2102 11.0605 28.1271C 12.1759 30.3124 13.6591 32.2832 15.282 33.8933L 15.2729 35.2249C 15.2631 35.2463 15.2548 35.2677 15.2449 35.2891C 14.9521 35.8593 13.8071 37.0706 9.40541 38.7497C 8.16498 39.2227 7.22231 39.9428 4.43537 40.6927L 4.24374 40.7487C 1.70687 41.5875 -1.9922e-07 43.9441 -1.9922e-07 46.6039L -1.9922e-07 54L 23.5004 54L 47 54L 47 46.604C 46.9999 43.9442 45.2939 41.5876 42.7571 40.7488ZM 38.1917 25.0142C 37.917 26.0211 37.2079 26.944 36.1747 27.6526C 36.9694 25.9948 37.5485 24.2232 37.8166 22.3965C 38.3036 23.1175 38.4517 24.0501 38.1917 25.0142ZM 38.3826 16.4704C 38.1243 16.1194 37.8265 15.7568 37.4843 15.3959C 36.5367 14.3948 35.1317 13.2865 33.1411 12.5087L 35.5595 5.48764C 35.9544 5.83537 36.3294 6.22593 36.6683 6.67005C 38.4648 9.00682 39.0373 12.2953 38.3826 16.4704ZM 9.3017 26.3655C 8.93813 23.2509 8.75061 19.501 9.21368 15.9282C 9.63726 12.6652 10.5454 9.96268 11.915 7.89613C 13.5075 5.4926 15.7737 3.90319 18.6487 3.17229C 21.0589 2.56004 23.3794 2.24944 25.5435 2.24944C 28.592 2.24944 30.8081 2.87149 32.1307 3.39398C 32.7888 3.65354 33.2955 3.91395 33.6542 4.12077L 30.9495 11.9717C 30.0315 11.8686 29.13 11.8167 28.2564 11.8167C 24.3252 11.8167 20.7963 12.8591 17.7676 14.9149C 15.3599 16.5488 13.2755 18.8172 11.571 21.6566C 10.5891 23.293 9.85037 24.9219 9.3017 26.3655ZM 12.2285 25.2128C 12.6011 24.4119 13.033 23.5839 13.5306 22.759C 15.0664 20.2162 16.9262 18.1966 19.0584 16.7563C 21.7021 14.9716 24.7967 14.0669 28.2565 14.0669C 29.2979 14.0669 30.3886 14.1493 31.5007 14.3107C 32.9764 14.7549 34.2531 15.4618 35.3257 16.4292C 35.5988 17.6066 35.7369 18.8509 35.7369 20.1478C 35.7369 23.0458 34.7087 26.1513 32.8579 28.9693C 32.0649 29.1292 31.2061 29.2231 30.2914 29.2479C 29.7584 28.2122 28.4866 27.4936 27.0076 27.4936C 26.9615 27.4936 26.9138 27.4944 26.8661 27.496C 24.8763 27.5561 23.3026 28.8952 23.3512 30.4837C 23.3989 32.0361 24.975 33.2556 26.9023 33.2556C 26.9484 33.2556 26.9944 33.2556 27.0421 33.2523C 28.4817 33.2095 29.7057 32.4959 30.2518 31.5021C 30.4788 31.4956 30.701 31.489 30.9198 31.4758C 29.6809 32.8469 28.3106 33.9971 26.9418 34.8112C 25.6537 35.5776 24.4312 35.9994 23.5001 35.9994C 22.5689 35.9994 21.3465 35.5776 20.0583 34.8112C 18.6138 33.9543 17.1693 32.7217 15.8795 31.25C 14.2537 29.3929 13.0125 27.3214 12.2285 25.2128ZM 28.3125 30.3322C 28.3142 30.3767 28.2615 30.4887 28.1101 30.6173C 27.837 30.8496 27.4224 30.9914 26.975 31.0045C 26.9486 31.0045 26.9256 31.0045 26.9025 31.0045C 26.0569 31.0045 25.6012 30.5678 25.5963 30.4162C 25.5963 30.3717 25.6489 30.2597 25.7987 30.1312C 26.0718 29.9004 26.4863 29.7587 26.9355 29.7456C 26.9585 29.7439 26.9849 29.7439 27.0079 29.7439C 27.8518 29.7439 28.3075 30.1805 28.3125 30.3322ZM 44.7543 51.7489L 23.5004 51.7489L 2.24648 51.7489L 2.24648 46.604C 2.24648 44.928 3.31666 43.4432 4.91329 42.8961L 5.03911 42.8599C 7.13913 42.293 8.29902 41.7376 9.23095 41.291C 9.59125 41.1179 9.90217 40.9681 10.2057 40.8527C 12.7204 39.8936 16.1868 38.3774 17.2413 36.3175C 17.2824 36.2384 17.312 36.1708 17.3284 36.133L 17.4814 35.7902C 19.5691 37.3393 21.7161 38.2489 23.5003 38.2489C 25.2837 38.2489 27.4322 37.3392 29.5183 35.7902L 29.6729 36.133C 29.6878 36.1676 29.7174 36.2367 29.7584 36.3158C 30.8146 38.3774 34.2794 39.8936 36.7965 40.8527C 37.0992 40.9681 37.4084 41.118 37.7704 41.291C 38.7016 41.7376 39.8614 42.293 41.9623 42.8599L 42.0873 42.8961C 43.6831 43.4433 44.7542 44.9281 44.7542 46.604L 44.7542 51.7489L 44.7543 51.7489Z"/>
</defs>
</svg>
