<svg width="50" height="54" viewBox="0 0 50 54" version="1.1" xmlns="http://www.w3.org/2000/svg" xmlns:xlink="http://www.w3.org/1999/xlink">
<title>noun_1385971_cc (1)</title>
<desc>Created using Figma</desc>
<g id="Canvas" transform="translate(-3944 -1411)">
<g id="noun_1385971_cc (1)">
<g id="Group">
<g id="Vector">
<mask id="mask0_outline_ins">
<use xlink:href="#path0_fill" fill="white" transform="translate(3944 1411)"/>
</mask>
<g mask="url(#mask0_outline_ins)">
<use xlink:href="#path1_stroke_2x" transform="translate(3944 1411)" fill="#EF7F1A"/>
</g>
</g>
</g>
</g>
</g>
<defs>
<path id="path0_fill" d="M 0 7.97605L 25 0L 50 7.97605L 50 21.5569C 50 36.6467 39.8026 49.9042 25 54C 10.1974 49.9042 0 36.6467 0 21.5569L 0 7.97605Z"/>
<path id="path1_stroke_2x" d="M 23.2265 33.0898L 22.5813 33.8538L 23.3138 34.4725L 23.9627 33.7666L 23.2265 33.0898ZM 17.2895 29.3839L 22.5813 33.8538L 23.8718 32.3259L 18.5801 27.8561L 17.2895 29.3839ZM 23.9627 33.7666L 35.5188 21.1968L 34.0464 19.8432L 22.4904 32.413L 23.9627 33.7666ZM 25 0L 25.6079 -1.90538L 25 -2.09932L 24.3921 -1.90538L 25 0ZM 0 7.97605L -0.607895 6.07067L -2 6.51481L -2 7.97605L 0 7.97605ZM 25 54L 24.4667 55.9276L 25 56.0752L 25.5334 55.9276L 25 54ZM 50 7.97605L 52 7.97605L 52 6.51481L 50.6079 6.07067L 50 7.97605ZM 24.3921 -1.90538L -0.607895 6.07067L 0.607895 9.88143L 25.6079 1.90538L 24.3921 -1.90538ZM -2 7.97605L -2 21.5569L 2 21.5569L 2 7.97605L -2 7.97605ZM -2 21.5569C -2 37.5654 8.81642 51.5972 24.4667 55.9276L 25.5334 52.0724C 11.5783 48.2111 2 35.728 2 21.5569L -2 21.5569ZM 25.5334 55.9276C 41.1836 51.5972 52 37.5654 52 21.5569L 48 21.5569C 48 35.728 38.4217 48.2111 24.4667 52.0724L 25.5334 55.9276ZM 52 21.5569L 52 7.97605L 48 7.97605L 48 21.5569L 52 21.5569ZM 50.6079 6.07067L 25.6079 -1.90538L 24.3921 1.90538L 49.3921 9.88143L 50.6079 6.07067Z"/>
</defs>
</svg>
