<svg width="32" height="31" viewBox="0 0 32 31" version="1.1" xmlns="http://www.w3.org/2000/svg" xmlns:xlink="http://www.w3.org/1999/xlink">
<title>Group 2.1</title>
<desc>Created using Figma</desc>
<g id="Canvas" transform="translate(9711 3591)">
<rect x="-9711" y="-3591" width="32" height="31" fill="#E5E5E5"/>
<clipPath id="clip-0" clip-rule="evenodd">
<path d="M -9977 -3643L -9657 -3643L -9657 -2893L -9977 -2893L -9977 -3643Z" fill="#FFFFFF"/>
</clipPath>
<g id="Mobile menu" clip-path="url(#clip-0)">
<path d="M -9977 -3643L -9657 -3643L -9657 -2893L -9977 -2893L -9977 -3643Z" fill="#FFFFFF"/>
<g id="Rectangle">
<use xlink:href="#path0_fill" transform="translate(-9977 -3643)" fill="url(#paint0_linear)"/>
</g>
<g id="Group 2.1">
<g id="Rectangle 2.1">
<use xlink:href="#path1_fill" transform="matrix(0.707107 0.707107 -0.707107 0.707107 -9708.08 -3590.7)" fill="#F2F2F2"/>
</g>
<g id="Rectangle 2.2">
<use xlink:href="#path1_fill" transform="matrix(0.707107 -0.707107 0.707107 0.707107 -9710.2 -3562.42)" fill="#F2F2F2"/>
</g>
</g>
</g>
</g>
<defs>
<linearGradient id="paint0_linear" x1="0" y1="0" x2="1" y2="0" gradientUnits="userSpaceOnUse" gradientTransform="matrix(320 -750 320 136.533 -160 681.733)">
<stop offset="0" stop-color="#266DEA"/>
<stop offset="1" stop-color="#2EB0FD"/>
</linearGradient>
<path id="path0_fill" d="M 0 0L 320 0L 320 750L 0 750L 0 0Z"/>
<path id="path1_fill" d="M 0 0L 40 0L 40 3L 0 3L 0 0Z"/>
</defs>
</svg>
