<svg width="136" height="40" viewBox="0 0 136 40" version="1.1" xmlns="http://www.w3.org/2000/svg" xmlns:xlink="http://www.w3.org/1999/xlink">
<title>Group 5.2</title>
<desc>Created using Figma</desc>
<g id="Canvas" transform="translate(-4059 -2827)">
<g id="Group 5.2">
<g id="path14">
<use xlink:href="#path0_fill" transform="matrix(1.25299 0 0 -1.23841 4059 2867)"/>
</g>
<g id="path20">
<use xlink:href="#path1_fill" transform="matrix(1.25299 0 0 1.23841 4100.62 2833.86)" fill="#FFFFFF"/>
<use xlink:href="#path2_stroke" transform="matrix(1.25299 0 0 1.23841 4100.62 2833.86)" fill="#FFFFFF"/>
</g>
<g id="path24">
<use xlink:href="#path3_fill" transform="matrix(1.25299 0 0 1.23841 4107.84 2834)" fill="#FFFFFF"/>
<use xlink:href="#path4_stroke" transform="matrix(1.25299 0 0 1.23841 4107.84 2834)" fill="#FFFFFF"/>
</g>
<g id="path28">
<use xlink:href="#path5_fill" transform="matrix(1.25299 0 0 1.23841 4112.17 2834)" fill="#FFFFFF"/>
<use xlink:href="#path6_stroke" transform="matrix(1.25299 0 0 1.23841 4112.17 2834)" fill="#FFFFFF"/>
</g>
<g id="path32">
<use xlink:href="#path7_fill" transform="matrix(1.25299 0 0 1.23841 4119.32 2834)" fill="#FFFFFF"/>
<use xlink:href="#path8_stroke" transform="matrix(1.25299 0 0 1.23841 4119.32 2834)" fill="#FFFFFF"/>
</g>
<g id="path36">
<use xlink:href="#path9_fill" transform="matrix(1.25299 0 0 1.23841 4121.08 2834)" fill="#FFFFFF"/>
<use xlink:href="#path10_stroke" transform="matrix(1.25299 0 0 1.23841 4121.08 2834)" fill="#FFFFFF"/>
</g>
<g id="path40">
<use xlink:href="#path11_fill" transform="matrix(1.25299 0 0 1.23841 4127.77 2833.86)" fill="#FFFFFF"/>
<use xlink:href="#path12_stroke" transform="matrix(1.25299 0 0 1.23841 4127.77 2833.86)" fill="#FFFFFF"/>
</g>
<g id="path44">
<use xlink:href="#path13_fill" transform="matrix(1.25299 0 0 1.23841 4135.06 2834)" fill="#FFFFFF"/>
<use xlink:href="#path14_stroke" transform="matrix(1.25299 0 0 1.23841 4135.06 2834)" fill="#FFFFFF"/>
</g>
<g id="path46">
<use xlink:href="#path15_fill" transform="matrix(1.25299 0 0 -1.23841 4100.3 2861.08)" fill="#FFFFFF"/>
</g>
<g id="path64">
<use xlink:href="#path16_fill" transform="matrix(1.25299 0 0 -1.23841 4069.04 2859.53)" fill="url(#paint16_linear)"/>
</g>
<g id="path78">
<use xlink:href="#path17_fill" transform="matrix(1.25299 0 0 -1.23841 4082.05 2851.28)" fill="url(#paint17_linear)"/>
</g>
<g id="path88">
<use xlink:href="#path18_fill" transform="matrix(1.25299 0 0 -1.23841 4069.5 2859.86)" fill="url(#paint18_linear)"/>
</g>
<g id="path104">
<use xlink:href="#path19_fill" transform="matrix(1.25299 0 0 -1.23841 4069.5 2847)" fill="url(#paint19_linear)"/>
</g>
</g>
</g>
<defs>
<linearGradient id="paint16_linear" x1="0" y1="0" x2="1" y2="0" gradientUnits="userSpaceOnUse" gradientTransform="matrix(-13.4803 13.5515 13.4803 13.5515 2.76094 -5.77171)">
<stop offset="0" stop-color="#00A0FF"/>
<stop offset="0.0066" stop-color="#00A1FF"/>
<stop offset="0.2601" stop-color="#00BEFF"/>
<stop offset="0.5122" stop-color="#00D2FF"/>
<stop offset="0.7604" stop-color="#00DFFF"/>
<stop offset="1" stop-color="#00E3FF"/>
</linearGradient>
<linearGradient id="paint17_linear" x1="0" y1="0" x2="1" y2="0" gradientUnits="userSpaceOnUse" gradientTransform="matrix(-19.4359 0 0 19.5386 8.78294 -6.31417)">
<stop offset="0" stop-color="#FFE000"/>
<stop offset="0.4087" stop-color="#FFBD00"/>
<stop offset="0.7754" stop-color="#FFA500"/>
<stop offset="1" stop-color="#FF9C00"/>
</linearGradient>
<linearGradient id="paint18_linear" x1="0" y1="0" x2="1" y2="0" gradientUnits="userSpaceOnUse" gradientTransform="matrix(-18.2804 18.377 18.2804 18.377 2.42004 3.05191)">
<stop offset="0" stop-color="#FF3A44"/>
<stop offset="1" stop-color="#C31162"/>
</linearGradient>
<linearGradient id="paint19_linear" x1="0" y1="0" x2="1" y2="0" gradientUnits="userSpaceOnUse" gradientTransform="matrix(8.163 8.20608 8.16293 -8.20615 -6.60179 -11.9044)">
<stop offset="0" stop-color="#32A071"/>
<stop offset="0.0685" stop-color="#2DA771"/>
<stop offset="0.4762" stop-color="#15CF74"/>
<stop offset="0.8009" stop-color="#06E775"/>
<stop offset="1" stop-color="#00F076"/>
</linearGradient>
<path id="path0_fill" d="M 104.421 0L 4.0162 0C 1.80829 0 0 1.81785 0 4.03743L 0 28.262C 0 30.4816 1.80829 32.2994 4.0162 32.2994L 104.421 32.2994C 106.629 32.2994 108.437 30.4816 108.437 28.262L 108.437 4.03743C 108.437 1.81785 106.629 0 104.421 0Z"/>
<path id="path1_fill" d="M 4.87165 2.72829C 4.87165 3.40254 4.67084 3.94255 4.27524 4.34528C 3.82041 4.82271 3.22802 5.06293 2.50209 5.06293C 1.80829 5.06293 1.2159 4.81867 0.729942 4.33721C 0.242978 3.84868 7.35388e-07 3.24912 7.35388e-07 2.53147C 7.35388e-07 1.81381 0.242978 1.21426 0.729942 0.729765C 1.2159 0.244265 1.80829 -3.77338e-07 2.50209 -3.77338e-07C 2.84749 -3.77338e-07 3.17681 0.0716641 3.49108 0.204899C 3.80434 0.339144 4.05937 0.520828 4.24412 0.744905L 3.82442 1.17085C 3.50212 0.788308 3.06336 0.599559 2.50209 0.599559C 1.99605 0.599559 1.55728 0.777205 1.18478 1.13553C 0.816293 1.49486 0.631546 1.96017 0.631546 2.53147C 0.631546 3.10276 0.816293 3.57211 1.18478 3.93144C 1.55728 4.28573 1.99605 4.46741 2.50209 4.46741C 3.03926 4.46741 3.49108 4.28573 3.84752 3.92741C 4.08247 3.69021 4.21601 3.36318 4.25115 2.9453L 2.50209 2.9453L 2.50209 2.3619L 4.8355 2.3619C 4.86362 2.48807 4.87165 2.6102 4.87165 2.72829Z"/>
<path id="path2_stroke" d="M 4.27524 4.34528L 4.21816 4.28922L 4.21732 4.2901L 4.27524 4.34528ZM 0.729942 4.33721L 0.673282 4.39369L 0.673637 4.39404L 0.729942 4.33721ZM 0.729942 0.729765L 0.786367 0.786478L 0.786484 0.786361L 0.729942 0.729765ZM 3.49108 0.204899L 3.52259 0.131366L 3.5223 0.131245L 3.49108 0.204899ZM 4.24412 0.744905L 4.3011 0.801054L 4.35173 0.749671L 4.30584 0.694014L 4.24412 0.744905ZM 3.82442 1.17085L 3.76324 1.2224L 3.8198 1.28953L 3.88141 1.227L 3.82442 1.17085ZM 1.18478 1.13553L 1.12932 1.07787L 1.12893 1.07825L 1.18478 1.13553ZM 1.18478 3.93144L 1.12892 3.98872L 1.12965 3.98941L 1.18478 3.93144ZM 3.84752 3.92741L 3.90424 3.98383L 3.90436 3.98371L 3.84752 3.92741ZM 4.25115 2.9453L 4.33087 2.95201L 4.33816 2.8653L 4.25115 2.8653L 4.25115 2.9453ZM 2.50209 2.9453L 2.42209 2.9453L 2.42209 3.0253L 2.50209 3.0253L 2.50209 2.9453ZM 2.50209 2.3619L 2.50209 2.2819L 2.42209 2.2819L 2.42209 2.3619L 2.50209 2.3619ZM 4.8355 2.3619L 4.91359 2.3445L 4.89964 2.2819L 4.8355 2.2819L 4.8355 2.3619ZM 4.79165 2.72829C 4.79165 3.38568 4.59643 3.90414 4.21817 4.28922L 4.33232 4.40134C 4.74525 3.98096 4.95165 3.41941 4.95165 2.72829L 4.79165 2.72829ZM 4.21732 4.2901C 3.77915 4.75003 3.20851 4.98293 2.50209 4.98293L 2.50209 5.14293C 3.24753 5.14293 3.86166 4.89539 4.33317 4.40046L 4.21732 4.2901ZM 2.50209 4.98293C 1.82926 4.98293 1.25714 4.74691 0.786247 4.28038L 0.673637 4.39404C 1.17467 4.89043 1.78733 5.14293 2.50209 5.14293L 2.50209 4.98293ZM 0.786601 4.28073C 0.315192 3.80781 0.0800007 3.22882 0.0800007 2.53147L -0.0799993 2.53147C -0.0799993 3.26942 0.170764 3.88955 0.673283 4.39368L 0.786601 4.28073ZM 0.0800007 2.53147C 0.0800007 1.83405 0.315224 1.25523 0.786367 0.786478L 0.673518 0.673053C 0.170732 1.17329 -0.0799993 1.79358 -0.0799993 2.53147L 0.0800007 2.53147ZM 0.786484 0.786361C 1.2573 0.315986 1.8293 0.0799996 2.50209 0.0799996L 2.50209 -0.0800004C 1.78729 -0.0800004 1.1745 0.172543 0.6734 0.67317L 0.786484 0.786361ZM 2.50209 0.0799996C 2.83608 0.0799996 3.15482 0.149234 3.45985 0.278553L 3.5223 0.131245C 3.1988 -0.00590626 2.85889 -0.0800004 2.50209 -0.0800004L 2.50209 0.0799996ZM 3.45957 0.278432C 3.76339 0.408631 4.00722 0.583329 4.18239 0.795796L 4.30584 0.694014C 4.11153 0.458327 3.84529 0.269657 3.52259 0.131367L 3.45957 0.278432ZM 4.18713 0.688757L 3.76744 1.11471L 3.88141 1.227L 4.3011 0.801054L 4.18713 0.688757ZM 3.8856 1.11931C 3.54605 0.716286 3.08357 0.519559 2.50209 0.519559L 2.50209 0.679559C 3.04315 0.679559 3.4582 0.86033 3.76324 1.2224L 3.8856 1.11931ZM 2.50209 0.519559C 1.97503 0.519559 1.51648 0.705452 1.12932 1.07787L 1.24024 1.19318C 1.59809 0.848958 2.01707 0.679559 2.50209 0.679559L 2.50209 0.519559ZM 1.12893 1.07825C 0.743264 1.45433 0.551546 1.94116 0.551546 2.53147L 0.711546 2.53147C 0.711546 1.97918 0.889323 1.53538 1.24063 1.1928L 1.12893 1.07825ZM 0.551546 2.53147C 0.551546 3.1216 0.743148 3.61253 1.12893 3.98872L 1.24063 3.87417C 0.889439 3.5317 0.711546 3.08393 0.711546 2.53147L 0.551546 2.53147ZM 1.12965 3.98941C 1.51637 4.35722 1.97464 4.54741 2.50209 4.54741L 2.50209 4.38741C 2.01746 4.38741 1.5982 4.21424 1.23991 3.87348L 1.12965 3.98941ZM 2.50209 4.54741C 3.05912 4.54741 3.53181 4.35823 3.90424 3.98383L 3.7908 3.87099C 3.45036 4.21323 3.0194 4.38741 2.50209 4.38741L 2.50209 4.54741ZM 3.90436 3.98371C 4.15574 3.72992 4.29458 3.38345 4.33087 2.95201L 4.17143 2.9386C 4.13743 3.34291 4.0092 3.6505 3.79068 3.87111L 3.90436 3.98371ZM 4.25115 2.8653L 2.50209 2.8653L 2.50209 3.0253L 4.25115 3.0253L 4.25115 2.8653ZM 2.58209 2.9453L 2.58209 2.3619L 2.42209 2.3619L 2.42209 2.9453L 2.58209 2.9453ZM 2.50209 2.4419L 4.8355 2.4419L 4.8355 2.2819L 2.50209 2.2819L 2.50209 2.4419ZM 4.75742 2.37929C 4.78384 2.4979 4.79165 2.61378 4.79165 2.72829L 4.95165 2.72829C 4.95165 2.60661 4.94339 2.47823 4.91359 2.3445L 4.75742 2.37929Z"/>
<path id="path3_fill" d="M 2.81234 0.594511L 0.620502 0.594511L 0.620502 2.12873L 2.59647 2.12873L 2.59647 2.71214L 0.620502 2.71214L 0.620502 4.24636L 2.81234 4.24636L 2.81234 4.84088L -3.06412e-07 4.84088L -3.06412e-07 2.38724e-07L 2.81234 2.38724e-07L 2.81234 0.594511Z"/>
<path id="path4_stroke" d="M 2.81234 0.594511L 2.81234 0.674511L 2.89234 0.674511L 2.89234 0.594511L 2.81234 0.594511ZM 0.620502 0.594511L 0.620502 0.514511L 0.540502 0.514511L 0.540502 0.594511L 0.620502 0.594511ZM 0.620502 2.12873L 0.540502 2.12873L 0.540502 2.20873L 0.620502 2.20873L 0.620502 2.12873ZM 2.59647 2.12873L 2.67647 2.12873L 2.67647 2.04873L 2.59647 2.04873L 2.59647 2.12873ZM 2.59647 2.71214L 2.59647 2.79214L 2.67647 2.79214L 2.67647 2.71214L 2.59647 2.71214ZM 0.620502 2.71214L 0.620502 2.63214L 0.540502 2.63214L 0.540502 2.71214L 0.620502 2.71214ZM 0.620502 4.24636L 0.540502 4.24636L 0.540502 4.32636L 0.620502 4.32636L 0.620502 4.24636ZM 2.81234 4.24636L 2.89234 4.24636L 2.89234 4.16636L 2.81234 4.16636L 2.81234 4.24636ZM 2.81234 4.84088L 2.81234 4.92088L 2.89234 4.92088L 2.89234 4.84088L 2.81234 4.84088ZM -3.06412e-07 4.84088L -0.0800003 4.84088L -0.0800003 4.92088L -3.06412e-07 4.92088L -3.06412e-07 4.84088ZM -3.06412e-07 2.38724e-07L -3.06412e-07 -0.0799998L -0.0800003 -0.0799998L -0.0800003 2.38724e-07L -3.06412e-07 2.38724e-07ZM 2.81234 2.38724e-07L 2.89234 2.38724e-07L 2.89234 -0.0799998L 2.81234 -0.0799998L 2.81234 2.38724e-07ZM 2.81234 0.514511L 0.620502 0.514511L 0.620502 0.674511L 2.81234 0.674511L 2.81234 0.514511ZM 0.540502 0.594511L 0.540502 2.12873L 0.700502 2.12873L 0.700502 0.594511L 0.540502 0.594511ZM 0.620502 2.20873L 2.59647 2.20873L 2.59647 2.04873L 0.620502 2.04873L 0.620502 2.20873ZM 2.51647 2.12873L 2.51647 2.71214L 2.67647 2.71214L 2.67647 2.12873L 2.51647 2.12873ZM 2.59647 2.63214L 0.620502 2.63214L 0.620502 2.79214L 2.59647 2.79214L 2.59647 2.63214ZM 0.540502 2.71214L 0.540502 4.24636L 0.700502 4.24636L 0.700502 2.71214L 0.540502 2.71214ZM 0.620502 4.32636L 2.81234 4.32636L 2.81234 4.16636L 0.620502 4.16636L 0.620502 4.32636ZM 2.73234 4.24636L 2.73234 4.84088L 2.89234 4.84088L 2.89234 4.24636L 2.73234 4.24636ZM 2.81234 4.76088L -3.06412e-07 4.76088L -3.06412e-07 4.92088L 2.81234 4.92088L 2.81234 4.76088ZM 0.0799997 4.84088L 0.0799997 2.38724e-07L -0.0800003 2.38724e-07L -0.0800003 4.84088L 0.0799997 4.84088ZM -3.06412e-07 0.0800002L 2.81234 0.0800002L 2.81234 -0.0799998L -3.06412e-07 -0.0799998L -3.06412e-07 0.0800002ZM 2.73234 2.38724e-07L 2.73234 0.594511L 2.89234 0.594511L 2.89234 2.38724e-07L 2.73234 2.38724e-07Z"/>
<path id="path5_fill" d="M 1.96492 4.84088L 1.34442 4.84088L 1.34442 0.594511L -1.16436e-06 0.594511L -1.16436e-06 2.38724e-07L 3.31035 2.38724e-07L 3.31035 0.594511L 1.96492 0.594511L 1.96492 4.84088Z"/>
<path id="path6_stroke" d="M 1.34442 4.84088L 1.26442 4.84088L 1.26442 4.92088L 1.34442 4.92088L 1.34442 4.84088ZM 1.34442 0.594511L 1.42442 0.594511L 1.42442 0.514511L 1.34442 0.514511L 1.34442 0.594511ZM -1.16436e-06 0.594511L -0.0800012 0.594511L -0.0800012 0.674511L -1.16436e-06 0.674511L -1.16436e-06 0.594511ZM -1.16436e-06 2.38724e-07L -1.16436e-06 -0.0799998L -0.0800012 -0.0799998L -0.0800012 2.38724e-07L -1.16436e-06 2.38724e-07ZM 3.31035 2.38724e-07L 3.39035 2.38724e-07L 3.39035 -0.0799998L 3.31035 -0.0799998L 3.31035 2.38724e-07ZM 3.31035 0.594511L 3.31035 0.674511L 3.39035 0.674511L 3.39035 0.594511L 3.31035 0.594511ZM 1.96492 0.594511L 1.96492 0.514511L 1.88492 0.514511L 1.88492 0.594511L 1.96492 0.594511ZM 1.96492 4.76088L 1.34442 4.76088L 1.34442 4.92088L 1.96492 4.92088L 1.96492 4.76088ZM 1.42442 4.84088L 1.42442 0.594511L 1.26442 0.594511L 1.26442 4.84088L 1.42442 4.84088ZM 1.34442 0.514511L -1.16436e-06 0.514511L -1.16436e-06 0.674511L 1.34442 0.674511L 1.34442 0.514511ZM 0.0799988 0.594511L 0.0799988 2.38724e-07L -0.0800012 2.38724e-07L -0.0800012 0.594511L 0.0799988 0.594511ZM -1.16436e-06 0.0800002L 3.31035 0.0800002L 3.31035 -0.0799998L -1.16436e-06 -0.0799998L -1.16436e-06 0.0800002ZM 3.23035 2.38724e-07L 3.23035 0.594511L 3.39035 0.594511L 3.39035 2.38724e-07L 3.23035 2.38724e-07ZM 3.31035 0.514511L 1.96492 0.514511L 1.96492 0.674511L 3.31035 0.674511L 3.31035 0.514511ZM 1.88492 0.594511L 1.88492 4.84088L 2.04492 4.84088L 2.04492 0.594511L 1.88492 0.594511Z"/>
<path id="path7_fill" d="M 1.31757e-06 4.84088L 1.31757e-06 2.38724e-07L 0.619501 2.38724e-07L 0.619501 4.84088L 1.31757e-06 4.84088Z"/>
<path id="path8_stroke" d="M 1.31757e-06 4.84088L -0.0799987 4.84088L -0.0799987 4.92088L 1.31757e-06 4.92088L 1.31757e-06 4.84088ZM 1.31757e-06 2.38724e-07L 1.31757e-06 -0.0799998L -0.0799987 -0.0799998L -0.0799987 2.38724e-07L 1.31757e-06 2.38724e-07ZM 0.619501 2.38724e-07L 0.699501 2.38724e-07L 0.699501 -0.0799998L 0.619501 -0.0799998L 0.619501 2.38724e-07ZM 0.619501 4.84088L 0.619501 4.92088L 0.699501 4.92088L 0.699501 4.84088L 0.619501 4.84088ZM 0.0800013 4.84088L 0.0800013 2.38724e-07L -0.0799987 2.38724e-07L -0.0799987 4.84088L 0.0800013 4.84088ZM 1.31757e-06 0.0800002L 0.619501 0.0800002L 0.619501 -0.0799998L 1.31757e-06 -0.0799998L 1.31757e-06 0.0800002ZM 0.539501 2.38724e-07L 0.539501 4.84088L 0.699501 4.84088L 0.699501 2.38724e-07L 0.539501 2.38724e-07ZM 0.619501 4.76088L 1.31757e-06 4.76088L 1.31757e-06 4.92088L 0.619501 4.92088L 0.619501 4.76088Z"/>
<path id="path9_fill" d="M 1.96492 4.84088L 1.34944 4.84088L 1.34944 0.594511L 1.77719e-06 0.594511L 1.77719e-06 2.38724e-07L 3.31437 2.38724e-07L 3.31437 0.594511L 1.96492 0.594511L 1.96492 4.84088Z"/>
<path id="path10_stroke" d="M 1.96492 4.84088L 1.96492 4.92088L 2.04492 4.92088L 2.04492 4.84088L 1.96492 4.84088ZM 1.34944 4.84088L 1.26944 4.84088L 1.26944 4.92088L 1.34944 4.92088L 1.34944 4.84088ZM 1.34944 0.594511L 1.42944 0.594511L 1.42944 0.514511L 1.34944 0.514511L 1.34944 0.594511ZM 1.77719e-06 0.594511L -0.0799982 0.594511L -0.0799982 0.674511L 1.77719e-06 0.674511L 1.77719e-06 0.594511ZM 1.77719e-06 2.38724e-07L 1.77719e-06 -0.0799998L -0.0799982 -0.0799998L -0.0799982 2.38724e-07L 1.77719e-06 2.38724e-07ZM 3.31437 2.38724e-07L 3.39437 2.38724e-07L 3.39437 -0.0799998L 3.31437 -0.0799998L 3.31437 2.38724e-07ZM 3.31437 0.594511L 3.31437 0.674511L 3.39437 0.674511L 3.39437 0.594511L 3.31437 0.594511ZM 1.96492 0.594511L 1.96492 0.514511L 1.88492 0.514511L 1.88492 0.594511L 1.96492 0.594511ZM 1.96492 4.76088L 1.34944 4.76088L 1.34944 4.92088L 1.96492 4.92088L 1.96492 4.76088ZM 1.42944 4.84088L 1.42944 0.594511L 1.26944 0.594511L 1.26944 4.84088L 1.42944 4.84088ZM 1.34944 0.514511L 1.77719e-06 0.514511L 1.77719e-06 0.674511L 1.34944 0.674511L 1.34944 0.514511ZM 0.0800018 0.594511L 0.0800018 2.38724e-07L -0.0799982 2.38724e-07L -0.0799982 0.594511L 0.0800018 0.594511ZM 1.77719e-06 0.0800002L 3.31437 0.0800002L 3.31437 -0.0799998L 1.77719e-06 -0.0799998L 1.77719e-06 0.0800002ZM 3.23437 2.38724e-07L 3.23437 0.594511L 3.39437 0.594511L 3.39437 2.38724e-07L 3.23437 2.38724e-07ZM 3.31437 0.514511L 1.96492 0.514511L 1.96492 0.674511L 3.31437 0.674511L 3.31437 0.514511ZM 1.88492 0.594511L 1.88492 4.84088L 2.04492 4.84088L 2.04492 0.594511L 1.88492 0.594511Z"/>
<path id="path11_fill" d="M 4.24412 4.32913C 3.7692 4.81867 3.18083 5.06293 2.479 5.06293C 1.77315 5.06293 1.18478 4.81867 0.709864 4.32913C 0.235952 3.8406 -1.53206e-07 3.24105 -1.53206e-07 2.53147C -1.53206e-07 1.82189 0.235952 1.22233 0.709864 0.733802C 1.18478 0.244264 1.77315 -3.77338e-07 2.479 -3.77338e-07C 3.17681 -3.77338e-07 3.76519 0.244264 4.24011 0.73784C 4.71803 1.23041 4.95398 1.82593 4.95398 2.53147C 4.95398 3.24105 4.71803 3.8406 4.24412 4.32913ZM 1.16872 3.92337C 1.52616 4.28573 1.96091 4.46741 2.479 4.46741C 2.99307 4.46741 3.43184 4.28573 3.78527 3.92337C 4.14171 3.56101 4.32243 3.0957 4.32243 2.53147C 4.32243 1.96724 4.14171 1.50192 3.78527 1.13956C 3.43184 0.777205 2.99307 0.59552 2.479 0.59552C 1.96091 0.59552 1.52616 0.777205 1.16872 1.13956C 0.812278 1.50192 0.631549 1.96724 0.631549 2.53147C 0.631549 3.0957 0.812278 3.56101 1.16872 3.92337Z"/>
<path id="path12_stroke" d="M 4.24412 4.32913L 4.30154 4.38484L 4.30154 4.38484L 4.24412 4.32913ZM 0.709864 4.32913L 0.652443 4.38484L 0.652444 4.38484L 0.709864 4.32913ZM 0.709864 0.733802L 0.652444 0.678098L 0.652443 0.6781L 0.709864 0.733802ZM 4.24011 0.73784L 4.18246 0.793308L 4.18269 0.793549L 4.24011 0.73784ZM 3.78527 3.92337L 3.72823 3.86727L 3.728 3.86751L 3.78527 3.92337ZM 3.78527 1.13956L 3.728 1.19542L 3.72823 1.19567L 3.78527 1.13956ZM 1.16872 1.13956L 1.11176 1.08338L 1.11168 1.08346L 1.16872 1.13956ZM 4.1867 4.27343C 3.72736 4.74691 3.15994 4.98293 2.479 4.98293L 2.479 5.14293C 3.20172 5.14293 3.81104 4.89044 4.30154 4.38484L 4.1867 4.27343ZM 2.479 4.98293C 1.79397 4.98293 1.22657 4.74686 0.767283 4.27343L 0.652444 4.38484C 1.14299 4.89048 1.75233 5.14293 2.479 5.14293L 2.479 4.98293ZM 0.767285 4.27343C 0.308591 3.80059 0.0799998 3.22133 0.0799998 2.53147L -0.0800002 2.53147C -0.0800002 3.26076 0.163313 3.88062 0.652443 4.38484L 0.767285 4.27343ZM 0.0799998 2.53147C 0.0799998 1.8416 0.308591 1.26235 0.767285 0.789505L 0.652443 0.6781C 0.163313 1.18232 -0.0800002 1.80218 -0.0800002 2.53147L 0.0799998 2.53147ZM 0.767283 0.789507C 1.22657 0.316078 1.79397 0.0799996 2.479 0.0799996L 2.479 -0.0800004C 1.75233 -0.0800004 1.14299 0.172451 0.652444 0.678098L 0.767283 0.789507ZM 2.479 0.0799996C 3.15581 0.0799996 3.72313 0.315937 4.18246 0.793308L 4.29775 0.682371C 3.80725 0.172591 3.19782 -0.0800004 2.479 -0.0800004L 2.479 0.0799996ZM 4.18269 0.793549C 4.6456 1.27063 4.87398 1.84594 4.87398 2.53147L 5.03398 2.53147C 5.03398 1.80591 4.79047 1.19018 4.29752 0.682131L 4.18269 0.793549ZM 4.87398 2.53147C 4.87398 3.22133 4.64539 3.80059 4.1867 4.27343L 4.30154 4.38484C 4.79067 3.88062 5.03398 3.26076 5.03398 2.53147L 4.87398 2.53147ZM 1.11176 3.97955C 1.4844 4.35731 1.93973 4.54741 2.479 4.54741L 2.479 4.38741C 1.98208 4.38741 1.56792 4.21415 1.22567 3.86719L 1.11176 3.97955ZM 2.479 4.54741C 3.01407 4.54741 3.47367 4.35742 3.84254 3.97923L 3.728 3.86751C 3.39002 4.21404 2.97207 4.38741 2.479 4.38741L 2.479 4.54741ZM 3.8423 3.97947C 4.21501 3.60057 4.40243 3.11436 4.40243 2.53147L 4.24243 2.53147C 4.24243 3.07704 4.0684 3.52146 3.72823 3.86727L 3.8423 3.97947ZM 4.40243 2.53147C 4.40243 1.94858 4.21501 1.46237 3.8423 1.08346L 3.72823 1.19567C 4.0684 1.54148 4.24243 1.9859 4.24243 2.53147L 4.40243 2.53147ZM 3.84254 1.08371C 3.47367 0.705513 3.01407 0.51552 2.479 0.51552L 2.479 0.67552C 2.97207 0.67552 3.39002 0.848897 3.728 1.19542L 3.84254 1.08371ZM 2.479 0.51552C 1.93973 0.51552 1.4844 0.705621 1.11176 1.08338L 1.22567 1.19575C 1.56792 0.84879 1.98208 0.67552 2.479 0.67552L 2.479 0.51552ZM 1.11168 1.08346C 0.73897 1.46237 0.551549 1.94858 0.551549 2.53147L 0.711549 2.53147C 0.711549 1.9859 0.885585 1.54148 1.22575 1.19567L 1.11168 1.08346ZM 0.551549 2.53147C 0.551549 3.11436 0.73897 3.60057 1.11168 3.97947L 1.22575 3.86727C 0.885585 3.52146 0.711549 3.07704 0.711549 2.53147L 0.551549 2.53147Z"/>
<path id="path13_fill" d="M -1.47078e-06 4.84088L -1.47078e-06 2.38724e-07L 0.753036 2.38724e-07L 3.09448 3.7649L 3.12159 3.7649L 3.09448 2.83427L 3.09448 2.38724e-07L 3.71398 2.38724e-07L 3.71398 4.84088L 3.06737 4.84088L 0.61548 0.890253L 0.58837 0.890253L 0.61548 1.82492L 0.61548 4.84088L -1.47078e-06 4.84088Z"/>
<path id="path14_stroke" d="M -1.47078e-06 2.38724e-07L -1.47078e-06 -0.0799998L -0.0800015 -0.0799998L -0.0800015 2.38724e-07L -1.47078e-06 2.38724e-07ZM 0.753036 2.38724e-07L 0.82097 -0.0422488L 0.797492 -0.0799998L 0.753036 -0.0799998L 0.753036 2.38724e-07ZM 3.09448 3.7649L 3.02655 3.80715L 3.05002 3.8449L 3.09448 3.8449L 3.09448 3.7649ZM 3.12159 3.7649L 3.12159 3.8449L 3.20395 3.8449L 3.20156 3.76257L 3.12159 3.7649ZM 3.09448 2.83427L 3.01445 2.83427L 3.01451 2.8366L 3.09448 2.83427ZM 3.09448 2.38724e-07L 3.09448 -0.0799998L 3.01448 -0.0799998L 3.01448 2.38724e-07L 3.09448 2.38724e-07ZM 3.71398 2.38724e-07L 3.79398 2.38724e-07L 3.79398 -0.0799998L 3.71398 -0.0799998L 3.71398 2.38724e-07ZM 3.71398 4.84088L 3.71398 4.92088L 3.79398 4.92088L 3.79398 4.84088L 3.71398 4.84088ZM 3.06737 4.84088L 2.9994 4.88306L 3.02287 4.92088L 3.06737 4.92088L 3.06737 4.84088ZM 0.61548 0.890253L 0.683453 0.848067L 0.659984 0.810253L 0.61548 0.810253L 0.61548 0.890253ZM 0.58837 0.890253L 0.58837 0.810253L 0.506016 0.810253L 0.508404 0.892572L 0.58837 0.890253ZM 0.61548 1.82492L 0.695514 1.82492L 0.695446 1.8226L 0.61548 1.82492ZM 0.61548 4.84088L 0.61548 4.92088L 0.69548 4.92088L 0.69548 4.84088L 0.61548 4.84088ZM 0.0799985 4.84088L 0.0799985 2.38724e-07L -0.0800015 2.38724e-07L -0.0800015 4.84088L 0.0799985 4.84088ZM -1.47078e-06 0.0800002L 0.753036 0.0800002L 0.753036 -0.0799998L -1.47078e-06 -0.0799998L -1.47078e-06 0.0800002ZM 0.685102 0.0422493L 3.02655 3.80715L 3.16241 3.72265L 0.82097 -0.0422488L 0.685102 0.0422493ZM 3.09448 3.8449L 3.12159 3.8449L 3.12159 3.6849L 3.09448 3.6849L 3.09448 3.8449ZM 3.20156 3.76257L 3.17445 2.83194L 3.01451 2.8366L 3.04162 3.76723L 3.20156 3.76257ZM 3.17448 2.83427L 3.17448 2.38724e-07L 3.01448 2.38724e-07L 3.01448 2.83427L 3.17448 2.83427ZM 3.09448 0.0800002L 3.71398 0.0800002L 3.71398 -0.0799998L 3.09448 -0.0799998L 3.09448 0.0800002ZM 3.63398 2.38724e-07L 3.63398 4.84088L 3.79398 4.84088L 3.79398 2.38724e-07L 3.63398 2.38724e-07ZM 3.71398 4.76088L 3.06737 4.76088L 3.06737 4.92088L 3.71398 4.92088L 3.71398 4.76088ZM 3.13534 4.79869L 0.683453 0.848067L 0.547507 0.932439L 2.9994 4.88306L 3.13534 4.79869ZM 0.61548 0.810253L 0.58837 0.810253L 0.58837 0.970253L 0.61548 0.970253L 0.61548 0.810253ZM 0.508404 0.892572L 0.535514 1.82724L 0.695446 1.8226L 0.668337 0.887934L 0.508404 0.892572ZM 0.53548 1.82492L 0.53548 4.84088L 0.69548 4.84088L 0.69548 1.82492L 0.53548 1.82492ZM 0.61548 4.76088L -1.47078e-06 4.76088L -1.47078e-06 4.92088L 0.61548 4.92088L 0.61548 4.76088Z"/>
<path id="path15_fill" d="M 21.7638 9.95226C 19.8772 9.95226 18.336 8.50888 18.336 6.51742C 18.336 4.54211 19.8772 3.08359 21.7638 3.08359C 23.6544 3.08359 25.1956 4.54211 25.1956 6.51742C 25.1956 8.50888 23.6544 9.95226 21.7638 9.95226ZM 21.7638 4.43612C 20.7286 4.43612 19.838 5.29509 19.838 6.51742C 19.838 7.7559 20.7286 8.59972 21.7638 8.59972C 22.799 8.59972 23.6936 7.7559 23.6936 6.51742C 23.6936 5.29509 22.799 4.43612 21.7638 4.43612ZM 14.2846 9.95226C 12.394 9.95226 10.8568 8.50888 10.8568 6.51742C 10.8568 4.54211 12.394 3.08359 14.2846 3.08359C 16.1742 3.08359 17.7124 4.54211 17.7124 6.51742C 17.7124 8.50888 16.1742 9.95226 14.2846 9.95226ZM 14.2846 4.43612C 13.2484 4.43612 12.3548 5.29509 12.3548 6.51742C 12.3548 7.7559 13.2484 8.59972 14.2846 8.59972C 15.3198 8.59972 16.2104 7.7559 16.2104 6.51742C 16.2104 5.29509 15.3198 4.43612 14.2846 4.43612ZM 5.38472 8.8995L 5.38472 7.43997L 8.8517 7.43997C 8.75029 6.62441 8.4792 6.02485 8.06352 5.60698C 7.55748 5.1023 6.7693 4.54211 5.38472 4.54211C 3.25111 4.54211 1.58037 6.27315 1.58037 8.41804C 1.58037 10.5629 3.25111 12.294 5.38472 12.294C 6.53837 12.294 7.37776 11.8408 7.99726 11.2533L 9.02038 12.2819C 8.15389 13.1136 7.00124 13.7525 5.38472 13.7525C 2.45892 13.7525 7.35388e-07 11.3593 7.35388e-07 8.41804C 7.35388e-07 5.47677 2.45892 3.08359 5.38472 3.08359C 6.9661 3.08359 8.15389 3.60441 9.08765 4.58147C 10.0445 5.54339 10.3427 6.89593 10.3427 7.98805C 10.3427 8.3272 10.3146 8.63909 10.2644 8.8995L 5.38472 8.8995ZM 41.7775 7.76801C 41.4954 8.53613 40.6249 9.95226 38.8517 9.95226C 37.0946 9.95226 35.6317 8.56036 35.6317 6.51742C 35.6317 4.59358 37.0796 3.08359 39.0204 3.08359C 40.5897 3.08359 41.4954 4.0455 41.8679 4.6057L 40.7032 5.38593C 40.3146 4.81463 39.7855 4.43612 39.0204 4.43612C 38.2603 4.43612 37.7151 4.78637 37.3657 5.47677L 41.9351 7.37739L 41.7775 7.76801ZM 37.1187 6.62441C 37.0796 7.94869 38.1418 8.62697 38.9029 8.62697C 39.4993 8.62697 40.0054 8.3272 40.174 7.89822L 37.1187 6.62441ZM 33.4047 3.29252L 34.9068 3.29252L 34.9068 13.3861L 33.4047 13.3861L 33.4047 3.29252ZM 30.9448 9.18717L 30.8946 9.18717C 30.5572 9.58889 29.9137 9.95226 29.0984 9.95226C 27.3875 9.95226 25.8232 8.44226 25.8232 6.50632C 25.8232 4.58147 27.3875 3.08359 29.0984 3.08359C 29.9137 3.08359 30.5572 3.44998 30.8946 3.86382L 30.9448 3.86382L 30.9448 3.37125C 30.9448 2.05808 30.247 1.35254 29.1215 1.35254C 28.2038 1.35254 27.6345 2.01871 27.3995 2.57891L 26.0932 2.03083C 26.4698 1.12039 27.4668 -8.47086e-08 29.1215 -8.47086e-08C 30.8826 -8.47086e-08 32.3686 1.04166 32.3686 3.57615L 32.3686 9.74332L 30.9448 9.74332L 30.9448 9.18717ZM 29.2269 4.43612C 28.1917 4.43612 27.3252 5.3072 27.3252 6.50632C 27.3252 7.71653 28.1917 8.59972 29.2269 8.59972C 30.247 8.59972 31.0512 7.71653 31.0512 6.50632C 31.0512 5.3072 30.247 4.43612 29.2269 4.43612ZM 48.8099 13.3861L 45.2174 13.3861L 45.2174 3.29252L 46.7154 3.29252L 46.7154 7.11698L 48.8099 7.11698C 50.4736 7.11698 52.1052 8.3272 52.1052 10.252C 52.1052 12.1759 50.4696 13.3861 48.8099 13.3861ZM 48.849 8.52099L 46.7154 8.52099L 46.7154 11.9821L 48.849 11.9821C 49.9675 11.9821 50.6061 11.0484 50.6061 10.252C 50.6061 9.4708 49.9675 8.52099 48.849 8.52099ZM 58.1094 9.97144C 57.027 9.97144 55.9015 9.49098 55.4386 8.42611L 56.768 7.86592C 57.0541 8.42611 57.5802 8.6078 58.1365 8.6078C 58.9136 8.6078 59.7018 8.13844 59.7138 7.30976L 59.7138 7.20378C 59.4428 7.36124 58.8624 7.5944 58.1485 7.5944C 56.7168 7.5944 55.2579 6.80206 55.2579 5.32335C 55.2579 3.97081 56.4306 3.09974 57.7489 3.09974C 58.757 3.09974 59.3132 3.55697 59.6626 4.0889L 59.7138 4.0889L 59.7138 3.30867L 61.1607 3.30867L 61.1607 7.18056C 61.1607 8.97015 59.8313 9.97144 58.1094 9.97144ZM 57.9286 4.44016C 57.4387 4.44016 56.7559 4.68442 56.7559 5.29509C 56.7559 6.07633 57.6073 6.37611 58.3443 6.37611C 59.004 6.37611 59.3132 6.22975 59.7138 6.03696C 59.5964 5.1023 58.7961 4.44016 57.9286 4.44016ZM 66.4319 9.75039L 64.71 5.37483L 64.6588 5.37483L 62.8786 9.75039L 61.2631 9.75039L 63.9379 3.6357L 62.4117 0.233161L 63.977 0.233161L 68.0987 9.75039L 66.4319 9.75039ZM 52.9285 3.29252L 54.4305 3.29252L 54.4305 13.3861L 52.9285 13.3861L 52.9285 3.29252Z"/>
<path id="path16_fill" d="M 0.372502 20.1831C 0.13655 19.9348 2.37469e-07 19.5482 2.37469e-07 19.0476L 2.37469e-07 1.19003C 2.37469e-07 0.689391 0.13655 0.302808 0.372502 0.0545057L 0.430737 -4.31244e-07L 10.3849 10.0027L 10.3849 10.2389L 0.430737 20.2416L 0.372502 20.1831Z"/>
<path id="path17_fill" d="M 3.31437 -8.93291e-07L -3.06412e-07 3.33592L -3.06412e-07 3.57212L 3.31838 6.90804L 3.39268 6.86464L 7.32253 4.6168C 8.44406 3.97889 8.44406 2.92915 7.32253 2.2872L 3.39268 0.0434026L 3.31437 -8.93291e-07Z"/>
<path id="path18_fill" d="M 13.4051 6.97573L 10.0124 10.3863L -4.28976e-07 0.320027C 0.372502 -0.0736226 0.979952 -0.121063 1.67074 0.272586L 13.4051 6.97573Z"/>
<path id="path19_fill" d="M 13.4051 3.41062L 1.67074 10.1138C 0.979952 10.5034 0.372502 10.4559 -4.28976e-07 10.0623L 10.0124 0L 13.4051 3.41062Z"/>
</defs>
</svg>
