<svg width="204" height="56" viewBox="0 0 204 56" version="1.1" xmlns="http://www.w3.org/2000/svg" xmlns:xlink="http://www.w3.org/1999/xlink">
<title>logo_most_dark</title>
<desc>Created using Figma</desc>
<g id="Canvas" transform="translate(-3854 -238)">
<g id="logo_most_dark">
<g id="Vector">
<use xlink:href="#path0_fill" transform="translate(3854 264.669)" fill="#565E61"/>
</g>
<g id="Vector">
<use xlink:href="#path1_fill" transform="translate(3903.36 264.397)" fill="#565E61"/>
</g>
<g id="Vector">
<use xlink:href="#path2_fill" transform="translate(3940.63 264.678)" fill="#565E61"/>
</g>
<g id="Vector">
<use xlink:href="#path3_fill" transform="translate(3973.48 264.665)" fill="#565E61"/>
</g>
<g id="Vector">
<use xlink:href="#path4_fill" transform="translate(3905.31 243.575)" fill="#565E61"/>
</g>
<g id="Vector">
<use xlink:href="#path5_fill" transform="translate(3935.91 238)" fill="#EF7F1A"/>
</g>
<g id="Group" opacity="0.2">
<g id="Vector" opacity="0.2">
<use xlink:href="#path6_fill" transform="translate(3881.86 264.669)" fill="#FFFFFF"/>
</g>
<g id="Vector" opacity="0.2">
<use xlink:href="#path7_fill" transform="translate(3854 264.707)" fill="#FFFFFF"/>
</g>
<g id="Vector" opacity="0.2">
<use xlink:href="#path8_fill" transform="translate(3903.36 264.397)" fill="#FFFFFF"/>
</g>
<g id="Vector" opacity="0.2">
<use xlink:href="#path9_fill" transform="translate(3940.63 264.678)" fill="#FFFFFF"/>
</g>
<g id="Vector" opacity="0.2">
<use xlink:href="#path10_fill" transform="translate(3973.48 264.665)" fill="#FFFFFF"/>
</g>
<g id="Vector" opacity="0.2">
<use xlink:href="#path4_fill" transform="translate(3905.31 243.575)" fill="#FFFFFF"/>
</g>
<g id="Vector" opacity="0.2">
<use xlink:href="#path11_fill" transform="translate(3935.91 238)" fill="#FFFFFF"/>
</g>
</g>
</g>
</g>
<defs>
<path id="path0_fill" d="M 43.3321 2.41078C 43.3301 2.0478 43.2438 1.69026 43.0801 1.36649C 42.9163 1.04271 42.6796 0.76159 42.3887 0.54539C 41.8637 0.142278 41.2069 -0.0485936 40.5482 0.0105599C 39.8895 0.0697134 39.2769 0.37458 38.8319 0.864806L 22.4757 20.1575C 22.3776 20.2778 22.2541 20.3747 22.1141 20.4412C 21.9741 20.5078 21.8211 20.5423 21.6662 20.5423C 21.5112 20.5423 21.3582 20.5078 21.2182 20.4412C 21.0782 20.3747 20.9547 20.2778 20.8566 20.1575L 4.4622 0.903136C 4.01712 0.412911 3.40459 0.108044 2.7459 0.0488907C 2.08721 -0.0102629 1.43036 0.180609 0.905402 0.583721C 0.619278 0.801859 0.388297 1.08432 0.231076 1.40834C 0.0738554 1.73235 -0.00520574 2.08885 0.000265837 2.44911C 0.000265837 2.44911 0.000265837 2.52577 0.000265837 2.5641L 0.000265837 24.1438C 0.0101325 24.4688 0.0840296 24.7886 0.217705 25.0849C 0.35138 25.3811 0.542194 25.648 0.779164 25.87C 1.01613 26.0921 1.29458 26.265 1.59849 26.3788C 1.90239 26.4926 2.22574 26.545 2.54994 26.5331C 2.87414 26.545 3.1975 26.4926 3.5014 26.3788C 3.8053 26.265 4.08375 26.0921 4.32072 25.87C 4.55769 25.648 4.74851 25.3811 4.88218 25.0849C 5.01586 24.7886 5.08976 24.4688 5.09962 24.1438L 5.09962 9.0674L 19.7603 25.9326C 20.2037 26.4349 20.8264 26.7423 21.4941 26.7886C 21.5704 26.795 21.6472 26.795 21.7235 26.7886C 21.7999 26.795 21.8766 26.795 21.953 26.7886C 22.6251 26.7456 23.253 26.4379 23.6995 25.9326L 38.3602 9.0674L 38.3602 24.1438C 38.3602 24.8215 38.6288 25.4715 39.107 25.9507C 39.5851 26.4299 40.2336 26.6992 40.9099 26.6992C 41.5861 26.6992 42.2346 26.4299 42.7127 25.9507C 43.1909 25.4715 43.4595 24.8215 43.4595 24.1438L 43.4595 2.52577C 43.4595 2.52577 43.3321 2.44911 43.3321 2.41078Z"/>
<path id="path1_fill" d="M 24.5024 5.00844C 25.1479 5.03071 25.7609 5.29766 26.2176 5.75536C 26.6743 6.21307 26.9406 6.82742 26.9628 7.47433L 26.9628 19.331C 26.9406 19.978 26.6743 20.5923 26.2176 21.05C 25.7609 21.5077 25.1479 21.7747 24.5024 21.7969L 7.43231 21.7969C 6.78683 21.7747 6.17384 21.5077 5.71714 21.05C 5.26045 20.5923 4.99409 19.978 4.97187 19.331L 4.97187 7.44878C 5.00037 6.80637 5.2695 6.19834 5.72555 5.74601C 6.18161 5.29368 6.79106 5.03031 7.43231 5.00844L 24.5024 5.00844ZM 24.5024 0.0255538L 7.43231 0.0255538C 5.46217 0.0289319 3.5737 0.814795 2.1806 2.21098C 0.787499 3.60717 0.0033722 5.49983 1.5562e-06 7.47433L 1.5562e-06 19.331C 0.0167912 21.2967 0.806838 23.1763 2.19849 24.5614C 3.59014 25.9466 5.47096 26.7254 7.43231 26.7287L 24.5024 26.7287C 26.4737 26.7253 28.3635 25.9399 29.7587 24.5441C 31.1538 23.1483 31.9407 21.2556 31.9475 19.2799L 31.9475 7.44878C 31.9407 5.4731 31.1538 3.58046 29.7587 2.18464C 28.3635 0.788819 26.4737 0.00336561 24.5024 -9.7478e-08L 24.5024 0.0255538Z"/>
<path id="path2_fill" d="M 29.3086 23.6112C 29.3119 23.2869 29.2511 22.9652 29.1296 22.6646C 29.0081 22.364 28.8283 22.0906 28.6007 21.8601C 28.3731 21.6296 28.1021 21.4466 27.8035 21.3217C 27.5048 21.1968 27.1844 21.1325 26.8609 21.1325L 7.43231 21.1325C 7.13141 21.1661 6.82683 21.1372 6.53755 21.0477C 6.24827 20.9582 5.98048 20.8099 5.75087 20.6121C 5.52125 20.4144 5.33471 20.1713 5.20289 19.8982C 5.07106 19.625 4.99676 19.3276 4.98462 19.0244L 4.98462 7.44877C 5.00665 6.80399 5.27123 6.19142 5.72524 5.73404C 6.17924 5.27665 6.78907 5.00832 7.43231 4.98289L 26.8736 4.98289C 27.5228 4.98289 28.1453 4.72443 28.6044 4.26439C 29.0634 3.80434 29.3213 3.18038 29.3213 2.52977L 29.3213 2.45311C 29.3213 1.80251 29.0634 1.17855 28.6044 0.718499C 28.1453 0.258451 27.5228 -9.7478e-07 26.8736 -9.7478e-07L 7.43231 -9.7478e-07C 5.46204 0.0100968 3.57553 0.799871 2.18351 2.19736C 0.791494 3.59486 0.00669491 5.4869 -3.8905e-06 7.46155L -3.8905e-06 19.0372C 0.00954724 19.9967 0.210891 20.9445 0.592121 21.8247C 0.97335 22.7049 1.52673 23.4996 2.21958 24.1618C 2.91244 24.824 3.73069 25.3404 4.62601 25.6803C 5.52134 26.0202 6.47556 26.1769 7.43231 26.141L 26.8481 26.141C 27.4963 26.141 28.1183 25.8847 28.5789 25.4278C 29.0396 24.9709 29.3018 24.3502 29.3086 23.7006L 29.3086 23.6112Z"/>
<path id="path3_fill" d="M 26.7589 1.16974e-06L 2.29474 1.16974e-06C 1.66363 0.063562 1.07883 0.360593 0.654513 0.833097C 0.2302 1.3056 -0.00314498 1.91965 3.36065e-05 2.55533C -0.00314498 3.19101 0.2302 3.80505 0.654513 4.27756C 1.07883 4.75006 1.66363 5.04709 2.29474 5.11065L 12.0728 5.11065L 12.0728 24.0967C 12.1214 24.7168 12.4045 25.2949 12.8641 25.7129C 13.3238 26.1308 13.9254 26.3571 14.5459 26.3454C 14.8615 26.3697 15.1788 26.3304 15.479 26.2299C 15.7792 26.1293 16.0563 25.9695 16.294 25.76C 16.5316 25.5504 16.725 25.2953 16.8626 25.0096C 17.0003 24.7239 17.0795 24.4136 17.0956 24.0967L 17.0956 5.02122L 26.8226 5.02122C 27.4061 4.91036 27.9326 4.5989 28.3114 4.14056C 28.6901 3.68221 28.8974 3.10574 28.8974 2.51061C 28.8974 1.91547 28.6901 1.339 28.3114 0.880661C 27.9326 0.422318 27.4061 0.110852 26.8226 1.16974e-06L 26.7589 1.16974e-06Z"/>
<path id="path4_fill" d="M 23.8012 16.8865C 32.1059 7.64901 43.7075 2.06257 56.0929 1.33734C 46.1831 -0.729347 35.9244 -0.396709 26.1686 2.30762C 16.4128 5.01196 7.44163 10.0099 -1.81166e-14 16.8865L 23.8012 16.8865Z"/>
<path id="path5_fill" d="M 65.9857 22.4613C 74.4633 31.5072 78.1094 39.3776 78.1094 55.54C 78.1094 55.6934 78.1094 55.8467 78.1094 56L 122.091 56C 115.041 34.893 103.938 23.5857 85.3632 13.4538C 68.0637 4.01188 46.9906 1.9721e-05 25.6753 1.9721e-05C 17.0366 -0.00501623 8.42456 0.959237 3.62331e-14 2.87476C 4.68731 2.38175 9.40003 2.17268 14.1125 2.24871C 34.5991 2.24871 54.2699 9.96579 65.9857 22.4613Z"/>
<path id="path6_fill" d="M 15.4765 2.41078C 15.4746 2.0478 15.3883 1.69026 15.2246 1.36649C 15.0608 1.04271 14.8241 0.76159 14.5332 0.54539C 14.0082 0.142278 13.3514 -0.0485936 12.6927 0.0105599C 12.034 0.0697134 11.4214 0.37458 10.9764 0.864806L 4.86313e-07 13.8203C 1.89526 14.0503 3.80752 14.2675 5.73678 14.4719L 10.4409 9.0674L 10.4409 14.9574L 15.5403 15.4046L 15.5403 2.52577C 15.5403 2.52577 15.4765 2.44911 15.4765 2.41078Z"/>
<path id="path7_fill" d="M 4.4622 0.864806C 4.01712 0.374581 3.40459 0.0697143 2.7459 0.0105608C 2.08721 -0.0485927 1.43036 0.142279 0.905402 0.545391C 0.619278 0.763529 0.388297 1.04599 0.231076 1.37001C 0.0738554 1.69402 -0.00520574 2.05052 0.000265837 2.41078C 0.000265837 2.41078 0.000265837 2.48744 0.000265837 2.52577L 0.000265837 9.55291C 1.65756 9.87233 3.35309 10.179 5.09962 10.4728L 5.09962 9.0674L 6.55294 10.7284C 8.97513 11.1543 11.4313 11.5546 13.9215 11.9294L 4.4622 0.864806Z"/>
<path id="path8_fill" d="M 24.5024 -9.7478e-08L 7.43231 -9.7478e-08C 5.46217 0.00337801 3.5737 0.789242 2.1806 2.18543C 0.787499 3.58161 0.0033722 5.47428 1.5562e-06 7.44878L 1.5562e-06 16.1497L 4.97187 16.4819L 4.97187 7.44878C 5.00037 6.80637 5.2695 6.19834 5.72555 5.74601C 6.18161 5.29368 6.79106 5.03031 7.43231 5.00844L 24.5024 5.00844C 25.1479 5.03071 25.7609 5.29766 26.2176 5.75536C 26.6743 6.21307 26.9406 6.82742 26.9628 7.47433L 26.9628 17.4145L 31.9475 17.4912L 31.9475 7.44878C 31.9407 5.4731 31.1538 3.58046 29.7587 2.18464C 28.3635 0.788819 26.4737 0.00336561 24.5024 -9.7478e-08Z"/>
<path id="path9_fill" d="M 7.43231 4.98289L 26.8736 4.98289C 27.5228 4.98289 28.1453 4.72443 28.6044 4.26439C 29.0634 3.80434 29.3213 3.18038 29.3213 2.52977L 29.3213 2.45311C 29.3213 1.80251 29.0634 1.17855 28.6044 0.718499C 28.1453 0.258451 27.5228 -9.7478e-07 26.8736 -9.7478e-07L 7.43231 -9.7478e-07C 5.46204 0.0100968 3.57553 0.799871 2.18351 2.19736C 0.791494 3.59486 0.00669491 5.4869 -3.8905e-06 7.46155L -3.8905e-06 17.2229L 4.98462 17.2229L 4.98462 7.44877C 5.00665 6.80399 5.27123 6.19142 5.72524 5.73404C 6.17924 5.27665 6.78907 5.00832 7.43231 4.98289Z"/>
<path id="path10_fill" d="M 26.7603 5.02122C 27.3437 4.91036 27.8702 4.5989 28.249 4.14056C 28.6278 3.68221 28.835 3.10574 28.835 2.51061C 28.835 1.91547 28.6278 1.339 28.249 0.880661C 27.8702 0.422318 27.3437 0.110852 26.7603 1.16974e-06L 2.2961 1.16974e-06C 1.66499 0.063562 1.08018 0.360593 0.65587 0.833097C 0.231557 1.3056 -0.00178791 1.91965 0.00139067 2.55533C -0.0200323 3.19598 0.207016 3.82003 0.634881 4.29649C 1.06275 4.77295 1.65814 5.06476 2.2961 5.11065L 12.0741 5.11065L 12.0741 15.4214C 13.349 15.3064 15.7074 15.1786 17.0332 15.0509L 17.0332 5.02122L 26.7603 5.02122Z"/>
<path id="path11_fill" d="M 85.4142 13.441C 68.0637 4.01188 46.9906 1.9721e-05 25.6753 1.9721e-05C 17.0366 -0.00501623 8.42456 0.959237 3.62331e-14 2.87476C 4.68731 2.38175 9.40003 2.17268 14.1125 2.24871C 34.6246 2.24871 54.2954 9.91469 66.0112 22.4486C 70.9703 27.7253 74.2721 32.6699 76.2099 38.9815C 88.2061 37.2311 99.4502 35.0463 109.713 32.491C 103.389 24.8506 95.4854 18.9733 85.4142 13.441Z"/>
</defs>
</svg>
