<svg width="139" height="38" viewBox="0 0 139 38" version="1.1" xmlns="http://www.w3.org/2000/svg" xmlns:xlink="http://www.w3.org/1999/xlink">
<title>logo_most_white</title>
<desc>Created using Figma</desc>
<g id="Canvas" transform="translate(-3739 476)">
<g id="logo_most_white">
<g id="Vector">
<use xlink:href="#path0_fill" transform="translate(3739.86 -458.215)" fill="#FFFFFF"/>
</g>
<g id="Vector">
<use xlink:href="#path1_fill" transform="translate(3773.18 -458.397)" fill="#FFFFFF"/>
</g>
<g id="Vector">
<use xlink:href="#path2_fill" transform="translate(3798.33 -458.209)" fill="#FFFFFF"/>
</g>
<g id="Vector">
<use xlink:href="#path3_fill" transform="translate(3820.51 -458.218)" fill="#FFFFFF"/>
</g>
<g id="Vector">
<use xlink:href="#path4_fill" transform="translate(3774.5 -472.282)" fill="#FFFFFF"/>
</g>
<g id="Vector">
<use xlink:href="#path5_fill" transform="translate(3795.15 -476)" fill="#EF7F1A"/>
</g>
</g>
</g>
<defs>
<path id="path0_fill" d="M 29.2492 1.60771C 29.2479 1.36565 29.1896 1.12721 29.0791 0.911289C 28.9686 0.695369 28.8088 0.507893 28.6124 0.363712C 28.2581 0.0948834 27.8147 -0.0324064 27.3701 0.00704224C 26.9255 0.0464908 26.512 0.249802 26.2116 0.576726L 15.1711 13.4428C 15.1049 13.523 15.0216 13.5876 14.9271 13.632C 14.8326 13.6763 14.7293 13.6994 14.6247 13.6994C 14.5201 13.6994 14.4168 13.6763 14.3223 13.632C 14.2278 13.5876 14.1444 13.523 14.0783 13.4428L 3.012 0.602288C 2.71156 0.275364 2.29811 0.0720531 1.85349 0.0326045C 1.40887 -0.00684415 0.965495 0.120446 0.611148 0.389275C 0.418014 0.534748 0.262101 0.723117 0.155977 0.939198C 0.0498526 1.15528 -0.00351389 1.39303 0.000179441 1.63327C 0.000179441 1.63327 0.000179441 1.6844 0.000179441 1.70996L 0.000179441 16.1012C 0.00683942 16.3179 0.0567201 16.5312 0.146951 16.7287C 0.237182 16.9263 0.365982 17.1043 0.525937 17.2523C 0.685893 17.4004 0.873847 17.5157 1.07898 17.5916C 1.28412 17.6675 1.50238 17.7025 1.72122 17.6945C 1.94005 17.7025 2.15832 17.6675 2.36345 17.5916C 2.56859 17.5157 2.75654 17.4004 2.9165 17.2523C 3.07645 17.1043 3.20525 16.9263 3.29548 16.7287C 3.38571 16.5312 3.43559 16.3179 3.44225 16.1012L 3.44225 6.04692L 13.3382 17.294C 13.6375 17.629 14.0579 17.8341 14.5085 17.8649C 14.5601 17.8692 14.6119 17.8692 14.6634 17.8649C 14.715 17.8692 14.7668 17.8692 14.8183 17.8649C 15.272 17.8363 15.6958 17.631 15.9972 17.294L 25.8932 6.04692L 25.8932 16.1012C 25.8932 16.5531 26.0745 16.9866 26.3973 17.3062C 26.72 17.6257 27.1578 17.8053 27.6142 17.8053C 28.0707 17.8053 28.5084 17.6257 28.8312 17.3062C 29.1539 16.9866 29.3353 16.5531 29.3353 16.1012L 29.3353 1.6844C 29.3353 1.6844 29.2492 1.63327 29.2492 1.60771Z"/>
<path id="path1_fill" d="M 16.5392 3.34005C 16.9749 3.35491 17.3886 3.53293 17.6969 3.83817C 18.0052 4.1434 18.185 4.55311 18.2 4.98452L 18.2 12.8916C 18.185 13.323 18.0052 13.7327 17.6969 14.0379C 17.3886 14.3432 16.9749 14.5212 16.5392 14.5361L 5.01682 14.5361C 4.58112 14.5212 4.16735 14.3432 3.85908 14.0379C 3.55082 13.7327 3.37102 13.323 3.35602 12.8916L 3.35602 4.96748C 3.37526 4.53906 3.55692 4.13358 3.86476 3.83193C 4.1726 3.53028 4.58398 3.35464 5.01682 3.34005L 16.5392 3.34005ZM 16.5392 0.0170414L 5.01682 0.0170414C 3.68698 0.0192942 2.41225 0.543375 1.47191 1.47447C 0.531563 2.40557 0.00227624 3.66775 1.05044e-06 4.98452L 1.05044e-06 12.8916C 0.0113341 14.2024 0.544617 15.4559 1.48398 16.3796C 2.42335 17.3034 3.69291 17.8228 5.01682 17.825L 16.5392 17.825C 17.8698 17.8227 19.1454 17.2989 20.0871 16.3681C 21.0289 15.4372 21.5601 14.1751 21.5646 12.8575L 21.5646 4.96748C 21.5601 3.64993 21.0289 2.38776 20.0871 1.45691C 19.1454 0.526052 17.8698 0.00224447 16.5392 -6.50066e-08L 16.5392 0.0170414Z"/>
<path id="path2_fill" d="M 19.7833 15.746C 19.7856 15.5297 19.7445 15.3151 19.6625 15.1147C 19.5805 14.9142 19.4592 14.7319 19.3055 14.5782C 19.1519 14.4244 18.969 14.3024 18.7674 14.2191C 18.5658 14.1358 18.3496 14.093 18.1311 14.093L 5.01682 14.093C 4.81371 14.1154 4.60813 14.0961 4.41286 14.0364C 4.2176 13.9767 4.03684 13.8778 3.88185 13.7459C 3.72685 13.614 3.60094 13.452 3.51196 13.2698C 3.42298 13.0876 3.37283 12.8893 3.36463 12.6871L 3.36463 4.96748C 3.3795 4.53748 3.55809 4.12897 3.86455 3.82394C 4.171 3.51892 4.58264 3.33997 5.01682 3.32301L 18.1397 3.32301C 18.5779 3.32301 18.9982 3.15066 19.308 2.84386C 19.6179 2.53706 19.7919 2.12095 19.7919 1.68707L 19.7919 1.63594C 19.7919 1.20206 19.6179 0.785956 19.308 0.479157C 18.9982 0.172357 18.5779 -6.50066e-07 18.1397 -6.50066e-07L 5.01682 -6.50066e-07C 3.68689 0.00673341 2.41349 0.533422 1.47387 1.46539C 0.53426 2.39736 0.00451908 3.65913 -2.6261e-06 4.976L -2.6261e-06 12.6956C 0.00644441 13.3355 0.142352 13.9676 0.399683 14.5546C 0.657013 15.1416 1.03055 15.6715 1.49822 16.1131C 1.9659 16.5548 2.51822 16.8991 3.12257 17.1258C 3.72691 17.3525 4.37102 17.457 5.01682 17.433L 18.1225 17.433C 18.56 17.4331 18.9799 17.2621 19.2908 16.9574C 19.6018 16.6527 19.7788 16.2388 19.7833 15.8056L 19.7833 15.746Z"/>
<path id="path3_fill" d="M 18.0623 7.80079e-07L 1.54895 7.80079e-07C 1.12296 0.0423886 0.72821 0.240474 0.441798 0.55558C 0.155385 0.870685 -0.00212287 1.28018 2.26844e-05 1.70411C -0.00212287 2.12804 0.155385 2.53753 0.441798 2.85264C 0.72821 3.16774 1.12296 3.36583 1.54895 3.40822L 8.14914 3.40822L 8.14914 16.0698C 8.18196 16.4833 8.37304 16.8688 8.68332 17.1475C 8.99361 17.4263 9.39967 17.5772 9.81854 17.5694C 10.0316 17.5856 10.2457 17.5594 10.4484 17.4923C 10.651 17.4253 10.8381 17.3187 10.9985 17.1789C 11.1589 17.0392 11.2894 16.869 11.3823 16.6785C 11.4752 16.488 11.5287 16.281 11.5396 16.0698L 11.5396 3.34857L 18.1053 3.34857C 18.4992 3.27465 18.8546 3.06694 19.1102 2.76128C 19.3659 2.45561 19.5058 2.07117 19.5058 1.67429C 19.5058 1.2774 19.3659 0.892962 19.1102 0.5873C 18.8546 0.281638 18.4992 0.0739258 18.1053 7.80079e-07L 18.0623 7.80079e-07Z"/>
<path id="path4_fill" d="M 16.0659 11.2614C 21.6715 5.10101 29.5027 1.3755 37.8628 0.89185C 31.1737 -0.486391 24.249 -0.264559 17.6639 1.53892C 11.0787 3.3424 5.02311 6.67548 -1.22287e-14 11.2614L 16.0659 11.2614Z"/>
<path id="path5_fill" d="M 44.5405 14.9791C 50.2629 21.0117 52.724 26.2603 52.724 37.0388C 52.724 37.1411 52.724 37.2433 52.724 37.3456L 82.4119 37.3456C 77.6532 23.2696 70.1581 15.7289 57.6203 8.97215C 45.9431 2.67546 31.7187 1.31517e-05 17.3308 1.31517e-05C 11.4997 -0.00334525 5.68659 0.639701 2.44574e-14 1.91714C 3.16394 1.58835 6.34504 1.44893 9.52594 1.49963C 23.3545 1.49963 36.6323 6.64604 44.5405 14.9791Z"/>
</defs>
</svg>
