<svg width="42" height="42" viewBox="0 0 42 42" version="1.1" xmlns="http://www.w3.org/2000/svg" xmlns:xlink="http://www.w3.org/1999/xlink">
<title>if_social-22_1591831</title>
<desc>Created using Figma</desc>
<g id="Canvas" transform="translate(-4276 -2021)">
<g id="if_social-22_1591831">
<g id="Group" filter="url(#filter0_d)">
<g id="Vector">
<use xlink:href="#path0_fill" transform="translate(4280 2024)" fill="#4A74A5"/>
</g>
<g id="Vector">
<use xlink:href="#path1_fill" transform="translate(4288.56 2036.14)" fill="#FFFFFF"/>
</g>
</g>
</g>
</g>
<defs>
<filter id="filter0_d" filterUnits="userSpaceOnUse" x="4276" y="2021" width="42" height="42" color-interpolation-filters="sRGB">
<feFlood flood-opacity="0" result="BackgroundImageFix"/>
<feColorMatrix in="SourceAlpha" type="matrix" values="0 0 0 0 0 0 0 0 0 0 0 0 0 0 0 0 0 0 255 0"/>
<feOffset dx="0" dy="1"/>
<feGaussianBlur stdDeviation="2"/>
<feColorMatrix type="matrix" values="0 0 0 0 0.0946 0 0 0 0 0.2494 0 0 0 0 0.43 0 0 0 0.3 0"/>
<feBlend mode="normal" in2="BackgroundImageFix" result="effect1_dropShadow"/>
<feBlend mode="normal" in="SourceGraphic" in2="effect1_dropShadow" result="shape"/>
</filter>
<path id="path0_fill" d="M 17 34C 26.3888 34 34 26.3888 34 17C 34 7.61116 26.3888 0 17 0C 7.61116 0 0 7.61116 0 17C 0 26.3888 7.61116 34 17 34Z"/>
<path id="path1_fill" fill-rule="evenodd" d="M 5.52212 0.641788C 5.59994 0.435143 5.74878 0.307454 5.93087 0.217543C 6.28069 0.0456539 6.65809 -0.00685626 7.0404 0.000699292C 7.58365 0.0116548 8.12652 0.0471652 8.66938 0.0702097C 8.91343 0.0804097 9.15634 0.090987 9.38716 0.18392C 9.73245 0.322565 9.91492 0.58512 9.9236 0.947409C 9.9304 1.24245 9.88809 1.53825 9.87827 1.83443C 9.85636 2.46532 9.82916 3.09545 9.83067 3.72559C 9.83143 3.92468 9.91529 4.1249 9.9678 4.32172C 9.98292 4.37763 10.0203 4.42788 10.0543 4.47661C 10.1843 4.66474 10.2296 4.66323 10.4158 4.54537C 10.7619 4.32625 11.0173 4.02668 11.2515 3.69461C 11.5685 3.24581 11.851 2.77888 12.086 2.28399C 12.3199 1.79023 12.5556 1.29685 12.7754 0.795921C 12.8846 0.545832 13.0531 0.440433 13.3236 0.441566C 14.3421 0.448366 15.3613 0.44761 16.3798 0.443076C 16.707 0.441565 16.9408 0.721121 16.8664 1.04223C 16.7886 1.38072 16.636 1.68408 16.4561 1.97497C 15.9503 2.7955 15.3893 3.57599 14.7486 4.2983C 14.5234 4.55217 14.3209 4.82303 14.2167 5.15283C 14.1033 5.5121 14.1755 5.82716 14.443 6.09425C 14.9171 6.56648 15.4033 7.02699 15.8649 7.51168C 16.1377 7.79954 16.3791 8.11763 16.6186 8.43383C 16.7727 8.63594 16.8709 8.86903 16.843 9.13461C 16.8128 9.43041 16.662 9.58379 16.3655 9.59928C 15.7916 9.6295 15.2163 9.65179 14.642 9.67748C 14.3073 9.69296 13.9734 9.71072 13.639 9.7247C 13.372 9.73565 13.134 9.63819 12.9073 9.50861C 12.5469 9.30197 12.2458 9.0209 11.9496 8.73454C 11.6429 8.43874 11.3584 8.12443 11.1295 7.76139C 10.9844 7.53132 10.5798 7.4059 10.3252 7.5011C 10.128 7.57477 10.0339 7.73494 10.0139 7.93479C 9.98065 8.26383 9.96252 8.59514 9.93154 8.92419C 9.89376 9.32992 9.63952 9.58152 9.23529 9.6363C 8.43932 9.74245 7.64938 9.70279 6.86398 9.54941C 6.28787 9.4357 5.78996 9.15841 5.31547 8.82181C 4.66607 8.36281 4.11414 7.80143 3.59734 7.20605C 3.32949 6.89628 3.09452 6.5559 2.86369 6.2159C 2.12816 5.13508 1.43229 4.02894 0.822939 2.87068C 0.530917 2.31572 0.238517 1.76039 0.0843833 1.1465C 0.0496277 1.00861 0.0314941 0.866188 0.00353857 0.726032C -0.0100614 0.656521 0.0156278 0.605143 0.0790944 0.58512C 0.244561 0.53412 0.410027 0.457432 0.578139 0.451009C 1.11836 0.427965 1.65858 0.430987 2.19881 0.427587C 2.43227 0.426832 2.66612 0.450632 2.89921 0.437787C 3.21238 0.421543 3.42167 0.566232 3.55692 0.828032C 3.69178 1.09059 3.80814 1.36372 3.93658 1.63005C 4.39672 2.58697 4.895 3.52121 5.54252 4.36668C 5.63847 4.49134 5.78089 4.59032 5.91992 4.67003C 6.08538 4.76523 6.23083 4.71423 6.33245 4.55216C 6.45145 4.35874 6.50774 4.14265 6.51152 3.91599C 6.52134 3.27792 6.54023 2.63948 6.53343 2.00216C 6.52549 1.34408 6.19872 0.905854 5.57992 0.668987C 5.56405 0.661809 5.54818 0.653499 5.52212 0.641788Z"/>
</defs>
</svg>
