<svg width="23" height="23" viewBox="0 0 23 23" version="1.1" xmlns="http://www.w3.org/2000/svg" xmlns:xlink="http://www.w3.org/1999/xlink">
<title>if_social_media_social_media_logo_skype_1907101</title>
<desc>Created using Figma</desc>
<g id="Canvas" transform="translate(-4220 -3916)">
<g id="if_social_media_social_media_logo_skype_1907101">
<g id="Skype">
<g id="&#60;Group&#62;">
<g id="&#60;Path&#62;">
<use xlink:href="#path0_stroke" transform="translate(4221 3917)"/>
</g>
<g id="&#60;Path&#62;">
<use xlink:href="#path1_stroke" transform="translate(4226.45 3920.63)"/>
</g>
</g>
</g>
</g>
</g>
<defs>
<path id="path0_stroke" d="M 20.0416 11.7639L 20.3949 12.1178C 20.4718 12.041 20.5216 11.9412 20.5367 11.8335L 20.0416 11.7639ZM 10.5 0.883438L 10.5033 1.38343L 10.5034 1.38343L 10.5 0.883438ZM 9.2339 0.975024L 8.96004 1.39335C 9.06116 1.45956 9.18285 1.48689 9.30257 1.47029L 9.2339 0.975024ZM 0.976728 9.21779L 1.47172 9.28839C 1.48892 9.16779 1.4615 9.04507 1.39462 8.94326L 0.976728 9.21779ZM 10.5 20.1166L 10.5026 20.6166L 10.5033 20.6166L 10.5 20.1166ZM 11.7661 20.025L 12.04 19.6066C 11.9388 19.5404 11.8172 19.5131 11.6974 19.5297L 11.7661 20.025ZM 20.0233 11.7822L 19.67 11.4283C 19.5021 11.5959 19.4751 11.8585 19.6054 12.0567L 20.0233 11.7822ZM 20.5367 11.8335C 20.7379 10.4034 20.628 8.94687 20.2147 7.56298L 19.2565 7.84919C 19.6287 9.09522 19.7276 10.4067 19.5465 11.6942L 20.5367 11.8335ZM 20.2147 7.56298C 19.8013 6.1791 19.0941 4.90042 18.1414 3.81395L 17.3895 4.47329C 18.2476 5.45172 18.8843 6.60315 19.2565 7.84919L 20.2147 7.56298ZM 18.1414 3.81395C 17.1886 2.72749 16.0126 1.85875 14.6934 1.2668L 14.284 2.17916C 15.4723 2.71237 16.5315 3.49485 17.3895 4.47329L 18.1414 3.81395ZM 14.6934 1.2668C 13.3742 0.674853 11.9428 0.373578 10.4966 0.383449L 10.5034 1.38343C 11.8063 1.37453 13.0957 1.64594 14.284 2.17916L 14.6934 1.2668ZM 10.4967 0.383449C 10.0512 0.386407 9.60645 0.418581 9.16523 0.479763L 9.30257 1.47029C 9.70048 1.41511 10.1016 1.38609 10.5033 1.38343L 10.4967 0.383449ZM 9.50776 0.556696C 8.26533 -0.256681 6.78022 -0.617852 5.30242 -0.466146L 5.40454 0.528626C 6.65412 0.400348 7.90976 0.705772 8.96004 1.39335L 9.50776 0.556696ZM 5.30242 -0.466146C 3.82461 -0.31444 2.44414 0.340907 1.39344 1.38977L 2.09993 2.0975C 2.98795 1.21102 4.15496 0.656903 5.40454 0.528626L 5.30242 -0.466146ZM 1.39344 1.38977C 0.342721 2.43866 -0.314036 3.81703 -0.466074 5.2929L 0.528662 5.39537C 0.657097 4.14862 1.21192 2.98396 2.09993 2.0975L 1.39344 1.38977ZM -0.466074 5.2929C -0.618112 6.76878 -0.256118 8.25182 0.558839 9.49233L 1.39462 8.94326C 0.705993 7.89505 0.400227 6.64212 0.528662 5.39537L -0.466074 5.2929ZM 0.481737 9.14719C 0.277794 10.5771 0.384905 12.0342 0.795765 13.419L 1.75446 13.1346C 1.38453 11.8877 1.2881 10.5758 1.47172 9.28839L 0.481737 9.14719ZM 0.795765 13.419C 1.20662 14.8039 1.91157 16.0841 2.86256 17.1724L 3.61558 16.5144C 2.75916 15.5343 2.1244 14.3815 1.75446 13.1346L 0.795765 13.419ZM 2.86256 17.1724C 3.81354 18.2608 4.98822 19.1317 6.3066 19.726L 6.71756 18.8144C 5.53 18.279 4.47201 17.4946 3.61558 16.5144L 2.86256 17.1724ZM 6.3066 19.726C 7.62497 20.3203 9.05611 20.6241 10.5026 20.6166L 10.4974 19.6166C 9.19433 19.6233 7.90512 19.3497 6.71756 18.8144L 6.3066 19.726ZM 10.5033 20.6166C 10.9488 20.6136 11.3935 20.5814 11.8348 20.5202L 11.6974 19.5297C 11.2995 19.5849 10.8984 19.6139 10.4967 19.6166L 10.5033 20.6166ZM 11.4922 20.4433C 12.7347 21.2567 14.2198 21.6179 15.6976 21.4661L 15.5955 20.4714C 14.3459 20.5997 13.0902 20.2942 12.04 19.6066L 11.4922 20.4433ZM 15.6976 21.4661C 17.1754 21.3144 18.5559 20.6591 19.6066 19.6102L 18.9001 18.9025C 18.012 19.789 16.845 20.3431 15.5955 20.4714L 15.6976 21.4661ZM 19.6066 19.6102C 20.6573 18.5613 21.314 17.183 21.4661 15.7071L 20.4713 15.6046C 20.3429 16.8514 19.7881 18.016 18.9001 18.9025L 19.6066 19.6102ZM 21.4661 15.7071C 21.6181 14.2312 21.2561 12.7482 20.4412 11.5077L 19.6054 12.0567C 20.294 13.1049 20.5998 14.3579 20.4713 15.6046L 21.4661 15.7071ZM 20.3765 12.1361L 20.3949 12.1178L 19.6884 11.41L 19.67 11.4283L 20.3765 12.1361Z"/>
<path id="path1_stroke" d="M 0.917463 9.70815L 0.949113 9.20915C 0.938576 9.20848 0.928021 9.20815 0.917463 9.20815L 0.917463 9.70815ZM 1.83493 10.624L 1.33594 10.6558C 1.3371 10.674 1.33926 10.6922 1.3424 10.7102L 1.83493 10.624ZM 4.68824 7.3269L 4.82188 6.84497L 4.8113 6.84229L 4.68824 7.3269ZM 5.15614 5.58677L 5.02609 6.06956L 5.0266 6.06969L 5.15614 5.58677ZM 5.04605 13.2379C 3.67664 13.2379 2.51114 12.9192 1.70533 12.4218C 0.89942 11.9244 0.5 11.2856 0.5 10.624L -0.5 10.624C -0.5 11.7392 0.183187 12.6574 1.18009 13.2727C 2.17709 13.8881 3.53463 14.2379 5.04605 14.2379L 5.04605 13.2379ZM 0.5 10.624C 0.5 10.514 0.54377 10.4083 0.621964 10.3303L -0.0845256 9.62254C -0.350448 9.88799 -0.5 10.2482 -0.5 10.624L 0.5 10.624ZM 0.621964 10.3303C 0.700186 10.2522 0.806463 10.2081 0.917463 10.2081L 0.917463 9.20815C 0.541811 9.20815 0.181368 9.35711 -0.0845256 9.62254L 0.621964 10.3303ZM 0.885814 10.2071C 1.00302 10.2146 1.11333 10.2644 1.19613 10.3471L 1.90262 9.63934C 1.64765 9.38482 1.30863 9.23195 0.949113 9.20915L 0.885814 10.2071ZM 1.19613 10.3471C 1.27891 10.4297 1.32853 10.5395 1.33594 10.6558L 2.33392 10.5923C 2.31103 10.2327 2.15761 9.89389 1.90262 9.63934L 1.19613 10.3471ZM 1.3424 10.7102C 1.39128 10.9896 1.55172 11.2312 1.74928 11.4249C 1.94996 11.6216 2.2134 11.7937 2.52319 11.9359C 3.14351 12.2206 3.99523 12.4062 5.04605 12.4062L 5.04605 11.4062C 4.10597 11.4062 3.40259 11.2392 2.9403 11.0271C 2.70879 10.9208 2.54905 10.8085 2.44926 10.7107C 2.34636 10.6098 2.32903 10.5469 2.32745 10.5379L 1.3424 10.7102ZM 5.04605 12.4062C 6.11854 12.4062 7.01759 12.1476 7.66483 11.7396C 8.29673 11.3413 8.75717 10.748 8.75717 10.0745L 7.75717 10.0745C 7.75717 10.2711 7.6075 10.5936 7.13157 10.8937C 6.67096 11.184 5.96446 11.4062 5.04605 11.4062L 5.04605 12.4062ZM 8.75717 10.0745C 8.75717 9.61875 8.67891 9.20895 8.49396 8.84363C 8.30801 8.47634 8.03115 8.18749 7.68553 7.9491C 7.02162 7.49117 6.04415 7.18402 4.82184 6.84509L 4.55463 7.80872C 5.80948 8.15668 6.61647 8.42653 7.11775 8.77227C 7.35471 8.93572 7.50562 9.10537 7.60179 9.29532C 7.69896 9.48725 7.75717 9.73343 7.75717 10.0745L 8.75717 10.0745ZM 4.8113 6.84229C 3.75037 6.57287 2.66352 6.28284 1.83549 5.73526C 1.0466 5.21355 0.5 4.46393 0.5 3.20552L -0.5 3.20552C -0.5 4.84124 0.25161 5.88671 1.28389 6.56936C 2.27702 7.22614 3.53429 7.54974 4.56517 7.81152L 4.8113 6.84229ZM 0.5 3.20552C 0.5 2.49174 0.889519 1.82984 1.61518 1.32678C 2.34369 0.821758 3.38685 0.5 4.58732 0.5L 4.58732 -0.5C 3.21889 -0.5 1.96839 -0.134861 1.04546 0.504945C 0.119691 1.14672 -0.5 2.08757 -0.5 3.20552L 0.5 3.20552ZM 4.58732 0.5C 5.80168 0.5 6.85579 0.780289 7.58871 1.21623C 8.32597 1.65474 8.67463 2.20359 8.67463 2.74759L 9.67463 2.74759C 9.67463 1.72546 9.01409 0.900513 8.09991 0.356767C 7.1814 -0.189557 5.94185 -0.5 4.58732 -0.5L 4.58732 0.5ZM 8.67463 2.74759C 8.67463 2.8576 8.63087 2.96328 8.55267 3.04134L 9.25916 3.74906C 9.52508 3.4836 9.67463 3.12338 9.67463 2.74759L 8.67463 2.74759ZM 8.55267 3.04134C 8.47445 3.11943 8.36817 3.16345 8.25717 3.16345L 8.25717 4.16345C 8.63282 4.16345 8.99327 4.01449 9.25916 3.74906L 8.55267 3.04134ZM 8.25717 3.16345C 8.14617 3.16345 8.03989 3.11943 7.96167 3.04134L 7.25518 3.74906C 7.52107 4.01449 7.88152 4.16345 8.25717 4.16345L 8.25717 3.16345ZM 7.96167 3.04134C 7.88348 2.96328 7.83971 2.8576 7.83971 2.74759L 6.83971 2.74759C 6.83971 3.12338 6.98926 3.48361 7.25518 3.74906L 7.96167 3.04134ZM 7.83971 2.74759C 7.83971 2.55895 7.74905 2.41638 7.69658 2.34537C 7.6339 2.26054 7.55566 2.18512 7.47508 2.11971C 7.31224 1.9875 7.09279 1.85819 6.82859 1.74451C 6.29645 1.51554 5.5406 1.33173 4.58732 1.33173L 4.58732 2.33173C 5.41392 2.33173 6.03426 2.49136 6.43334 2.66308C 6.63476 2.74975 6.76968 2.83509 6.8448 2.89607C 6.88321 2.92725 6.89485 2.94307 6.89231 2.93963C 6.89072 2.93747 6.88019 2.92311 6.86888 2.89677C 6.85815 2.87177 6.83971 2.81966 6.83971 2.74759L 7.83971 2.74759ZM 4.58732 1.33173C 3.72642 1.33173 2.95569 1.52829 2.3838 1.83374C 2.09837 1.98619 1.84706 2.1741 1.66136 2.39359C 1.47694 2.61158 1.33493 2.88906 1.33493 3.20552L 2.33493 3.20552C 2.33493 3.19685 2.33971 3.14004 2.42479 3.03948C 2.5086 2.94042 2.64951 2.82552 2.85492 2.71581C 3.26471 2.49693 3.87018 2.33173 4.58732 2.33173L 4.58732 1.33173ZM 1.33493 3.20552C 1.33493 3.60602 1.41051 3.97146 1.59064 4.29896C 1.77061 4.62617 2.03535 4.87983 2.3575 5.08764C 2.97614 5.48669 3.88615 5.76249 5.02609 6.06956L 5.28619 5.10397C 4.11414 4.78826 3.36353 4.54659 2.89957 4.2473C 2.68042 4.10594 2.54834 3.9652 2.46684 3.81702C 2.3855 3.66913 2.33493 3.47818 2.33493 3.20552L 1.33493 3.20552ZM 5.0266 6.06969C 6.08478 6.35355 7.23356 6.66538 8.12574 7.26647C 8.98061 7.84242 9.5921 8.67819 9.5921 10.0745L 10.5921 10.0745C 10.5921 8.30191 9.77693 7.17315 8.68449 6.43713C 7.62934 5.72625 6.31015 5.37865 5.28569 5.10384L 5.0266 6.06969ZM 9.5921 10.0745C 9.5921 10.9048 9.1452 11.6827 8.33499 12.2709C 7.52322 12.8603 6.36804 13.2379 5.04605 13.2379L 5.04605 14.2379C 6.54985 14.2379 7.91769 13.8096 8.92249 13.0802C 9.92887 12.3495 10.5921 11.2957 10.5921 10.0745L 9.5921 10.0745Z"/>
</defs>
</svg>
