<svg width="21" height="21" viewBox="0 0 21 21" version="1.1" xmlns="http://www.w3.org/2000/svg" xmlns:xlink="http://www.w3.org/1999/xlink">
<title>if_viber_853343</title>
<desc>Created using Figma</desc>
<g id="Canvas" transform="translate(-4429 -3841)">
<g id="if_viber_853343">
<g id="Vector">
<mask id="mask0_outline_ins">
<use xlink:href="#path0_fill" fill="white" transform="translate(4429 3842.79)"/>
</mask>
<g mask="url(#mask0_outline_ins)">
<use xlink:href="#path1_stroke_2x" transform="translate(4429 3842.79)"/>
</g>
</g>
<g id="Vector">
<use xlink:href="#path2_stroke" transform="translate(4439.15 3842)"/>
</g>
<g id="Vector">
<use xlink:href="#path3_stroke" transform="translate(4438.84 3843.82)"/>
</g>
<g id="Vector">
<use xlink:href="#path4_stroke" transform="translate(4438.6 3845.78)"/>
</g>
</g>
</g>
<defs>
<path id="path0_fill" d="M 13.8792 18.9293C 14.3618 19.1287 14.6299 19.2129 15.0363 19.2129C 15.0966 19.2129 15.1637 19.2103 15.2449 19.2061C 15.8625 19.1758 16.3686 18.9697 16.9903 18.4959C 17.6824 17.9682 18.5823 16.8338 18.8429 16.1622C 19.1261 15.4267 19.0381 14.719 18.5923 14.1686C 18.3535 13.8799 16.9785 12.7708 16.4163 12.3744C 15.9479 12.047 15.2072 11.585 14.8604 11.4049C 14.2956 11.1146 13.6932 11.0641 13.1326 11.2577C 12.6391 11.4268 12.4397 11.6406 11.9512 12.2591L 11.6043 12.69C 11.5724 12.7287 11.5456 12.7607 11.5272 12.7842C 11.5021 12.7985 11.466 12.8179 11.4241 12.8356C 11.2348 12.9248 10.82 12.8095 10.1631 12.4804C 9.54726 12.1741 8.99173 11.7786 8.35828 11.1971C 7.82454 10.7064 7.28578 10.0711 6.98665 9.57959C 6.58613 8.91897 6.3356 8.14474 6.33477 7.80981C 6.33477 7.69872 6.39091 7.52704 6.39928 7.50853C 6.4261 7.47739 6.59284 7.32002 6.88778 7.08102C 7.58658 6.51549 7.88571 6.23189 8.03234 5.70508C 8.1706 5.23381 8.06251 4.67922 7.69383 3.95969C 7.12574 2.84295 5.51279 0.789555 4.86258 0.356155C 4.74193 0.27789 4.54 0.171854 4.38917 0.119678C 4.08418 0.00859275 3.61747 -0.0326435 3.33007 0.0279484C 2.94297 0.109579 2.5634 0.330067 1.70623 0.97049C 1.28729 1.28691 0.552451 1.96016 0.319516 2.35401C -0.120379 3.11056 -0.10781 3.77623 0.368114 5.09663C 1.09625 7.11131 2.17545 9.08224 3.57474 10.9581C 6.26857 14.5658 9.63943 17.1729 13.8792 18.9293Z"/>
<path id="path1_stroke_2x" d="M 13.8792 18.9293L 13.4965 19.8531L 13.4972 19.8535L 13.8792 18.9293ZM 3.57474 10.9581L 2.77319 11.556L 2.77346 11.5564L 3.57474 10.9581ZM 0.368114 5.09663L -0.572641 5.43572L -0.572349 5.43653L 0.368114 5.09663ZM 0.319516 2.35401L -0.541236 1.84493L -0.544973 1.85135L 0.319516 2.35401ZM 1.70623 0.97049L 1.10769 0.16938L 1.10354 0.172518L 1.70623 0.97049ZM 3.33007 0.0279484L 3.12378 -0.950542L 3.12374 -0.950533L 3.33007 0.0279484ZM 4.38917 0.119678L 4.04695 1.05929L 4.05457 1.06207L 4.06224 1.06472L 4.38917 0.119678ZM 4.86258 0.356155L 5.41727 -0.476002L 5.40678 -0.482805L 4.86258 0.356155ZM 7.69383 3.95969L 6.80253 4.4131L 6.80386 4.4157L 7.69383 3.95969ZM 8.03234 5.70508L 7.07269 5.42355L 7.06896 5.43693L 8.03234 5.70508ZM 6.88778 7.08102L 6.2587 6.30368L 6.25819 6.30409L 6.88778 7.08102ZM 6.39928 7.50853L 5.64151 6.85601L 5.54759 6.96508L 5.48824 7.09622L 6.39928 7.50853ZM 6.33477 7.80981L 5.33476 7.80981L 5.33477 7.81231L 6.33477 7.80981ZM 6.98665 9.57959L 6.13153 10.098L 6.13243 10.0995L 6.98665 9.57959ZM 8.35828 11.1971L 7.68154 11.9333L 7.68202 11.9337L 8.35828 11.1971ZM 10.1631 12.4804L 10.611 11.5863L 10.6085 11.5851L 10.1631 12.4804ZM 11.4241 12.8356L 11.0355 11.9142L 11.0166 11.9222L 10.998 11.9309L 11.4241 12.8356ZM 11.5272 12.7842L 12.0218 13.6533L 12.1933 13.5558L 12.3148 13.4004L 11.5272 12.7842ZM 11.6043 12.69L 12.3767 13.3253L 12.3832 13.3171L 11.6043 12.69ZM 11.9512 12.2591L 12.7301 12.8862L 12.736 12.8789L 11.9512 12.2591ZM 13.1326 11.2577L 13.4568 12.2036L 13.459 12.2029L 13.1326 11.2577ZM 14.8604 11.4049L 15.3211 10.5174L 15.3176 10.5156L 14.8604 11.4049ZM 16.4163 12.3744L 16.9925 11.5571L 16.9892 11.5548L 16.4163 12.3744ZM 18.5923 14.1686L 19.3695 13.5392L 19.3628 13.5312L 18.5923 14.1686ZM 18.8429 16.1622L 19.7751 16.524L 19.7761 16.5216L 18.8429 16.1622ZM 16.9903 18.4959L 17.5964 19.2912L 17.5966 19.2911L 16.9903 18.4959ZM 15.2449 19.2061L 15.1959 18.2073L 15.1932 18.2075L 15.2449 19.2061ZM 15.0363 18.2129C 14.8269 18.2129 14.7038 18.188 14.2611 18.0051L 13.4972 19.8535C 14.0198 20.0694 14.433 20.2129 15.0363 20.2129L 15.0363 18.2129ZM 14.2619 18.0054C 10.185 16.3165 6.95996 13.8203 4.37601 10.3598L 2.77346 11.5564C 5.57719 15.3113 9.09388 18.0294 13.4965 19.8531L 14.2619 18.0054ZM 4.37629 10.3601C 3.0301 8.55548 2.00027 6.6706 1.30858 4.75674L -0.572349 5.43653C 0.192221 7.55203 1.32081 9.60899 2.77319 11.556L 4.37629 10.3601ZM 1.30887 4.75755C 1.08204 4.12824 1.00488 3.75562 1.00022 3.49594C 0.996325 3.27878 1.04172 3.10137 1.18401 2.85666L -0.544973 1.85135C -0.84258 2.3632 -1.01085 2.8969 -0.999456 3.53182C -0.988825 4.12421 -0.821738 4.74463 -0.572641 5.43572L 1.30887 4.75755ZM 1.18024 2.86307C 1.22261 2.79144 1.3778 2.60459 1.63918 2.3512C 1.87996 2.11777 2.13735 1.89805 2.30893 1.76846L 1.10354 0.172518C 0.85617 0.359352 0.536664 0.63447 0.247062 0.915229C -0.0219514 1.17603 -0.350644 1.52273 -0.541212 1.84494L 1.18024 2.86307ZM 2.30477 1.77159C 3.18156 1.1165 3.39533 1.03618 3.53641 1.00643L 3.12374 -0.950533C 2.4906 -0.81702 1.94524 -0.456364 1.1077 0.169391L 2.30477 1.77159ZM 3.53637 1.00644C 3.53509 1.00671 3.54066 1.0055 3.55395 1.00405C 3.56696 1.00263 3.58458 1.00129 3.60672 1.00056C 3.65171 0.999083 3.70638 1.00044 3.76621 1.00566C 3.89454 1.01684 3.99728 1.04121 4.04695 1.05929L 4.7314 -0.819939C 4.47607 -0.912935 4.19296 -0.964732 3.93984 -0.98679C 3.69161 -1.00842 3.39681 -1.0081 3.12378 -0.950542L 3.53637 1.00644ZM 4.06224 1.06472C 4.07934 1.07064 4.12333 1.08877 4.18487 1.11999C 4.24423 1.15009 4.29325 1.17881 4.31839 1.19511L 5.40678 -0.482805C 5.23636 -0.593349 4.96138 -0.740519 4.71611 -0.825368L 4.06224 1.06472ZM 4.30795 1.18825C 4.36584 1.22684 4.52138 1.36135 4.76656 1.62542C 4.995 1.87147 5.25735 2.18175 5.52265 2.51945C 6.06327 3.2076 6.56214 3.94055 6.80253 4.4131L 8.58513 3.50628C 8.25743 2.86209 7.66578 2.00997 7.09536 1.28389C 6.80513 0.914471 6.50682 0.560351 6.23221 0.264593C 5.97434 -0.0131434 5.68443 -0.297829 5.41722 -0.475937L 4.30795 1.18825ZM 6.80386 4.4157C 7.12747 5.04728 7.10437 5.31589 7.07278 5.42358L 8.99191 5.98657C 9.23682 5.15173 8.99755 4.31116 8.58381 3.50368L 6.80386 4.4157ZM 7.06896 5.43693C 7.03721 5.55103 6.99963 5.62222 6.91266 5.72219C 6.79787 5.85414 6.61524 6.01514 6.2587 6.30368L 7.51686 7.85836C 8.19991 7.30558 8.75348 6.84354 8.99572 5.97322L 7.06896 5.43693ZM 6.25819 6.30409C 5.97038 6.53731 5.73522 6.74719 5.64151 6.85601L 7.15706 8.16105C 7.1447 8.17539 7.13528 8.1854 7.13209 8.18877C 7.128 8.19309 7.12548 8.19562 7.1252 8.19591C 7.12469 8.19641 7.12767 8.19342 7.13509 8.18636C 7.14969 8.17245 7.17412 8.1498 7.2089 8.11874C 7.2781 8.05698 7.38134 7.96818 7.51736 7.85795L 6.25819 6.30409ZM 5.48824 7.09622C 5.44551 7.19064 5.41192 7.31061 5.39492 7.37726C 5.37554 7.45322 5.33477 7.62385 5.33477 7.80981L 7.33477 7.80981C 7.33477 7.83669 7.33314 7.85622 7.33213 7.86621C 7.33107 7.87676 7.33002 7.88313 7.32976 7.88466C 7.32939 7.88685 7.33013 7.88231 7.33285 7.87165C 7.33539 7.8617 7.338 7.85291 7.33941 7.84843C 7.34012 7.84617 7.33974 7.84751 7.33806 7.85231C 7.33726 7.8546 7.33532 7.8601 7.33239 7.86785C 7.3309 7.87178 7.32858 7.87781 7.32556 7.88529C 7.32289 7.89189 7.31763 7.90471 7.31033 7.92084L 5.48824 7.09622ZM 5.33477 7.81231C 5.33563 8.15439 5.44609 8.56217 5.56837 8.90688C 5.70137 9.28184 5.8922 9.70326 6.13153 10.098L 7.84177 9.06116C 7.68059 8.79531 7.54589 8.49931 7.45329 8.23826C 7.34996 7.94696 7.33475 7.80016 7.33476 7.8073L 5.33477 7.81231ZM 6.13243 10.0995C 6.49099 10.6886 7.0958 11.3949 7.68154 11.9333L 9.03503 10.4608C 8.55329 10.018 8.08056 9.4535 7.84087 9.05968L 6.13243 10.0995ZM 7.68202 11.9337C 8.36768 12.5632 8.99952 13.0185 9.71776 13.3758L 10.6085 11.5851C 10.095 11.3297 9.61578 10.994 9.03455 10.4604L 7.68202 11.9337ZM 9.71525 13.3745C 10.0679 13.5512 10.4007 13.694 10.6987 13.7776C 10.9344 13.8438 11.4018 13.9515 11.8503 13.7402L 10.998 11.9309C 11.1481 11.8602 11.2647 11.8641 11.2845 11.865C 11.3097 11.8661 11.2989 11.8688 11.2392 11.8521C 11.1183 11.8181 10.9153 11.7388 10.611 11.5863L 9.71525 13.3745ZM 11.8128 13.7569C 11.9042 13.7184 11.9777 13.6785 12.0218 13.6533L 11.0326 11.9151C 11.0313 11.9159 11.0304 11.9164 11.0298 11.9167C 11.0291 11.917 11.0288 11.9172 11.0289 11.9172C 11.0289 11.9172 11.0294 11.9169 11.0304 11.9164C 11.0314 11.916 11.0331 11.9152 11.0355 11.9142L 11.8128 13.7569ZM 12.3148 13.4004C 12.3148 13.4004 12.3162 13.3987 12.3196 13.3945C 12.3229 13.3904 12.3271 13.3852 12.3328 13.3783C 12.3386 13.3713 12.3448 13.3638 12.3523 13.3547C 12.3596 13.3458 12.3679 13.3358 12.3766 13.3252L 10.832 12.0547C 10.8111 12.0802 10.7681 12.1317 10.7396 12.1681L 12.3148 13.4004ZM 12.3832 13.3171L 12.7301 12.8862L 11.1722 11.632L 10.8254 12.0629L 12.3832 13.3171ZM 12.736 12.8789C 12.9887 12.5588 13.107 12.423 13.2007 12.3406C 13.259 12.2892 13.312 12.2533 13.4568 12.2036L 12.8084 10.3117C 12.4597 10.4312 12.1663 10.5867 11.8794 10.8392C 11.6278 11.0605 11.4021 11.3408 11.1664 11.6393L 12.736 12.8789ZM 13.459 12.2029C 13.7435 12.1047 14.0634 12.1196 14.4031 12.2943L 15.3176 10.5156C 14.5278 10.1096 13.6428 10.0235 12.8062 10.3124L 13.459 12.2029ZM 14.3996 12.2924C 14.6938 12.4452 15.3954 12.8809 15.8435 13.194L 16.9892 11.5548C 16.5005 11.2132 15.7206 10.7248 15.3211 10.5174L 14.3996 12.2924ZM 15.8401 13.1917C 16.0924 13.3695 16.5553 13.7285 16.9926 14.0861C 17.2089 14.2629 17.4108 14.4327 17.5699 14.5728C 17.6496 14.643 17.7144 14.702 17.763 14.7484C 17.8182 14.801 17.8309 14.817 17.8218 14.806L 19.3628 13.5312C 19.2446 13.3883 19.0537 13.2145 18.8914 13.0716C 18.708 12.9101 18.4862 12.7238 18.2586 12.5377C 17.8082 12.1695 17.3025 11.7756 16.9925 11.5571L 15.8401 13.1917ZM 17.8152 14.798C 18.0058 15.0332 18.0825 15.354 17.9097 15.8029L 19.7761 16.5216C 20.1696 15.4994 20.0704 14.4047 19.3694 13.5392L 17.8152 14.798ZM 17.9106 15.8005C 17.8343 15.997 17.617 16.3558 17.2951 16.7613C 16.9809 17.1573 16.6411 17.5046 16.384 17.7006L 17.5966 19.2911C 18.0316 18.9595 18.4878 18.4758 18.8617 18.0047C 19.2279 17.5432 19.5908 16.999 19.7751 16.524L 17.9106 15.8005ZM 16.3842 17.7005C 15.8804 18.0844 15.5636 18.1893 15.1959 18.2073L 15.2939 20.2049C 16.1613 20.1624 16.8567 19.8549 17.5964 19.2912L 16.3842 17.7005ZM 15.1932 18.2075C 15.1174 18.2114 15.0707 18.2129 15.0363 18.2129L 15.0363 20.2129C 15.1226 20.2129 15.2099 20.2093 15.2966 20.2048L 15.1932 18.2075Z"/>
<path id="path2_stroke" d="M 6.40571 2.22384L 6.72897 1.84239L 6.72883 1.84227L 6.40571 2.22384ZM 0.04876 0.502277C 0.0166144 0.505427 0.856037 0.454973 2.04787 0.698704C 3.23455 0.94138 4.74161 1.46983 6.08259 2.60541L 6.72883 1.84227C 5.22264 0.566797 3.54403 -0.016027 2.24823 -0.281019C 0.957587 -0.544956 0.0177393 -0.499472 -0.04876 -0.492956L 0.04876 0.502277ZM 6.08245 2.60529C 7.96716 4.20246 9.08586 6.61438 9.35199 9.84311L 10.3486 9.76097C 10.0668 6.34142 8.86615 3.65352 6.72897 1.84239L 6.08245 2.60529Z"/>
<path id="path3_stroke" d="M 5.55441 1.90735L 5.87556 1.52413L 5.87544 1.52403L 5.55441 1.90735ZM 0 0.502916C 0.0411758 0.502916 2.92153 0.354547 5.23338 2.29068L 5.87544 1.52403C 4.55976 0.422165 3.09366 -0.0805378 1.96366 -0.309359C 1.39725 -0.424054 0.910205 -0.471006 0.560596 -0.489251C 0.213868 -0.507346 -0.0148963 -0.497084 0 -0.497084L 0 0.502916ZM 5.23326 2.29058C 6.87615 3.66733 7.8551 5.75523 8.08761 8.56821L 9.08421 8.48584C 8.83578 5.48031 7.77361 3.1147 5.87556 1.52413L 5.23326 2.29058Z"/>
<path id="path4_stroke" d="M 4.22299 1.40633L 3.90919 1.7956L 3.90922 1.79563L 4.22299 1.40633ZM 0.0735874 0.49886C 0.0423913 0.503502 0.0197141 0.503488 0.0516576 0.502114C 0.0652358 0.50153 0.0871832 0.500794 0.116864 0.500363C 0.176178 0.4995 0.265132 0.499869 0.378623 0.504894C 0.605913 0.514956 0.929049 0.543579 1.30807 0.617334C 2.06858 0.765324 3.03543 1.09123 3.90919 1.7956L 4.53679 1.01707C 3.50015 0.181393 2.36682 -0.195398 1.49908 -0.364253C 1.06399 -0.44892 0.690991 -0.482257 0.42285 -0.494128C 0.288625 -0.50007 0.180038 -0.500661 0.102327 -0.499532C 0.0634955 -0.498967 0.032059 -0.497968 0.00867456 -0.496962C 0.00365528 -0.496746 -0.0395634 -0.495313 -0.0735874 -0.490251L 0.0735874 0.49886ZM 3.90922 1.79563C 5.19355 2.83078 5.96337 4.42393 6.1437 6.60294L 7.14029 6.52046C 6.94357 4.14329 6.08619 2.26586 4.53676 1.01704L 3.90922 1.79563Z"/>
</defs>
</svg>
