<svg width="20" height="20" viewBox="0 0 20 20" version="1.1" xmlns="http://www.w3.org/2000/svg" xmlns:xlink="http://www.w3.org/1999/xlink">
<title>Group</title>
<desc>Created using Figma</desc>
<g id="Canvas" transform="translate(-4429 -3918)">
<g id="Group">
<g id="Vector">
<mask id="mask0_outline_ins">
<use xlink:href="#path0_fill" fill="white" transform="translate(4429 3918)"/>
</mask>
<g mask="url(#mask0_outline_ins)">
<use xlink:href="#path1_stroke_2x" transform="translate(4429 3918)"/>
</g>
</g>
<g id="Vector">
<use xlink:href="#path2_stroke" transform="translate(4434.04 3925.14)"/>
</g>
</g>
</g>
<defs>
<path id="path0_fill" d="M 10 20C 15.5228 20 20 15.5228 20 10C 20 4.47715 15.5228 0 10 0C 4.47715 0 0 4.47715 0 10C 0 15.5228 4.47715 20 10 20Z"/>
<path id="path1_stroke_2x" d="M 19 10C 19 14.9706 14.9706 19 10 19L 10 21C 16.0751 21 21 16.0751 21 10L 19 10ZM 10 19C 5.02944 19 1 14.9706 1 10L -1 10C -1 16.0751 3.92487 21 10 21L 10 19ZM 1 10C 1 5.02944 5.02944 1 10 1L 10 -1C 3.92487 -1 -1 3.92487 -1 10L 1 10ZM 10 1C 14.9706 1 19 5.02944 19 10L 21 10C 21 3.92487 16.0751 -1 10 -1L 10 1Z"/>
<path id="path2_stroke" d="M 3.2483 0.377522L 2.78039 0.201304L 2.61478 0.64104L 3.0434 0.833606L 3.2483 0.377522ZM 3.48875 0.127966L 3.26825 -0.320788L 3.26738 -0.320358L 3.48875 0.127966ZM 4.14142 0.000411348L 4.1515 -0.499487L 4.15129 -0.499491L 4.14142 0.000411348ZM 5.09964 0.0412998L 5.07843 0.54085L 5.07876 0.540864L 5.09964 0.0412998ZM 5.52186 0.108188L 5.33512 0.572007L 5.33555 0.572181L 5.52186 0.108188ZM 5.83742 0.557299L 6.33728 0.545779L 6.33727 0.545311L 5.83742 0.557299ZM 5.81075 1.07908L 6.31045 1.09643L 6.31047 1.09565L 5.81075 1.07908ZM 5.78275 2.19152L 5.28275 2.19272L 5.28275 2.19342L 5.78275 2.19152ZM 5.86342 2.54219L 5.38031 2.67108L 5.38073 2.67264L 5.86342 2.54219ZM 5.9143 2.6333L 6.3257 2.34912L 6.32437 2.34721L 5.9143 2.6333ZM 6.12697 2.67374L 6.39435 3.09624L 6.39445 3.09618L 6.12697 2.67374ZM 6.61853 2.1733L 6.21011 1.88486L 6.20994 1.8851L 6.61853 2.1733ZM 7.10942 1.34352L 7.56109 1.55798L 7.5613 1.55754L 7.10942 1.34352ZM 7.51497 0.468189L 7.97281 0.669142L 7.97321 0.668235L 7.51497 0.468189ZM 7.83741 0.259745L 7.84075 -0.240246L 7.83951 -0.240251L 7.83741 0.259745ZM 9.63519 0.260633L 9.63742 0.760628L 9.6375 0.760628L 9.63519 0.260633ZM 9.92142 0.613078L 9.43433 0.500188L 9.43413 0.501045L 9.92142 0.613078ZM 9.68008 1.16174L 9.25478 0.898833L 9.25446 0.899357L 9.68008 1.16174ZM 8.67564 2.52841L 8.30159 2.19662L 8.30156 2.19664L 8.67564 2.52841ZM 8.36275 3.03108L 7.88601 2.88035L 7.88591 2.88066L 8.36275 3.03108ZM 8.49586 3.58486L 8.14256 3.93866L 8.14301 3.93911L 8.49586 3.58486ZM 9.3323 4.41863L 9.69526 4.07473L 9.69436 4.07379L 9.3323 4.41863ZM 9.77564 4.96108L 9.37707 5.26298L 9.37806 5.26428L 9.77564 4.96108ZM 9.90764 5.3733L 9.41038 5.32096L 9.41023 5.32248L 9.90764 5.3733ZM 9.62675 5.64663L 9.60067 5.14731L 9.60045 5.14732L 9.62675 5.64663ZM 8.61297 5.69263L 8.59062 5.19313L 8.58986 5.19317L 8.61297 5.69263ZM 8.02297 5.72041L 8.04346 6.21999L 8.04386 6.21997L 8.02297 5.72041ZM 7.59253 5.5933L 7.34382 6.02706L 7.34438 6.02738L 7.59253 5.5933ZM 7.02919 5.13797L 7.37674 4.7785L 7.37626 4.77804L 7.02919 5.13797ZM 6.54675 4.56552L 6.12381 4.83221L 6.12382 4.83222L 6.54675 4.56552ZM 6.07364 4.41241L 6.24861 4.8808L 6.24874 4.88075L 6.07364 4.41241ZM 5.89053 4.66752L 6.38799 4.71778L 6.38804 4.71737L 5.89053 4.66752ZM 5.84208 5.24952L 5.34428 5.20266L 5.34423 5.20317L 5.84208 5.24952ZM 5.43253 5.66841L 5.49862 6.16402L 5.49967 6.16388L 5.43253 5.66841ZM 4.03764 5.6173L 3.94082 6.10784L 3.9418 6.10803L 4.03764 5.6173ZM 3.12675 5.1893L 3.41605 4.78149L 3.41534 4.78099L 3.12675 5.1893ZM 2.11608 4.23886L 1.73786 4.56588L 1.73849 4.56661L 2.11608 4.23886ZM 1.68453 3.65641L 2.0982 3.37557L 2.09789 3.37511L 1.68453 3.65641ZM 0.484082 1.68863L 0.926582 1.45584L 0.92656 1.4558L 0.484082 1.68863ZM 0.0496372 0.674411L 0.534586 0.552651L 0.534473 0.552206L 0.0496372 0.674411ZM 0.00208151 0.427078L -0.488618 0.523084L -0.48826 0.524882L 0.00208151 0.427078ZM 0.0465261 0.344188L -0.10075 -0.133641L -0.103904 -0.132646L 0.0465261 0.344188ZM 0.340082 0.2653L 0.359169 0.76494L 0.361391 0.764845L 0.340082 0.2653ZM 1.29342 0.251522L 1.2918 -0.248478L 1.29027 -0.248468L 1.29342 0.251522ZM 1.70542 0.257522L 1.67952 -0.241809L 1.6779 -0.241721L 1.70542 0.257522ZM 2.0923 0.487078L 2.53706 0.25862L 2.53653 0.257593L 2.0923 0.487078ZM 2.31564 0.958856L 2.76625 0.742178L 2.766 0.74166L 2.31564 0.958856ZM 3.2603 2.56863L 2.86335 2.87265L 2.86408 2.8736L 3.2603 2.56863ZM 3.4823 2.74708L 3.73165 2.31369L 3.73101 2.31332L 3.4823 2.74708ZM 3.72497 2.67774L 4.1486 2.94337L 4.15083 2.93975L 3.72497 2.67774ZM 3.8303 2.30352L 4.33024 2.31185L 4.33025 2.31122L 3.8303 2.30352ZM 3.84319 1.17774L 4.34316 1.17241L 4.34316 1.17172L 3.84319 1.17774ZM 3.2823 0.393522L 3.07622 0.849076L 3.08972 0.855183L 3.10356 0.860481L 3.2823 0.393522ZM 3.71622 0.55374C 3.71499 0.557022 3.71257 0.562248 3.70862 0.568289C 3.7047 0.57429 3.7006 0.579056 3.69727 0.582348C 3.69093 0.588624 3.69163 0.58542 3.71012 0.576291L 3.26738 -0.320358C 3.08386 -0.229742 2.88364 -0.072865 2.78039 0.201304L 3.71622 0.55374ZM 3.70925 0.57672C 3.82119 0.521714 3.95731 0.496871 4.13154 0.500314L 4.15129 -0.499491C 3.87574 -0.504937 3.56786 -0.468004 3.26825 -0.320787L 3.70925 0.57672ZM 4.13133 0.50031C 4.44451 0.506626 4.74279 0.526602 5.07843 0.54085L 5.12084 -0.45825C 4.81781 -0.471114 4.47743 -0.492914 4.1515 -0.499487L 4.13133 0.50031ZM 5.07876 0.540864C 5.23555 0.547417 5.29186 0.55459 5.33512 0.572007L 5.7086 -0.35563C 5.4803 -0.447547 5.25084 -0.452817 5.12052 -0.458264L 5.07876 0.540864ZM 5.33555 0.572181C 5.34984 0.57792 5.35498 0.581931 5.35449 0.581564C 5.35364 0.580916 5.34927 0.57728 5.3444 0.570324C 5.3395 0.563334 5.3371 0.557287 5.33629 0.554646C 5.33562 0.552446 5.33725 0.556536 5.33756 0.569288L 6.33727 0.545311C 6.33272 0.355596 6.28103 0.164417 6.16338 -0.00350226C 6.046 -0.171022 5.88422 -0.285116 5.70817 -0.355804L 5.33555 0.572181ZM 5.33755 0.56882C 5.33896 0.629921 5.33537 0.696528 5.32912 0.780991C 5.32337 0.858531 5.31436 0.961968 5.31102 1.06251L 6.31047 1.09565C 6.31292 1.02197 6.31924 0.951291 6.32638 0.854886C 6.33301 0.765405 6.33987 0.658234 6.33728 0.545779L 5.33755 0.56882ZM 5.31105 1.06172C 5.29837 1.42675 5.28183 1.81014 5.28275 2.19272L 6.28275 2.19032C 6.28189 1.83157 6.29735 1.47363 6.31045 1.09643L 5.31105 1.06172ZM 5.28275 2.19342C 5.28323 2.31812 5.30935 2.4271 5.32987 2.50106C 5.34028 2.53855 5.35171 2.5753 5.35998 2.60215C 5.36911 2.63181 5.37535 2.65247 5.38031 2.67108L 6.34652 2.4133C 6.33604 2.37402 6.32453 2.33654 6.31571 2.3079C 6.30602 2.27644 6.2993 2.25471 6.29346 2.23365C 6.28148 2.1905 6.28272 2.18203 6.28274 2.18962L 5.28275 2.19342ZM 5.38073 2.67264C 5.40195 2.75114 5.43472 2.81143 5.45671 2.84785C 5.4768 2.8811 5.50083 2.9145 5.50424 2.91939L 6.32437 2.34721C 6.32157 2.3432 6.31791 2.33799 6.31626 2.33563C 6.31404 2.33247 6.31266 2.33048 6.3116 2.32894C 6.30937 2.32568 6.31035 2.32696 6.31267 2.33081C 6.31645 2.33705 6.33377 2.36612 6.3461 2.41173L 5.38073 2.67264ZM 5.50291 2.91748C 5.52541 2.95004 5.56476 3.00542 5.6177 3.05636C 5.67553 3.112 5.77749 3.18967 5.92669 3.21433C 6.07205 3.23836 6.18953 3.19969 6.25357 3.17252C 6.31393 3.14691 6.36649 3.11388 6.39435 3.09624L 5.85959 2.25124C 5.83267 2.26828 5.84082 2.26136 5.86298 2.25195C 5.88881 2.24099 5.9743 2.20863 6.08975 2.22771C 6.20903 2.24743 6.28315 2.30891 6.31105 2.33575C 6.33407 2.3579 6.34142 2.37189 6.3257 2.34912L 5.50291 2.91748ZM 6.39445 3.09618C 6.67906 2.91597 6.87428 2.67818 7.02711 2.4615L 6.20994 1.8851C 6.08722 2.05909 5.98199 2.17374 5.85949 2.25131L 6.39445 3.09618ZM 7.02694 2.46174C 7.22683 2.17871 7.4085 1.87934 7.56109 1.55798L 6.65774 1.12906C 6.53389 1.38992 6.38312 1.63989 6.21011 1.88486L 7.02694 2.46174ZM 7.5613 1.55754C 7.69758 1.26977 7.83991 0.971935 7.97281 0.669142L 7.05713 0.267236C 6.93136 0.553776 6.79636 0.836382 6.65753 1.12951L 7.5613 1.55754ZM 7.97321 0.668235C 7.9777 0.657955 7.96307 0.69573 7.9106 0.729392C 7.85908 0.762444 7.82057 0.759678 7.83532 0.75974L 7.83951 -0.240251C 7.69515 -0.240856 7.52753 -0.212954 7.37062 -0.112291C 7.21276 -0.0110188 7.11647 0.131312 7.05673 0.268143L 7.97321 0.668235ZM 7.83408 0.759733C 8.43561 0.76375 9.03712 0.7633 9.63742 0.760628L 9.63297 -0.239362C 9.03504 -0.236701 8.43744 -0.23626 7.84075 -0.240244L 7.83408 0.759733ZM 9.6375 0.760628C 9.58674 0.760862 9.52501 0.737314 9.48023 0.682697C 9.43424 0.626607 9.42141 0.555929 9.43433 0.500188L 10.4085 0.725968C 10.5283 0.209291 10.1341 -0.241677 9.63288 -0.239362L 9.6375 0.760628ZM 9.43413 0.501045C 9.40565 0.624928 9.34661 0.7503 9.25478 0.898833L 10.1054 1.42466C 10.2251 1.23097 10.3456 0.99945 10.4087 0.725111L 9.43413 0.501045ZM 9.25446 0.899357C 8.96917 1.36213 8.65598 1.79709 8.30159 2.19662L 9.04969 2.8602C 9.44907 2.40995 9.79588 1.92669 10.1057 1.42413L 9.25446 0.899357ZM 8.30156 2.19664C 8.15486 2.36205 7.97941 2.58493 7.88601 2.88035L 8.83949 3.1818C 8.86876 3.08922 8.93152 2.99343 9.04971 2.86018L 8.30156 2.19664ZM 7.88591 2.88066C 7.83039 3.05666 7.81249 3.24871 7.85884 3.44384C 7.90536 3.63972 8.00862 3.80491 8.14256 3.93866L 8.84916 3.23105C 8.83669 3.2186 8.83187 3.21098 8.8307 3.20898C 8.82976 3.20738 8.83087 3.20896 8.83177 3.21275C 8.83266 3.21649 8.83222 3.21763 8.83242 3.21426C 8.83265 3.21043 8.83379 3.19986 8.83959 3.1815L 7.88591 2.88066ZM 8.14301 3.93911C 8.43442 4.22936 8.70412 4.48407 8.97025 4.76347L 9.69436 4.07379C 9.41737 3.78298 9.11508 3.49591 8.84871 3.2306L 8.14301 3.93911ZM 8.96935 4.76253C 9.10775 4.9086 9.2336 5.07357 9.37707 5.26298L 10.1742 4.65918C 10.0359 4.47658 9.87774 4.26733 9.69526 4.07473L 8.96935 4.76253ZM 9.37806 5.26428C 9.39887 5.29156 9.40662 5.30896 9.40921 5.31645C 9.41039 5.31988 9.41049 5.32119 9.41045 5.32086C 9.4104 5.3204 9.41047 5.32018 9.41038 5.32096L 10.4049 5.42564C 10.4388 5.1034 10.3135 4.84189 10.1732 4.65788L 9.37806 5.26428ZM 9.41023 5.32248C 9.40857 5.3387 9.41107 5.27855 9.47529 5.21536C 9.54208 5.14966 9.6078 5.14694 9.60067 5.14731L 9.65283 6.14595C 9.82014 6.13721 10.0174 6.08483 10.1766 5.92823C 10.3332 5.77416 10.3889 5.5819 10.405 5.42412L 9.41023 5.32248ZM 9.60045 5.14732C 9.26544 5.16497 8.93248 5.17784 8.59062 5.19313L 8.63532 6.19213C 8.96901 6.17721 9.31294 6.16385 9.65304 6.14594L 9.60045 5.14732ZM 8.58986 5.19317C 8.38759 5.20253 8.19807 5.21265 8.00209 5.22085L 8.04386 6.21997C 8.2412 6.21172 8.44457 6.20096 8.63608 6.1921L 8.58986 5.19317ZM 8.00248 5.22083C 7.98372 5.2216 7.94232 5.21733 7.84067 5.15922L 7.34438 6.02738C 7.5094 6.12171 7.748 6.23211 8.04346 6.21999L 8.00248 5.22083ZM 7.84123 5.15954C 7.68945 5.07251 7.55228 4.94822 7.37674 4.7785L 6.68165 5.49743C 6.85455 5.6646 7.0716 5.87098 7.34382 6.02706L 7.84123 5.15954ZM 7.37626 4.77804C 7.21084 4.61853 7.07458 4.46518 6.96968 4.29882L 6.12382 4.83222C 6.28825 5.09298 6.48666 5.30941 6.68213 5.49789L 7.37626 4.77804ZM 6.96969 4.29884C 6.84383 4.09924 6.64466 3.99139 6.48634 3.94088C 6.32688 3.89 6.10929 3.86527 5.89853 3.94408L 6.24874 4.88075C 6.21375 4.89383 6.19057 4.89363 6.18582 4.89351C 6.17984 4.89336 6.17952 4.89265 6.18238 4.89356C 6.18533 4.8945 6.18301 4.89439 6.17559 4.88931C 6.16908 4.88486 6.14655 4.86827 6.12381 4.83221L 6.96969 4.29884ZM 5.89867 3.94403C 5.56378 4.06913 5.41907 4.35765 5.39302 4.61768L 6.38804 4.71737C 6.38765 4.7212 6.38373 4.75334 6.35597 4.79401C 6.32503 4.83934 6.28294 4.86797 6.24861 4.8808L 5.89867 3.94403ZM 5.39306 4.61726C 5.38259 4.72092 5.37462 4.82368 5.36725 4.92059C 5.35973 5.01933 5.35288 5.11134 5.34428 5.20266L 6.33988 5.29639C 6.34951 5.19415 6.3571 5.09194 6.36436 4.99646C 6.37177 4.89914 6.37891 4.80768 6.38799 4.71778L 5.39306 4.61726ZM 5.34423 5.20317C 5.34304 5.216 5.3411 5.21754 5.34368 5.21163C 5.3465 5.20514 5.35241 5.19516 5.36215 5.18528C 5.37178 5.17552 5.38034 5.17073 5.38362 5.16921C 5.38635 5.16794 5.38143 5.17076 5.36538 5.17294L 5.49967 6.16388C 5.7064 6.13587 5.91245 6.05141 6.07412 5.88749C 6.23715 5.72219 6.31983 5.5117 6.33993 5.29588L 5.34423 5.20317ZM 5.36643 5.1728C 4.9585 5.2272 4.54886 5.20769 4.13347 5.12657L 3.9418 6.10803C 4.45041 6.20735 4.97011 6.23451 5.49862 6.16402L 5.36643 5.1728ZM 4.13446 5.12676C 3.89465 5.07943 3.66895 4.9609 3.41605 4.78149L 2.83745 5.59711C 3.14277 5.8137 3.50285 6.02139 3.94082 6.10784L 4.13446 5.12676ZM 3.41534 4.78099C 3.08009 4.54403 2.78559 4.2474 2.49367 3.9111L 1.73849 4.56661C 2.05458 4.93076 2.40941 5.29457 2.83816 5.59761L 3.41534 4.78099ZM 2.49431 3.91183C 2.35813 3.75434 2.23467 3.57659 2.0982 3.37557L 1.27085 3.93725C 1.40593 4.13623 1.55892 4.35893 1.73786 4.56588L 2.49431 3.91183ZM 2.09789 3.37511C 1.67162 2.74873 1.27333 2.11493 0.926582 1.45584L 0.0415819 1.92143C 0.411726 2.625 0.832097 3.29253 1.27116 3.93772L 2.09789 3.37511ZM 0.92656 1.4558C 0.750073 1.1204 0.608254 0.846061 0.534585 0.552651L -0.435311 0.79617C -0.327646 1.22498 -0.125465 1.60398 0.041603 1.92147L 0.92656 1.4558ZM 0.534473 0.552206C 0.51641 0.480541 0.519436 0.464706 0.492423 0.329274L -0.48826 0.524882C -0.482384 0.554338 -0.458024 0.706058 -0.435199 0.796616L 0.534473 0.552206ZM 0.492778 0.331072C 0.503995 0.388404 0.509649 0.493852 0.449725 0.607661C 0.385767 0.729135 0.281855 0.794239 0.196956 0.821023L -0.103904 -0.132646C -0.226136 -0.0940842 -0.35627 -0.0079799 -0.435117 0.141771C -0.50993 0.283859 -0.507832 0.424862 -0.488615 0.523083L 0.492778 0.331072ZM 0.193799 0.822007C 0.22815 0.811419 0.260667 0.800069 0.284411 0.791776C 0.310899 0.782525 0.327796 0.776616 0.343908 0.771505C 0.377067 0.760986 0.37614 0.764287 0.359169 0.764935L 0.320994 -0.234336C 0.205135 -0.22991 0.106096 -0.202165 0.0415327 -0.181684C 0.00878406 -0.171295 -0.0230833 -0.160065 -0.0453099 -0.152302C -0.0702815 -0.143581 -0.0864315 -0.138042 -0.100747 -0.13363L 0.193799 0.822007ZM 0.361391 0.764845C 0.667247 0.751798 0.970684 0.753563 1.29656 0.751512L 1.29027 -0.248468C 0.98059 -0.246519 0.648471 -0.24831 0.318772 -0.234246L 0.361391 0.764845ZM 1.29503 0.751519C 1.35069 0.751339 1.4038 0.754037 1.48131 0.756858C 1.55233 0.759442 1.64018 0.761876 1.73293 0.756765L 1.6779 -0.241721C 1.63354 -0.239276 1.58406 -0.240065 1.51768 -0.242481C 1.45781 -0.24466 1.37347 -0.24874 1.2918 -0.248476L 1.29503 0.751519ZM 1.73132 0.756851C 1.73602 0.756607 1.73079 0.75743 1.71862 0.754585C 1.70585 0.7516 1.6906 0.745769 1.67556 0.73649C 1.64419 0.717129 1.6391 0.699186 1.64808 0.716562L 2.53653 0.257593C 2.46595 0.120969 2.35953 -0.0165295 2.20065 -0.114557C 2.03846 -0.214629 1.85795 -0.251062 1.67952 -0.241807L 1.73132 0.756851ZM 1.64755 0.715535C 1.7266 0.869422 1.77279 0.984291 1.86528 1.17605L 2.766 0.74166C 2.70737 0.620087 2.61668 0.413622 2.53706 0.258621L 1.64755 0.715535ZM 1.86503 1.17553C 2.14041 1.74823 2.45107 2.33433 2.86335 2.87265L 3.65726 2.26462C 3.30776 1.80827 3.0322 1.29526 2.76625 0.742178L 1.86503 1.17553ZM 2.86408 2.8736C 2.98158 3.02626 3.13458 3.12406 3.2336 3.18084L 3.73101 2.31332C 3.70272 2.2971 3.68218 2.28347 3.66784 2.27237C 3.65306 2.26093 3.65174 2.25744 3.65653 2.26366L 2.86408 2.8736ZM 3.23296 3.18047C 3.37317 3.26114 3.5615 3.30857 3.76255 3.24772C 3.9539 3.18982 4.07686 3.05774 4.14858 2.94336L 3.30136 2.41212C 3.3133 2.39308 3.3636 2.32367 3.47289 2.2906C 3.59188 2.25458 3.68877 2.28902 3.73165 2.31369L 3.23296 3.18047ZM 4.15083 2.93975C 4.27299 2.74118 4.32669 2.52445 4.33024 2.31185L 3.33037 2.29519C 3.32947 2.34926 3.31695 2.38675 3.29911 2.41574L 4.15083 2.93975ZM 4.33025 2.31122C 4.33588 1.94537 4.34726 1.55598 4.34316 1.17241L 3.34322 1.18308C 3.34713 1.54929 3.33629 1.91101 3.33036 2.29583L 4.33025 2.31122ZM 4.34316 1.17172C 4.33981 0.893995 4.26749 0.627781 4.10274 0.399829C 3.93932 0.173722 3.712 0.0226251 3.46105 -0.0734369L 3.10356 0.860481C 3.2166 0.903752 3.2674 0.951211 3.29226 0.985603C 3.31579 1.01815 3.34191 1.07438 3.34323 1.18377L 4.34316 1.17172ZM 3.48839 -0.0620321C 3.49045 -0.0611012 3.49155 -0.0605654 3.49077 -0.0609359C 3.48936 -0.0616101 3.48879 -0.0618927 3.48467 -0.0638806C 3.47766 -0.06726 3.46687 -0.0724273 3.45321 -0.0785622L 3.0434 0.833606C 3.04508 0.83436 3.04662 0.835082 3.05044 0.836925C 3.05174 0.837548 3.0562 0.839709 3.05965 0.841355C 3.06372 0.843304 3.0695 0.846034 3.07622 0.849076L 3.48839 -0.0620321Z"/>
</defs>
</svg>
