<svg width="20" height="20" viewBox="0 0 20 20" version="1.1" xmlns="http://www.w3.org/2000/svg" xmlns:xlink="http://www.w3.org/1999/xlink">
<title>if_Whatsapp_853339</title>
<desc>Created using Figma</desc>
<g id="Canvas" transform="translate(-4429 -3880)">
<g id="if_Whatsapp_853339">
<g id="Vector">
<mask id="mask0_outline_ins">
<use xlink:href="#path0_fill" fill="white" transform="translate(4429 3880)"/>
</mask>
<g mask="url(#mask0_outline_ins)">
<use xlink:href="#path1_stroke_2x" transform="translate(4429 3880)"/>
</g>
</g>
<g id="Vector">
<mask id="mask1_outline_ins">
<use xlink:href="#path2_fill" fill="white" transform="translate(4434.22 3884.68)"/>
</mask>
<g mask="url(#mask1_outline_ins)">
<use xlink:href="#path3_stroke_2x" transform="translate(4434.22 3884.68)"/>
</g>
</g>
</g>
</g>
<defs>
<path id="path0_fill" d="M 3.22617e-10 20L 1.82696 15.2467C 0.792739 13.6475 0.248147 11.7967 0.248147 9.88417C 0.248147 4.43333 4.67816 0 10.1241 0C 15.5692 0 20 4.43333 20 9.88417C 20 15.3333 15.5692 19.7675 10.1241 19.7675C 8.2663 19.7675 6.45932 19.245 4.8855 18.2567L 3.22617e-10 20Z"/>
<path id="path1_stroke_2x" d="M 3.22617e-10 20L -0.933427 19.6412L -1.71457 21.6736L 0.336082 20.9418L 3.22617e-10 20ZM 1.82696 15.2467L 2.76039 15.6054L 2.94286 15.1307L 2.66666 14.7036L 1.82696 15.2467ZM 4.8855 18.2567L 5.41732 17.4098L 5.00641 17.1518L 4.54942 17.3148L 4.8855 18.2567ZM 0.933427 20.3588L 2.76039 15.6054L 0.893536 14.8879L -0.933427 19.6412L 0.933427 20.3588ZM 2.66666 14.7036C 1.73764 13.2671 1.24815 11.605 1.24815 9.88417L -0.751853 9.88417C -0.751853 11.9883 -0.15216 14.0279 0.987266 15.7897L 2.66666 14.7036ZM 1.24815 9.88417C 1.24815 4.98486 5.2312 1 10.1241 1L 10.1241 -1C 4.12511 -1 -0.751853 3.88181 -0.751853 9.88417L 1.24815 9.88417ZM 10.1241 1C 15.0162 1 19 4.98491 19 9.88417L 21 9.88417C 21 3.88176 16.1221 -1 10.1241 -1L 10.1241 1ZM 19 9.88417C 19 14.7818 15.0162 18.7675 10.1241 18.7675L 10.1241 20.7675C 16.1221 20.7675 21 15.8849 21 9.88417L 19 9.88417ZM 10.1241 18.7675C 8.45527 18.7675 6.8325 18.2985 5.41732 17.4098L 4.35369 19.1035C 6.08614 20.1915 8.07733 20.7675 10.1241 20.7675L 10.1241 18.7675ZM 4.54942 17.3148L -0.336082 19.0582L 0.336082 20.9418L 5.22158 19.1985L 4.54942 17.3148Z"/>
<path id="path2_fill" d="M 7.39029 10.1117C 6.19702 10.1117 3.75219 8.68833 2.58723 7.52167C 1.54551 6.47917 1.90592e-07 4.00167 1.90592e-07 2.71583C 1.90592e-07 1.43083 1.37064 -1.90735e-07 2.29911 -1.90735e-07L 2.42818 -1.90735e-07L 2.52561 0.0833335C 2.77209 0.293333 4.01449 1.36167 4.26347 1.8475C 4.6232 2.54917 3.74386 3.55417 3.28004 4.01417C 3.48739 4.27583 3.9587 4.83583 4.61487 5.4925C 5.23357 6.1125 5.98801 6.44667 6.33858 6.58C 6.64335 6.28 7.26538 5.74417 7.83412 5.74417L 7.9174 5.75333L 8.26297 5.8475C 8.74428 6.095 9.81098 7.33833 10.0192 7.58417L 10.1024 7.6825L 10.1024 7.81083C 10.1024 8.74083 8.67433 10.1117 7.39029 10.1117Z"/>
<path id="path3_stroke_2x" d="M 2.58723 7.52167L 3.29485 6.81508L 3.2946 6.81483L 2.58723 7.52167ZM 2.42818 -1.90735e-07L 3.07818 -0.759933L 2.79751 -1L 2.42818 -1L 2.42818 -1.90735e-07ZM 2.52561 0.0833335L 1.8756 0.843268L 1.87708 0.844525L 2.52561 0.0833335ZM 4.26347 1.8475L 3.37353 2.30358L 3.3736 2.30372L 4.26347 1.8475ZM 3.28004 4.01417L 2.57586 3.30414L 1.94069 3.93408L 2.49627 4.63522L 3.28004 4.01417ZM 4.61487 5.4925L 5.32272 4.78613L 5.32224 4.78566L 4.61487 5.4925ZM 6.33858 6.58L 5.98309 7.51468L 6.58281 7.74278L 7.04009 7.29266L 6.33858 6.58ZM 7.83412 5.74417L 7.94355 4.75017L 7.889 4.74417L 7.83412 4.74417L 7.83412 5.74417ZM 7.9174 5.75333L 8.1803 4.78851L 8.1047 4.76791L 8.02682 4.75934L 7.9174 5.75333ZM 8.26297 5.8475L 8.72028 4.95819L 8.62703 4.91024L 8.52588 4.88268L 8.26297 5.8475ZM 10.0192 7.58417L 9.25602 8.23041L 9.25602 8.23041L 10.0192 7.58417ZM 10.1024 7.6825L 11.1024 7.6825L 11.1024 7.31597L 10.8656 7.03626L 10.1024 7.6825ZM 10.1024 7.81083L 11.1024 7.81083L 10.1024 7.81083ZM 7.39029 9.11167C 7.26312 9.11167 7.0146 9.06736 6.64333 8.93175C 6.28837 8.80209 5.88239 8.6118 5.46256 8.37933C 4.61307 7.90895 3.79338 7.31434 3.29485 6.81508L 1.8796 8.22826C 2.54603 8.89566 3.53124 9.59605 4.49372 10.129C 4.97988 10.3982 5.48166 10.6367 5.95712 10.8103C 6.41627 10.9781 6.92082 11.1117 7.39029 11.1117L 7.39029 9.11167ZM 3.2946 6.81483C 2.85461 6.37451 2.25908 5.57364 1.77271 4.71649C 1.53261 4.29336 1.332 3.8789 1.19398 3.51119C 1.05017 3.12806 1 2.86262 1 2.71583L -1 2.71583C -1 3.21197 -0.856984 3.7384 -0.678457 4.21402C -0.494142 4.70506 -0.243268 5.21623 0.0332288 5.70351C 0.580044 6.66719 1.27812 7.62633 1.87985 8.22851L 3.2946 6.81483ZM 1 2.71583C 1 2.40112 1.18766 1.94847 1.55024 1.53877C 1.72141 1.34535 1.90186 1.19688 2.05969 1.10292C 2.22863 1.00235 2.30974 1 2.29911 1L 2.29911 -1C 1.82424 -1 1.38585 -0.823497 1.03666 -0.615626C 0.676365 -0.401147 0.340062 -0.1116 0.0525199 0.213311C -0.502339 0.84028 -1 1.74554 -1 2.71583L 1 2.71583ZM 2.29911 1L 2.42818 1L 2.42818 -1L 2.29911 -1L 2.29911 1ZM 1.77818 0.759932L 1.8756 0.843266L 3.17561 -0.676599L 3.07818 -0.759933L 1.77818 0.759932ZM 1.87708 0.844525C 1.99593 0.945786 2.35193 1.25155 2.70469 1.58683C 2.88164 1.755 3.04808 1.92145 3.17989 2.06719C 3.3291 2.23217 3.37558 2.30759 3.37353 2.30358L 5.15341 1.39142C 5.02687 1.1445 4.82468 0.90418 4.66322 0.72565C 4.48435 0.527874 4.2781 0.32302 4.08251 0.137131C 3.69021 -0.235718 3.30176 -0.569119 3.17413 -0.677858L 1.87708 0.844525ZM 3.3736 2.30372C 3.33609 2.23055 3.35333 2.18477 3.34536 2.22558C 3.33549 2.2761 3.30166 2.3731 3.21831 2.51503C 3.05033 2.80103 2.78579 3.09595 2.57586 3.30414L 3.98422 4.72419C 4.23811 4.47239 4.64515 4.03481 4.94287 3.52789C 5.20406 3.08317 5.58582 2.23486 5.15334 1.39128L 3.3736 2.30372ZM 2.49627 4.63522C 2.72532 4.92427 3.22195 5.51328 3.9075 6.19934L 5.32224 4.78566C 4.69545 4.15839 4.24945 3.6274 4.06381 3.39311L 2.49627 4.63522ZM 3.90702 6.19887C 4.67122 6.96467 5.57784 7.36055 5.98309 7.51468L 6.69407 5.64532C 6.39818 5.53278 5.79593 5.26033 5.32272 4.78614L 3.90702 6.19887ZM 7.04009 7.29266C 7.16797 7.16678 7.34547 7.00908 7.53102 6.88889C 7.73845 6.75453 7.83791 6.74417 7.83412 6.74417L 7.83412 4.74417C 7.2616 4.74417 6.76567 5.00172 6.4437 5.21028C 6.09986 5.433 5.81396 5.69322 5.63707 5.86734L 7.04009 7.29266ZM 7.7247 6.73816L 7.80797 6.74733L 8.02682 4.75934L 7.94355 4.75017L 7.7247 6.73816ZM 7.65449 6.71816L 8.00006 6.81232L 8.52588 4.88268L 8.1803 4.78851L 7.65449 6.71816ZM 7.80566 6.73681C 7.8001 6.73395 7.87434 6.7796 8.03893 6.92905C 8.184 7.06077 8.34987 7.22721 8.5175 7.40417C 8.85172 7.75699 9.15671 8.11314 9.25602 8.23041L 10.7823 6.93793C 10.6734 6.80936 10.341 6.42093 9.96947 6.02875C 9.78424 5.83321 9.58018 5.62705 9.38337 5.44835C 9.20608 5.28738 8.96649 5.0848 8.72028 4.95819L 7.80566 6.73681ZM 9.25602 8.23041L 9.33929 8.32874L 10.8656 7.03626L 10.7823 6.93793L 9.25602 8.23041ZM 9.10242 7.6825L 9.10242 7.81083L 11.1024 7.81083L 11.1024 7.6825L 9.10242 7.6825ZM 9.10242 7.81083C 9.10242 7.80137 9.09969 7.88317 8.99935 8.05217C 8.90553 8.21019 8.75735 8.39069 8.56437 8.56183C 8.15556 8.92437 7.70406 9.11167 7.39029 9.11167L 7.39029 11.1117C 8.36056 11.1117 9.26513 10.6135 9.89137 10.0582C 10.2159 9.77036 10.505 9.43377 10.7191 9.0732C 10.9266 8.72361 11.1024 8.2853 11.1024 7.81083L 9.10242 7.81083Z"/>
</defs>
</svg>
