<svg width="45" height="50" viewBox="0 0 45 50" version="1.1" xmlns="http://www.w3.org/2000/svg" xmlns:xlink="http://www.w3.org/1999/xlink">
<title>&#208;&#145;&#208;&#181;&#208;&#183; &#208;&#189;&#208;&#176;&#208;&#183;&#208;&#178;&#208;&#176;&#208;&#189;&#208;&#184;&#209;&#143;</title>
<desc>Created using Figma</desc>
<g id="Canvas" transform="translate(-4021 -833)">
<g id="&#208;&#145;&#208;&#181;&#208;&#183; &#208;&#189;&#208;&#176;&#208;&#183;&#208;&#178;&#208;&#176;&#208;&#189;&#208;&#184;&#209;&#143;">
<g id="Vector">
<use xlink:href="#path0_fill" transform="translate(4021 833)" fill="#EF7F1A"/>
</g>
</g>
</g>
<defs>
<path id="path0_fill" d="M 42.7759 29.5833C 44.069 29.2187 45 28.0208 45 26.5625C 45 24.8438 43.6034 23.4375 41.8965 23.4375L 39.8276 23.4375L 38.7931 20.3125C 37.2414 15.625 32.5862 15.625 32.5862 15.625L 29.4828 15.625L 27.931 15.625L 27.931 14.8437C 27.931 13.5417 26.8966 12.5 25.6034 12.5C 24.0517 12.5 23.1724 12.5 22.7586 12.5C 22.7586 12.5 22.6034 12.5 22.2931 12.5C 21.8276 12.5 20.9483 12.5 19.4483 12.5C 18.1034 12.5 17.069 13.5417 17.069 14.8437L 17.069 15.625L 15.5172 15.625L 12.4138 15.625C 12.4138 15.625 7.75862 15.625 6.2069 20.3125L 5.17241 23.4375L 3.10345 23.4375C 1.39655 23.4375 0 24.8438 0 26.5625C 0 27.9687 0.931035 29.1667 2.22414 29.5833C 0.87931 30.7292 0 32.4479 0 34.375L 0 40.625C 0 41.5104 0.568965 42.2396 1.55172 42.8125L 1.55172 48.4375C 1.55172 49.3229 2.22414 50 3.10345 50L 7.75862 50C 8.63793 50 9.31034 49.3229 9.31034 48.4375L 9.31034 44.7917C 14.0172 45.3125 19.3966 45.3125 22.5 45.3125C 25.6034 45.3125 30.9828 45.3125 35.6897 44.7917L 35.6897 48.4375C 35.6897 49.3229 36.3621 50 37.2414 50L 41.8965 50C 42.7759 50 43.4483 49.3229 43.4483 48.4375L 43.4483 42.8125C 44.431 42.2396 45 41.5104 45 40.625L 45 34.375C 45 32.4479 44.1207 30.7292 42.7759 29.5833ZM 41.8965 25C 42.7759 25 43.4483 25.6771 43.4483 26.5625C 43.4483 27.4479 42.7759 28.125 41.8965 28.125L 41.3793 28.125L 40.3448 25L 41.8965 25ZM 18.6207 14.8437C 18.6207 14.4271 18.9828 14.0625 19.3966 14.0625C 20.9483 14.0625 21.8276 14.0625 22.2414 14.0625C 22.2414 14.0625 22.3966 14.0625 22.7069 14.0625C 23.1724 14.0625 24.0517 14.0625 25.5517 14.0625C 25.9655 14.0625 26.3276 14.4271 26.3276 14.8437L 26.3276 15.625L 18.6207 15.625L 18.6207 14.8437ZM 7.65517 20.7812C 8.12069 19.3229 9.05172 18.2292 10.4483 17.6042C 10.9655 17.3958 11.7931 17.1354 12.3621 17.1354L 17.7931 17.1354L 27.1034 17.1354L 32.5862 17.1354C 33.1552 17.1354 33.9828 17.3958 34.5 17.6042C 35.8965 18.2292 36.8276 19.3229 37.2931 20.7812L 39.7241 28.125L 38.7931 28.125L 37.2414 28.125L 7.75862 28.125L 6.2069 28.125L 5.27586 28.125L 7.65517 20.7812ZM 1.55172 26.5625C 1.55172 25.6771 2.22414 25 3.10345 25L 4.65517 25L 3.62069 28.125L 3.10345 28.125C 2.22414 28.125 1.55172 27.4479 1.55172 26.5625ZM 7.75862 48.4375L 3.10345 48.4375L 3.10345 43.5417C 4.39655 44.0104 6 44.3229 7.75862 44.5833L 7.75862 48.4375ZM 41.8965 48.4375L 37.2414 48.4375L 37.2414 44.5833C 39 44.3229 40.6034 44.0104 41.8965 43.5417L 41.8965 48.4375ZM 43.4483 40.625C 43.4483 40.6771 43.4483 40.6771 43.4483 40.7292C 43.2414 41.5104 40.9655 42.2396 40.2931 42.3958C 37.8103 43.0729 35.069 43.3333 32.5345 43.4896C 29.1724 43.6979 25.8103 43.75 22.5 43.75C 19.1897 43.75 15.8276 43.6979 12.5172 43.4896C 9.98276 43.3333 7.18965 43.0729 4.75862 42.3958C 4.08621 42.2396 1.81034 41.5104 1.60345 40.7292C 1.60345 40.6771 1.60345 40.6771 1.60345 40.625L 1.60345 34.375C 1.60345 31.7708 3.67241 29.6875 6.25862 29.6875L 7.81034 29.6875L 37.2931 29.6875L 38.8448 29.6875C 41.431 29.6875 43.5 31.7708 43.5 34.375L 43.5 40.625L 43.4483 40.625ZM 38.7931 32.8125C 37.0862 32.8125 35.6897 34.2188 35.6897 35.9375C 35.6897 37.6562 37.0862 39.0625 38.7931 39.0625C 40.5 39.0625 41.8965 37.6562 41.8965 35.9375C 41.8965 34.2188 40.5 32.8125 38.7931 32.8125ZM 38.7931 37.5C 37.9138 37.5 37.2414 36.8229 37.2414 35.9375C 37.2414 35.0521 37.9138 34.375 38.7931 34.375C 39.6724 34.375 40.3448 35.0521 40.3448 35.9375C 40.3448 36.8229 39.6724 37.5 38.7931 37.5ZM 30.2586 37.5L 14.7414 37.5C 14.3276 37.5 13.9655 37.8646 13.9655 38.2812C 13.9655 38.6979 14.3276 39.0625 14.7414 39.0625L 30.2586 39.0625C 30.6724 39.0625 31.0345 38.6979 31.0345 38.2812C 31.0345 37.8646 30.6724 37.5 30.2586 37.5ZM 15.5172 4.6875L 17.069 4.6875L 17.069 6.25C 17.069 7.13542 17.7414 7.8125 18.6207 7.8125L 20.1724 7.8125C 21.0517 7.8125 21.7241 7.13542 21.7241 6.25L 21.7241 4.6875L 23.2759 4.6875L 23.2759 6.25C 23.2759 7.13542 23.9483 7.8125 24.8276 7.8125L 26.3793 7.8125C 27.2586 7.8125 27.931 7.13542 27.931 6.25L 27.931 4.6875L 29.4828 4.6875C 30.3621 4.6875 31.0345 4.01042 31.0345 3.125L 31.0345 1.5625C 31.0345 0.677083 30.3621 0 29.4828 0L 27.931 0C 27.0517 0 26.3793 0.677083 26.3793 1.5625L 26.3793 3.125L 24.8276 3.125L 24.8276 1.5625C 24.8276 0.677083 24.1552 0 23.2759 0L 21.7241 0C 20.8448 0 20.1724 0.677083 20.1724 1.5625L 20.1724 3.125L 18.6207 3.125L 18.6207 1.5625C 18.6207 0.677083 17.9483 0 17.069 0L 15.5172 0C 14.6379 0 13.9655 0.677083 13.9655 1.5625L 13.9655 3.125C 13.9655 4.01042 14.6379 4.6875 15.5172 4.6875ZM 27.931 1.5625L 29.4828 1.5625L 29.4828 3.125L 27.931 3.125L 27.931 1.5625ZM 24.8276 4.6875L 26.3793 4.6875L 26.3793 6.25L 24.8276 6.25L 24.8276 4.6875ZM 21.7241 1.5625L 23.2759 1.5625L 23.2759 3.125L 21.7241 3.125L 21.7241 1.5625ZM 18.6207 4.6875L 20.1724 4.6875L 20.1724 6.25L 18.6207 6.25L 18.6207 4.6875ZM 15.5172 1.5625L 17.069 1.5625L 17.069 3.125L 15.5172 3.125L 15.5172 1.5625ZM 6.2069 32.8125C 4.5 32.8125 3.10345 34.2188 3.10345 35.9375C 3.10345 37.6562 4.5 39.0625 6.2069 39.0625C 7.91379 39.0625 9.31034 37.6562 9.31034 35.9375C 9.31034 34.2188 7.91379 32.8125 6.2069 32.8125ZM 6.2069 37.5C 5.32759 37.5 4.65517 36.8229 4.65517 35.9375C 4.65517 35.0521 5.32759 34.375 6.2069 34.375C 7.08621 34.375 7.75862 35.0521 7.75862 35.9375C 7.75862 36.8229 7.08621 37.5 6.2069 37.5ZM 31.8103 34.375L 13.1897 34.375C 12.7759 34.375 12.4138 34.7396 12.4138 35.1562C 12.4138 35.5729 12.7759 35.9375 13.1897 35.9375L 31.8103 35.9375C 32.2241 35.9375 32.5862 35.5729 32.5862 35.1562C 32.5862 34.7396 32.2241 34.375 31.8103 34.375Z"/>
</defs>
</svg>
