<svg width="50" height="50" viewBox="0 0 50 50" version="1.1" xmlns="http://www.w3.org/2000/svg" xmlns:xlink="http://www.w3.org/1999/xlink">
<title>Union</title>
<desc>Created using Figma</desc>
<g id="Canvas" transform="translate(-4184 -615)">
<g id="Union">
<use xlink:href="#path0_fill" transform="translate(4184 615)" fill="#EF7F1A"/>
</g>
</g>
<defs>
<path id="path0_fill" fill-rule="evenodd" d="M 32.2887 17.1443C 32.2887 25.5083 25.5083 32.2886 17.1443 32.2886C 8.78035 32.2886 2 25.5083 2 17.1443C 2 8.78033 8.78035 2 17.1443 2C 25.5083 2 32.2887 8.78033 32.2887 17.1443ZM 27.2586 30.9888C 24.4234 33.0637 20.9269 34.2886 17.1443 34.2886C 7.67579 34.2886 0 26.6129 0 17.1443C 0 7.67578 7.67579 0 17.1443 0C 26.6129 0 34.2887 7.67578 34.2887 17.1443C 34.2887 20.9269 33.0637 24.4234 30.9888 27.2587L 31.5202 27.7902L 48.5858 44.8557L 50 46.2699L 48.5858 47.6841L 47.6841 48.5858L 46.2699 50L 44.8557 48.5858L 27.7901 31.5203L 27.2586 30.9888ZM 29.2043 30.1061L 30.106 29.2044L 47.1716 46.2699L 46.2699 47.1716L 29.2043 30.1061Z"/>
</defs>
</svg>
