<svg width="50" height="50" viewBox="0 0 50 50" version="1.1" xmlns="http://www.w3.org/2000/svg" xmlns:xlink="http://www.w3.org/1999/xlink">
<title>Union</title>
<desc>Created using Figma</desc>
<g id="Canvas" transform="translate(-4504 -615)">
<g id="Union">
<use xlink:href="#path0_fill" transform="translate(4504 615)" fill="#EF7F1A"/>
</g>
</g>
<defs>
<path id="path0_fill" fill-rule="evenodd" d="M 48 25C 48 37.7026 37.7025 48 25 48C 12.2975 48 2 37.7026 2 25C 2 12.2974 12.2975 2 25 2C 37.7025 2 48 12.2974 48 25ZM 50 25C 50 38.8071 38.8071 50 25 50C 11.1929 50 0 38.8071 0 25C 0 11.1929 11.1929 0 25 0C 38.8071 0 50 11.1929 50 25ZM 32.3577 18.3832C 32.6239 17.8992 32.4473 17.2912 31.9634 17.025C 31.4795 16.7589 30.8714 16.9354 30.6053 17.4193L 23.1012 31.0631L 18.6108 26.5413C 18.2216 26.1495 17.5885 26.1472 17.1966 26.5364C 16.8047 26.9256 16.8025 27.5587 17.1917 27.9506L 22.6238 33.4207C 22.8459 33.6443 23.1603 33.7502 23.4724 33.7064C 23.7845 33.6625 24.0577 33.4741 24.2096 33.198L 32.3577 18.3832Z"/>
</defs>
</svg>
